{"glyphs":{"0":{"ha":1160,"x_min":68,"x_max":1093,"o":"m 951 1017 q 1058 941 1024 998 q 1093 802 1093 884 q 1057 607 1093 713 q 899 312 1006 452 q 655 86 792 172 q 383 0 519 0 q 219 45 291 0 q 109 177 148 91 q 68 376 68 266 q 112 621 68 494 q 231 862 157 748 q 396 1057 306 975 q 575 1181 481 1135 q 757 1235 669 1228 q 779 1236 768 1236 q 911 1188 862 1236 q 960 1074 960 1140 q 951 1017 960 1046 m 731 270 q 840 417 804 333 q 876 587 876 500 q 854 714 876 656 q 797 806 833 772 q 713 840 760 840 q 620 806 667 840 q 518 681 557 760 q 478 525 478 602 q 486 462 478 491 q 491 441 491 448 q 467 421 491 426 q 436 418 452 418 q 357 446 388 418 q 313 536 313 485 q 335 617 313 575 q 393 710 356 660 q 553 879 460 802 q 744 995 647 957 q 648 1059 721 1059 q 545 1034 600 1059 q 450 972 490 1008 q 321 790 363 889 q 279 589 279 690 q 318 397 279 486 q 423 254 357 307 q 566 201 489 201 q 731 270 651 201 z "},"1":{"ha":835,"x_min":68,"x_max":767,"o":"m 442 886 q 481 1020 481 961 q 453 1100 481 1072 q 378 1128 425 1128 q 297 1109 340 1128 q 203 1039 239 1082 q 159 953 166 995 q 151 943 158 943 q 142 946 147 943 q 114 995 131 954 q 90 1058 97 1036 q 84 1096 84 1078 q 163 1179 84 1159 q 527 1236 391 1236 q 690 1199 639 1236 q 767 1065 767 1152 q 737 937 767 1008 q 662 791 707 865 q 538 599 616 717 q 444 454 481 513 q 374 336 407 395 q 313 199 335 267 q 290 83 290 132 q 302 26 290 47 q 305 14 305 19 q 285 0 305 0 q 187 9 228 0 q 119 37 146 18 q 80 81 93 55 q 68 143 68 108 q 108 299 68 207 q 224 515 148 391 q 260 572 236 533 q 367 746 324 675 q 442 886 409 818 z "},"2":{"ha":1183,"x_min":68,"x_max":1115,"o":"m 302 3 q 127 56 187 13 q 68 162 68 98 q 107 273 68 214 q 222 386 147 331 q 318 449 266 418 q 454 525 371 479 q 651 652 574 587 q 761 778 727 718 q 795 887 795 838 q 766 966 795 936 q 690 996 736 996 q 613 975 654 996 q 534 913 573 955 q 480 830 499 878 q 462 734 462 783 q 486 637 462 680 q 489 632 487 635 q 497 612 497 617 q 476 596 497 600 q 437 592 456 592 q 357 614 392 592 q 292 716 292 654 q 311 790 292 752 q 363 881 329 828 q 508 1051 422 970 q 696 1184 595 1132 q 898 1236 798 1236 l 911 1236 q 1057 1181 999 1232 q 1115 1045 1115 1130 q 1114 1029 1115 1037 q 924 705 1103 858 q 509 424 744 553 q 406 348 439 386 q 373 275 373 309 q 399 217 373 243 q 470 178 425 192 q 568 163 515 163 q 672 177 619 163 q 772 219 724 191 q 836 267 806 239 q 878 319 866 294 q 885 344 882 327 q 890 363 887 357 q 901 369 892 369 q 917 364 907 369 q 998 274 978 332 q 1002 247 1002 260 q 937 149 1002 195 q 774 69 871 102 q 565 18 676 37 q 362 0 454 0 q 302 3 330 0 z "},"3":{"ha":1204,"x_min":67,"x_max":1137,"o":"m 99 397 q 166 510 127 466 q 259 555 205 555 q 316 541 286 555 q 407 447 376 513 q 411 431 411 437 q 400 415 411 419 q 368 410 389 411 q 286 380 323 406 q 225 315 248 354 q 203 239 203 277 q 246 154 203 187 q 376 120 288 120 q 411 121 393 120 q 621 182 530 130 q 762 305 712 233 q 812 443 812 376 q 769 540 812 503 q 643 577 726 577 q 589 573 617 577 l 583 573 q 540 591 557 573 q 524 633 524 610 q 532 663 524 650 q 558 684 541 677 q 741 805 682 736 q 800 937 800 873 q 770 1015 800 984 q 694 1045 740 1045 q 578 997 637 1045 q 490 898 524 956 q 456 785 456 840 q 464 738 456 760 q 467 729 465 735 q 472 711 472 716 q 451 699 472 699 l 446 699 q 345 735 389 699 q 298 823 298 777 q 319 889 298 857 q 376 963 339 922 q 617 1163 491 1095 q 850 1236 743 1231 l 862 1236 q 970 1215 922 1236 q 1048 1154 1019 1194 q 1076 1060 1076 1114 q 1067 998 1076 1030 q 1004 881 1050 943 q 878 753 957 819 q 1072 697 1007 752 q 1137 555 1137 643 q 1082 376 1137 471 q 928 197 1028 281 q 691 59 828 113 q 398 1 555 5 l 380 1 q 215 31 286 1 q 106 117 144 60 q 68 250 68 173 q 99 397 68 318 z "},"4":{"ha":1250,"x_min":67,"x_max":1182,"o":"m 960 546 q 998 528 985 544 q 1012 490 1012 511 q 997 449 1012 467 q 956 432 982 432 l 950 432 q 850 437 909 436 q 789 335 817 382 q 728 199 751 266 q 706 83 706 132 q 718 26 706 47 q 721 14 721 19 q 701 0 721 0 q 536 36 589 0 q 484 142 484 72 q 510 264 484 194 q 587 423 536 334 q 144 312 372 395 q 124 308 134 308 q 84 326 100 308 q 68 367 68 344 q 90 410 68 393 q 248 584 174 475 q 364 813 321 693 q 407 1026 407 932 q 359 1166 407 1122 q 347 1180 351 1175 q 343 1190 343 1185 q 361 1210 343 1200 q 456 1236 407 1236 q 498 1230 478 1236 q 597 1164 565 1213 q 630 1051 630 1115 q 615 964 630 1007 q 328 490 529 700 q 661 546 488 531 q 669 560 663 551 q 769 723 729 656 q 847 862 810 790 q 906 999 884 935 q 929 1116 929 1063 q 926 1147 929 1133 q 913 1181 924 1159 q 903 1211 903 1202 q 934 1232 903 1227 q 975 1236 954 1236 q 1105 1196 1049 1236 q 1182 1063 1182 1149 q 1164 968 1182 1020 q 1115 858 1146 916 q 1049 744 1084 800 q 956 600 1014 688 q 922 548 933 565 q 935 547 926 548 q 960 546 951 547 z "},"5":{"ha":1263,"x_min":67,"x_max":1196,"o":"m 1102 1230 q 1168 1206 1142 1226 q 1195 1141 1195 1185 q 1194 1121 1195 1132 q 1180 1054 1190 1097 q 1160 1001 1169 1010 q 1150 996 1154 996 q 1141 1005 1143 996 q 1036 1090 1122 1061 q 814 1122 949 1119 l 804 1122 q 613 1062 696 1122 q 475 886 529 1001 q 605 926 543 913 q 705 936 657 936 q 892 891 813 936 q 1014 768 972 846 q 1055 598 1055 691 q 1017 420 1055 510 q 904 253 979 331 q 637 68 790 137 q 345 0 484 0 l 334 0 q 137 66 207 3 q 68 233 68 129 q 98 379 68 301 q 139 468 120 433 q 186 527 158 502 q 253 551 214 551 q 315 536 281 551 q 396 449 370 511 q 399 435 399 441 q 391 421 399 425 q 365 414 383 418 q 349 410 355 412 q 281 371 313 401 q 230 298 249 340 q 210 218 210 256 q 240 143 210 172 q 334 114 271 114 l 337 114 q 515 156 434 114 q 652 268 595 199 q 739 416 709 337 q 769 564 769 494 q 762 626 769 597 q 693 726 745 690 q 569 761 642 761 q 451 739 513 761 q 331 673 390 717 q 297 661 315 661 q 259 678 275 661 q 241 717 242 694 q 240 726 240 722 q 246 750 240 738 l 421 1088 q 351 1059 380 1078 q 310 1007 323 1040 q 307 996 309 1004 q 301 983 304 987 q 294 979 299 979 q 281 984 290 979 q 229 1057 238 1013 q 225 1087 225 1073 q 260 1157 225 1135 q 357 1189 296 1179 q 649 1223 488 1211 q 944 1236 810 1236 q 1102 1230 1036 1236 z "},"6":{"ha":1160,"x_min":68,"x_max":1093,"o":"m 882 1229 q 937 1236 910 1236 q 1036 1200 999 1236 q 1074 1108 1074 1164 q 1053 1026 1074 1068 q 1035 1009 1044 1009 q 1014 1024 1028 1009 q 1010 1027 1012 1026 q 874 1074 962 1074 q 743 1052 813 1074 q 609 994 672 1030 q 433 811 491 928 q 376 561 376 694 q 409 365 376 457 q 502 217 442 273 q 636 161 562 161 q 730 183 682 161 q 807 269 781 208 q 834 408 834 330 q 806 563 834 487 q 725 689 779 638 q 596 745 671 739 q 554 762 569 745 q 539 803 539 779 q 554 844 539 827 q 596 861 569 861 q 860 805 747 855 q 1033 673 973 754 q 1093 500 1093 593 q 1092 478 1093 489 q 1002 250 1082 361 q 787 70 922 140 q 489 0 652 0 q 275 51 372 0 q 123 190 179 101 q 68 391 68 279 q 78 486 68 438 q 237 819 116 663 q 530 1081 359 974 q 882 1229 701 1188 z "},"7":{"ha":1173,"x_min":67,"x_max":1105,"o":"m 932 1236 q 1026 1220 987 1236 q 1085 1179 1065 1205 q 1105 1122 1105 1154 q 1062 1031 1105 1074 q 1046 1021 1053 1021 q 1037 1026 1040 1021 q 1029 1039 1034 1030 q 1022 1052 1025 1048 q 940 1122 994 1099 q 959 1043 959 1090 q 905 857 959 963 q 841 747 877 804 q 746 601 805 690 q 651 454 688 513 q 580 335 613 395 q 518 199 541 266 q 496 82 496 132 q 507 26 496 47 q 511 14 511 19 q 490 0 511 0 q 326 36 378 0 q 274 142 274 72 q 314 298 274 206 q 431 513 354 390 q 439 528 433 518 q 560 726 511 644 q 648 885 609 808 q 677 991 677 943 q 644 1070 677 1041 q 546 1100 610 1100 q 487 1095 519 1100 q 354 1057 400 1076 q 216 979 269 1023 q 153 885 163 935 q 143 873 151 873 q 131 879 138 873 q 100 939 119 889 q 73 1019 81 989 q 68 1061 68 1042 q 170 1164 68 1143 q 519 1211 289 1188 q 924 1236 749 1233 l 932 1236 z "},"8":{"ha":1219,"x_min":67,"x_max":1152,"o":"m 884 736 q 907 736 896 736 q 1088 688 1024 736 q 1152 559 1152 640 q 1097 402 1152 486 q 937 237 1043 317 q 628 67 795 131 q 332 0 461 3 l 328 0 q 132 57 197 0 q 68 208 68 115 q 99 348 68 275 q 186 487 131 422 q 240 536 213 518 q 298 553 267 553 q 373 528 333 553 q 439 427 423 494 q 441 415 441 420 q 425 400 441 400 q 410 401 420 400 q 401 402 406 402 q 336 386 372 402 q 267 341 300 369 q 199 268 220 301 q 178 208 178 235 q 210 152 178 172 q 294 132 242 132 q 386 147 336 132 q 485 191 435 161 q 617 290 555 233 q 719 404 680 347 q 758 500 758 460 q 731 550 758 532 q 650 568 705 568 q 575 561 617 568 q 474 553 523 553 q 298 590 372 553 q 207 713 224 626 q 202 758 202 735 q 267 935 202 848 q 425 1088 331 1022 q 604 1185 518 1154 q 851 1236 741 1236 q 970 1215 920 1236 q 1054 1152 1024 1194 q 1084 1055 1084 1109 q 1080 1015 1084 1035 q 1039 917 1072 971 q 964 813 1007 862 q 884 736 922 764 m 706 706 q 766 720 736 713 q 733 743 753 727 q 686 844 691 781 l 686 850 q 698 867 686 867 q 713 864 703 867 q 715 864 714 864 q 753 860 734 860 q 849 889 804 860 q 921 962 895 918 q 948 1046 948 1006 q 924 1104 948 1082 q 853 1126 901 1126 q 803 1120 830 1126 q 743 1104 775 1115 q 621 1031 675 1081 q 538 922 568 982 q 509 808 509 861 q 538 725 509 757 q 627 694 568 694 q 706 706 663 694 z "},"9":{"ha":1160,"x_min":67,"x_max":1093,"o":"m 279 7 q 223 1 250 1 q 124 36 161 1 q 87 127 87 72 q 108 210 87 168 q 125 227 117 227 q 147 212 132 227 q 151 209 149 210 q 287 162 199 162 q 418 184 349 162 q 552 242 488 206 q 728 426 670 309 q 785 675 785 543 q 752 871 785 779 q 659 1020 718 964 q 525 1076 600 1076 q 431 1053 479 1076 q 353 967 380 1028 q 326 829 326 906 q 354 673 326 749 q 436 548 382 598 q 564 491 490 497 q 606 474 591 491 q 621 433 621 456 q 606 392 621 410 q 564 375 591 375 q 300 431 413 380 q 128 563 188 482 q 68 736 68 644 q 68 758 68 747 q 159 985 79 875 q 373 1166 239 1096 q 671 1236 508 1236 q 885 1185 789 1236 q 1037 1046 981 1135 q 1093 845 1093 957 q 1082 749 1093 798 q 923 417 1044 572 q 631 155 802 262 q 279 7 460 48 z "},"\u0000":{"ha":0,"x_min":0,"x_max":0,"o":""},"\b":{"ha":0,"x_min":0,"x_max":0,"o":""},"\u001d":{"ha":0,"x_min":0,"x_max":0,"o":""},"\t":{"ha":345,"x_min":0,"x_max":0,"o":""},"\r":{"ha":345,"x_min":0,"x_max":0,"o":""}," ":{"ha":471,"x_min":0,"x_max":0,"o":""}," ":{"ha":471,"x_min":0,"x_max":0,"o":""},"!":{"ha":668,"x_min":67,"x_max":601,"o":"m 196 208 q 257 185 233 208 q 280 125 280 161 q 278 104 280 115 q 232 31 269 61 q 152 0 195 0 q 92 23 115 0 q 68 83 68 47 q 70 104 68 93 q 116 178 79 147 q 196 208 153 208 m 282 1087 q 327 1171 295 1136 q 398 1223 358 1206 q 479 1241 439 1241 q 566 1213 531 1241 q 601 1133 601 1184 q 594 1087 601 1112 l 286 304 q 257 263 278 278 q 213 248 237 248 q 181 259 194 248 q 169 288 169 269 q 171 304 169 296 l 282 1087 z "},"\"":{"ha":519,"x_min":68,"x_max":452,"o":"m 97 1010 q 107 1021 107 1015 q 96 1041 107 1027 q 76 1072 83 1057 q 68 1107 68 1086 q 71 1129 68 1118 q 117 1203 79 1173 q 197 1233 154 1233 q 242 1221 222 1233 q 273 1189 262 1209 q 367 1233 314 1233 q 428 1210 404 1233 q 451 1151 451 1187 q 449 1129 451 1140 q 393 1020 437 1073 q 293 939 349 968 q 271 932 281 932 q 247 943 256 932 q 237 968 237 954 q 245 991 237 980 q 267 1010 252 1003 q 277 1021 277 1015 q 266 1041 277 1027 q 252 1061 256 1053 q 123 939 203 981 q 101 932 111 932 q 77 943 86 932 q 68 968 68 953 q 75 991 68 980 q 97 1010 83 1003 z "},"#":{"ha":451,"x_min":68,"x_max":383,"o":"m 340 614 q 372 601 361 614 q 383 572 383 589 q 372 542 383 555 q 340 530 361 530 l 307 530 l 305 521 q 290 494 302 503 q 264 485 279 485 q 234 496 247 485 q 222 526 222 508 l 222 530 l 197 530 l 195 521 q 180 494 192 503 q 154 485 169 485 q 124 496 137 485 q 112 526 112 508 l 112 530 l 111 530 q 79 542 90 530 q 68 572 68 555 q 79 601 68 589 q 111 614 90 614 l 127 614 l 129 627 l 111 627 q 79 640 90 627 q 68 669 68 652 q 79 699 68 686 q 111 711 90 711 l 144 711 l 146 720 q 161 747 149 738 q 187 755 172 755 q 217 745 204 755 q 229 715 229 734 l 229 711 l 254 711 l 256 720 q 271 747 259 738 q 297 755 282 755 q 327 745 314 755 q 339 715 339 734 l 339 711 l 340 711 q 372 699 361 711 q 383 669 383 686 q 372 640 383 652 q 340 627 361 627 l 324 627 l 322 614 l 340 614 m 239 627 l 215 627 l 212 614 l 237 614 l 239 627 z "},"$":{"ha":1143,"x_min":67,"x_max":1075,"o":"m 781 1149 q 895 1233 827 1233 q 974 1208 931 1233 q 1033 1168 1001 1192 q 1072 1126 1065 1143 q 1075 1115 1075 1120 q 1060 1103 1075 1103 l 1057 1103 q 1048 1104 1053 1104 q 880 1018 968 1104 q 939 962 918 996 q 961 883 961 928 q 920 719 920 789 q 942 636 920 669 q 946 626 946 631 q 931 615 946 617 l 927 615 q 881 626 909 615 q 833 648 852 637 q 769 742 769 686 q 795 820 769 778 q 833 876 811 844 q 842 900 842 889 q 829 922 842 914 q 795 930 816 930 q 739 916 768 930 q 691 875 710 903 q 671 808 671 848 q 681 753 671 783 q 706 690 690 723 q 746 609 721 658 q 785 527 771 558 q 806 471 800 496 q 814 405 814 437 q 774 280 814 332 q 666 201 733 228 q 522 174 599 174 q 414 188 467 174 l 361 81 q 248 -3 316 -3 q 169 22 211 -3 q 71 104 82 76 q 68 115 68 111 q 81 127 68 127 l 85 127 q 95 126 90 126 q 192 157 141 126 q 294 245 243 188 q 212 344 241 285 q 182 479 182 403 q 190 561 182 519 q 247 707 207 649 q 342 764 287 764 q 376 758 359 764 q 379 758 377 758 q 446 730 421 744 q 490 688 471 716 q 498 667 498 674 q 492 657 498 660 q 473 652 486 654 q 447 646 455 650 q 358 570 401 623 q 329 494 329 532 q 352 428 329 458 q 412 379 376 397 q 485 361 448 361 q 547 379 520 361 q 585 435 574 397 q 593 490 593 461 q 576 586 593 538 q 524 705 558 634 q 488 781 500 751 q 468 840 475 811 q 463 879 463 860 q 500 975 463 935 q 596 1036 537 1015 q 722 1057 656 1057 l 734 1057 l 781 1149 z "},"%":{"ha":1727,"x_min":67,"x_max":1659,"o":"m 736 1067 q 818 1010 792 1053 q 844 904 844 967 q 817 757 844 838 q 697 534 779 640 q 513 362 616 428 q 307 297 409 297 q 183 331 237 297 q 98 431 129 366 q 68 583 68 498 q 101 768 68 672 q 192 950 135 864 q 317 1097 248 1036 q 452 1192 382 1157 q 590 1232 523 1227 q 607 1233 599 1233 q 706 1198 669 1233 q 743 1111 743 1162 q 736 1067 743 1089 m 570 501 q 653 612 626 549 q 680 742 680 676 q 664 838 680 793 q 620 908 648 882 q 556 934 591 934 q 486 907 522 934 q 409 813 439 873 q 378 695 378 753 q 385 647 378 669 q 385 646 385 647 q 389 631 389 636 q 370 616 389 620 q 346 614 358 614 q 286 635 310 614 q 254 703 254 665 q 270 765 254 732 q 315 835 286 797 q 435 963 364 904 q 581 1051 507 1022 q 507 1099 563 1099 q 429 1080 471 1099 q 357 1034 387 1061 q 259 896 291 970 q 228 743 228 821 q 257 597 228 665 q 337 489 287 530 q 445 449 387 449 q 570 501 510 449 m 1551 768 q 1633 711 1607 754 q 1659 605 1659 668 q 1632 457 1659 538 q 1512 234 1593 340 q 1327 63 1431 128 q 1121 -3 1223 -3 q 997 32 1051 -3 q 913 132 943 66 q 882 283 882 199 q 916 469 882 373 q 1006 651 949 565 q 1131 798 1063 736 q 1267 892 1196 857 q 1404 932 1337 928 q 1423 933 1414 933 q 1521 898 1485 933 q 1558 812 1558 863 q 1551 768 1558 790 m 1385 202 q 1467 313 1440 250 q 1494 442 1494 376 q 1478 538 1494 494 q 1435 608 1463 582 q 1371 634 1407 634 q 1301 608 1337 634 q 1223 513 1254 573 q 1193 395 1193 454 q 1200 347 1193 370 q 1200 346 1200 347 q 1203 332 1203 336 q 1185 317 1203 320 q 1160 314 1173 314 q 1101 336 1124 314 q 1069 404 1069 365 q 1085 466 1069 433 q 1129 536 1101 498 q 1251 664 1180 605 q 1395 751 1322 722 q 1322 800 1377 800 q 1244 781 1286 800 q 1171 734 1202 762 q 1074 596 1105 671 q 1042 444 1042 521 q 1072 298 1042 366 q 1151 190 1101 231 q 1259 150 1201 150 q 1385 202 1324 150 m 1350 1103 q 1340 1104 1345 1104 q 1167 1014 1258 1104 q 1000 772 1076 924 l 653 81 q 540 -3 608 -3 q 461 22 503 -3 q 401 63 433 39 q 362 104 370 87 q 360 115 360 111 q 373 127 360 127 l 377 127 q 387 126 382 126 q 559 217 468 126 q 726 458 651 307 l 1074 1149 q 1186 1233 1119 1233 q 1265 1208 1223 1233 q 1324 1168 1292 1193 q 1364 1126 1356 1143 q 1367 1115 1367 1120 q 1352 1103 1367 1103 l 1350 1103 z "},"&":{"ha":1379,"x_min":67,"x_max":1312,"o":"m 1218 665 q 1259 648 1244 665 q 1274 607 1274 631 q 1259 566 1274 583 q 1218 549 1244 549 l 1069 549 q 1117 414 1117 488 q 1070 259 1117 336 q 955 127 1023 182 q 1008 119 981 119 q 1114 154 1065 119 q 1181 229 1163 190 q 1192 239 1185 239 q 1205 231 1198 239 q 1220 183 1215 218 q 1225 121 1225 149 l 1225 116 q 1181 26 1225 54 q 1064 -2 1137 -2 q 937 15 1004 -2 q 830 52 869 32 q 567 -3 706 -3 q 289 50 401 -3 q 122 191 176 103 q 68 387 68 279 q 137 627 68 507 q 333 830 205 748 q 628 926 460 911 q 803 1149 693 1065 q 1055 1233 912 1233 q 1192 1198 1134 1233 q 1280 1105 1250 1163 q 1311 978 1311 1046 q 1257 802 1311 884 q 1160 740 1214 740 q 1084 770 1124 740 q 1006 851 1015 825 q 1005 859 1005 855 q 1016 869 1005 869 q 1021 869 1019 869 q 1067 863 1046 863 q 1157 897 1125 863 q 1189 975 1189 930 q 1165 1041 1189 1014 q 1098 1068 1141 1068 q 949 1002 1034 1068 q 830 867 889 954 q 734 676 772 781 q 696 473 696 572 q 730 312 696 386 q 837 184 764 237 q 910 266 884 211 q 937 382 937 321 q 901 501 937 453 q 798 549 865 549 q 756 566 771 549 q 741 607 741 583 q 756 648 741 631 q 798 665 771 665 l 1218 665 m 583 804 q 462 748 512 796 q 387 628 412 700 q 361 474 361 555 q 392 303 361 384 q 485 172 423 222 q 632 121 546 121 q 718 134 673 121 q 594 334 635 216 q 553 581 553 451 q 583 804 553 696 z "},"'":{"ha":349,"x_min":68,"x_max":281,"o":"m 97 1010 q 107 1021 107 1015 q 96 1041 107 1027 q 76 1072 83 1057 q 68 1107 68 1086 q 71 1129 68 1118 q 117 1203 79 1173 q 197 1233 154 1233 q 257 1210 234 1233 q 281 1151 281 1187 q 279 1129 281 1140 q 223 1020 267 1073 q 123 939 180 968 q 101 932 111 932 q 77 943 86 932 q 68 968 68 953 q 75 991 68 980 q 97 1010 83 1003 z "},"(":{"ha":1033,"x_min":68,"x_max":966,"o":"m 411 -49 q 441 -59 431 -49 q 451 -85 451 -68 q 427 -137 451 -110 q 370 -163 404 -163 q 142 -61 217 -163 q 68 213 68 41 q 138 592 68 386 q 329 983 208 799 q 607 1282 451 1168 q 925 1397 762 1397 q 955 1387 945 1397 q 965 1361 965 1377 q 941 1309 965 1336 q 884 1282 918 1282 q 731 1203 812 1282 q 573 991 650 1123 q 434 704 496 860 q 335 401 372 549 q 299 143 299 254 q 327 2 299 52 q 411 -49 354 -49 z "},")":{"ha":1033,"x_min":67,"x_max":965,"o":"m 149 -49 q 302 31 220 -49 q 460 242 383 111 q 599 529 537 374 q 697 832 661 685 q 734 1090 734 980 q 706 1232 734 1181 q 622 1282 679 1282 q 592 1292 602 1282 q 582 1318 582 1302 q 606 1370 582 1343 q 663 1397 629 1397 q 890 1295 816 1397 q 965 1021 965 1193 q 895 641 965 848 q 704 250 825 435 q 426 -49 582 66 q 108 -163 271 -163 q 78 -154 87 -163 q 68 -127 68 -144 q 92 -76 68 -102 q 149 -49 115 -49 z "},"*":{"ha":417,"x_min":67,"x_max":349,"o":"m 292 1168 q 310 1171 302 1171 q 338 1159 328 1171 q 349 1130 349 1147 q 337 1095 349 1112 q 303 1072 326 1079 l 279 1065 l 289 1045 q 294 1025 294 1036 q 273 983 294 1002 q 229 964 252 964 q 195 985 205 964 l 184 1005 l 166 985 q 123 964 146 964 q 92 977 104 964 q 79 1006 79 989 q 97 1045 79 1026 l 115 1065 l 94 1072 q 68 1107 68 1081 q 86 1151 68 1131 q 130 1171 105 1171 q 146 1168 138 1171 l 167 1161 l 172 1185 q 195 1222 177 1208 q 233 1235 212 1235 q 263 1225 251 1235 q 275 1197 275 1215 q 273 1185 275 1191 l 269 1161 l 292 1168 z "},"+":{"ha":699,"x_min":68,"x_max":631,"o":"m 245 568 q 152 555 196 568 q 86 513 109 541 q 76 506 80 506 q 70 511 72 506 q 68 522 68 515 q 80 584 68 542 q 127 651 95 631 q 196 672 159 672 l 319 672 l 332 703 q 355 795 355 758 q 334 839 355 829 q 329 844 329 841 q 338 854 329 848 q 374 867 349 862 q 418 874 400 873 q 433 875 427 875 q 484 835 484 875 q 475 795 484 818 l 423 672 l 454 672 q 547 686 503 672 q 613 728 591 700 q 623 734 618 734 q 629 730 627 734 q 631 719 631 726 q 627 688 631 707 q 618 657 623 669 q 572 589 604 610 q 503 568 540 568 l 380 568 l 367 537 q 344 446 344 483 q 366 401 344 411 q 370 397 370 399 q 361 386 370 392 q 280 366 344 374 q 267 366 273 366 q 215 406 215 366 q 224 445 215 423 l 276 568 l 245 568 z "},",":{"ha":349,"x_min":68,"x_max":281,"o":"m 97 -17 q 107 -6 107 -12 q 96 14 107 -1 q 76 44 83 29 q 68 80 68 59 q 71 102 68 90 q 117 175 79 144 q 197 205 154 205 q 257 182 234 205 q 281 123 281 159 q 279 102 281 113 q 223 -7 267 45 q 123 -89 180 -60 q 101 -95 111 -95 q 77 -85 86 -95 q 68 -60 68 -75 q 75 -36 68 -47 q 97 -17 83 -24 z "},"-":{"ha":396,"x_min":67,"x_max":328,"o":"m 109 568 q 78 579 89 568 q 68 608 68 591 q 86 652 68 632 q 132 672 104 672 l 286 672 q 317 661 307 672 q 328 632 328 650 q 310 588 328 608 q 264 568 292 568 l 109 568 z "},"­":{"ha":396,"x_min":67,"x_max":328,"o":"m 109 568 q 78 579 89 568 q 68 608 68 591 q 86 652 68 632 q 132 672 104 672 l 286 672 q 317 661 307 672 q 328 632 328 650 q 310 588 328 608 q 264 568 292 568 l 109 568 z "},".":{"ha":349,"x_min":67,"x_max":281,"o":"m 196 205 q 257 182 233 205 q 280 123 280 159 q 278 102 280 113 q 232 28 269 58 q 152 -3 195 -3 q 91 21 115 -3 q 68 80 68 44 q 70 102 68 91 q 116 175 79 144 q 196 205 153 205 z "},"/":{"ha":1143,"x_min":67,"x_max":1075,"o":"m 361 81 q 248 -3 316 -3 q 169 22 211 -3 q 71 104 82 76 q 68 115 68 111 q 81 127 68 127 l 85 127 q 95 126 90 126 q 268 217 176 126 q 435 458 359 307 l 781 1149 q 895 1233 827 1233 q 974 1208 931 1233 q 1033 1168 1001 1192 q 1072 1126 1065 1143 q 1075 1115 1075 1120 q 1060 1103 1075 1103 l 1057 1103 q 1048 1104 1053 1104 q 875 1014 966 1104 q 708 772 784 924 l 361 81 z "},":":{"ha":412,"x_min":67,"x_max":344,"o":"m 260 868 q 320 845 296 868 q 343 786 343 821 q 341 764 343 775 q 295 690 332 721 q 216 660 258 660 q 155 683 178 660 q 132 743 132 707 q 134 764 132 753 q 180 838 143 807 q 260 868 216 868 m 196 570 q 257 547 233 570 q 280 488 280 524 q 278 467 280 477 q 232 393 269 423 q 152 363 195 363 q 91 386 115 363 q 68 445 68 410 q 70 467 68 456 q 116 540 79 510 q 196 570 153 570 z "},";":{"ha":412,"x_min":68,"x_max":345,"o":"m 260 868 q 320 845 297 868 q 344 786 344 821 q 342 764 344 775 q 296 690 332 721 q 216 660 259 660 q 156 683 179 660 q 132 743 132 707 q 134 764 132 753 q 180 838 144 807 q 260 868 217 868 m 197 570 q 257 547 234 570 q 281 488 281 524 q 279 467 281 477 q 223 358 267 410 q 123 276 180 305 q 101 270 111 270 q 77 280 86 270 q 68 305 68 290 q 75 329 68 317 q 97 348 83 340 q 107 359 107 353 q 96 378 107 364 q 76 409 83 394 q 68 445 68 424 q 71 467 68 455 q 117 540 79 510 q 197 570 154 570 z "},";":{"ha":412,"x_min":68,"x_max":345,"o":"m 260 868 q 320 845 297 868 q 344 786 344 821 q 342 764 344 775 q 296 690 332 721 q 216 660 259 660 q 156 683 179 660 q 132 743 132 707 q 134 764 132 753 q 180 838 144 807 q 260 868 217 868 m 197 570 q 257 547 234 570 q 281 488 281 524 q 279 467 281 477 q 223 358 267 410 q 123 276 180 305 q 101 270 111 270 q 77 280 86 270 q 68 305 68 290 q 75 329 68 317 q 97 348 83 340 q 107 359 107 353 q 96 378 107 364 q 76 409 83 394 q 68 445 68 424 q 71 467 68 455 q 117 540 79 510 q 197 570 154 570 z "},"<":{"ha":797,"x_min":68,"x_max":729,"o":"m 94 552 q 68 593 68 566 q 89 641 68 617 q 146 678 109 665 l 640 861 q 684 870 665 870 q 729 821 729 870 q 728 810 729 816 q 708 734 721 751 q 696 726 701 726 q 690 730 692 726 q 644 749 680 749 q 596 743 623 749 q 541 726 570 737 l 240 615 l 448 504 q 532 481 491 481 q 595 500 568 481 q 604 504 600 504 q 608 497 608 504 l 608 496 q 593 461 608 485 q 566 420 578 437 q 472 360 522 360 q 435 370 453 360 l 94 552 z "},"=":{"ha":735,"x_min":68,"x_max":667,"o":"m 588 631 q 589 621 589 628 q 577 559 589 600 q 531 491 563 512 q 462 470 498 470 l 245 470 q 152 456 196 470 q 86 415 109 443 q 76 408 80 408 q 70 412 72 408 q 68 424 68 416 q 80 486 68 444 q 127 553 95 532 q 196 574 159 574 l 412 574 q 505 588 461 574 q 571 629 549 602 q 581 636 577 636 q 588 631 585 636 m 665 819 q 667 807 667 814 q 655 745 667 785 q 608 677 640 699 q 539 656 576 656 l 322 656 q 230 643 273 656 q 164 602 186 629 q 153 594 159 594 q 147 599 149 594 q 146 609 146 602 q 158 672 146 629 q 204 740 172 719 q 273 761 237 761 l 490 761 q 583 774 539 761 q 649 816 627 788 q 659 823 654 823 q 665 819 663 823 z "},">":{"ha":797,"x_min":68,"x_max":730,"o":"m 157 370 q 112 360 132 360 q 68 408 68 360 q 68 420 68 414 q 75 461 70 437 q 89 496 81 485 q 100 504 95 504 q 106 500 104 504 q 153 481 116 481 q 200 487 174 481 q 256 504 227 493 l 557 615 l 349 726 q 264 749 306 749 q 202 730 228 749 q 193 726 196 726 q 188 733 188 726 l 188 734 q 203 769 189 745 q 231 810 218 792 q 325 870 275 870 q 361 861 344 870 l 703 678 q 730 637 730 664 q 707 589 730 614 q 650 552 685 565 l 157 370 z "},"?":{"ha":1059,"x_min":67,"x_max":991,"o":"m 635 1240 q 814 1203 733 1240 q 943 1097 896 1165 q 991 940 991 1028 q 974 833 991 888 q 894 685 947 750 q 780 575 840 620 q 624 469 720 530 q 481 371 529 410 q 419 288 433 332 q 398 258 413 269 q 366 248 384 248 q 325 264 343 248 q 307 303 307 279 q 310 322 307 313 q 361 413 326 372 q 443 486 397 454 q 563 566 488 519 q 710 688 663 625 q 756 811 756 750 q 712 925 756 873 q 599 1008 669 978 q 456 1039 530 1039 q 344 1016 396 1039 q 256 947 292 994 q 207 817 207 881 q 222 749 207 779 q 261 703 238 720 q 304 686 284 686 l 304 686 q 317 677 317 686 q 315 667 317 673 q 282 636 309 654 q 233 608 255 618 q 175 591 202 591 q 85 663 119 591 q 68 764 68 711 q 85 867 68 815 q 205 1059 118 974 q 407 1193 292 1145 q 635 1240 522 1240 m 316 208 q 376 185 353 208 q 399 125 399 161 q 397 104 399 115 q 351 31 388 61 q 271 0 315 0 q 211 23 235 0 q 188 82 188 47 q 190 104 188 93 q 236 178 199 147 q 316 208 273 208 z "},"@":{"ha":1259,"x_min":67,"x_max":1192,"o":"m 1097 976 q 1167 852 1144 920 q 1191 713 1191 785 q 1179 606 1191 660 q 1106 432 1157 510 q 979 304 1056 353 q 807 249 903 256 q 785 248 796 248 q 643 280 709 248 q 547 374 577 313 q 472 303 515 330 q 395 277 429 277 l 393 277 q 301 317 331 279 q 271 418 271 355 q 307 584 271 491 q 402 763 343 677 q 532 901 462 848 q 667 955 602 955 l 667 955 q 770 909 720 955 q 813 943 786 930 q 868 955 840 955 q 926 935 903 955 q 949 876 949 916 q 864 684 949 803 q 787 496 787 576 q 813 421 787 448 q 882 394 840 394 q 963 419 921 394 q 1040 497 1005 445 q 1093 625 1075 549 q 1103 713 1103 669 q 1084 823 1103 770 q 1029 920 1066 876 q 897 1016 976 984 q 730 1047 819 1047 q 484 989 605 1047 q 277 829 363 930 q 165 606 191 728 q 156 522 156 564 q 174 409 156 463 q 231 310 193 355 q 361 215 283 246 q 528 184 439 184 q 729 222 630 184 q 746 226 738 226 q 777 212 764 226 q 789 180 789 198 q 782 156 789 167 q 761 140 775 146 q 528 96 644 96 q 324 135 420 96 q 163 254 229 175 q 92 379 115 311 q 68 522 68 448 q 79 625 68 573 q 208 883 109 766 q 446 1068 307 1000 q 730 1135 585 1135 q 935 1095 838 1135 q 1097 976 1031 1055 m 681 684 q 706 740 698 715 q 715 781 715 764 q 691 812 715 812 q 651 795 675 812 q 602 747 627 778 q 554 680 574 713 q 505 595 533 646 q 499 583 501 587 q 473 507 473 536 q 481 483 473 491 q 502 475 488 475 q 558 500 526 475 q 614 568 590 525 q 648 626 625 587 q 681 684 669 665 z "},"A":{"ha":1405,"x_min":0,"x_max":1586,"o":"m 1514 1194 q 1586 1059 1586 1150 q 1568 954 1586 1011 q 1518 838 1549 897 q 1453 723 1488 779 q 1375 607 1417 667 q 1369 598 1373 604 q 1250 419 1303 503 q 1153 236 1196 334 q 1110 62 1110 138 q 1133 -26 1110 9 q 1187 -74 1150 -54 q 1261 -94 1223 -94 q 1288 -91 1275 -94 q 1327 -85 1310 -85 q 1357 -93 1347 -85 q 1367 -113 1367 -100 q 1356 -143 1367 -126 q 1324 -178 1345 -160 q 1132 -296 1231 -254 q 949 -338 1033 -338 q 821 -302 871 -338 q 745 -145 745 -251 q 764 -27 745 -91 q 813 102 783 37 q 876 227 843 168 q 949 351 909 286 l 949 352 q 1012 505 1012 452 q 961 571 1012 553 q 803 589 910 589 q 752 588 781 589 q 529 272 627 438 q 376 -52 431 105 q 321 -330 321 -208 q 364 -501 321 -435 q 380 -547 380 -530 q 338 -574 380 -574 q 220 -551 292 -574 q 113 -503 149 -528 q 0 -299 0 -446 q 59 -51 0 -192 q 223 247 117 91 q 465 553 328 402 q 321 509 385 534 q 220 454 258 484 q 176 394 182 424 q 165 382 174 382 q 153 389 160 382 q 121 461 141 399 q 95 551 100 524 q 92 585 92 569 q 199 690 92 673 q 626 716 347 713 q 964 986 789 870 q 1308 1162 1139 1102 q 1305 1168 1307 1164 q 1304 1173 1305 1171 q 1301 1180 1303 1175 q 1290 1210 1290 1201 q 1322 1232 1290 1227 q 1364 1234 1342 1234 q 1447 1224 1407 1234 q 1514 1194 1487 1214 m 1081 573 q 1295 1031 1249 869 q 1079 903 1187 984 q 867 715 970 822 l 868 715 q 1013 677 954 713 q 1081 573 1072 642 z "},"B":{"ha":1794,"x_min":0,"x_max":1647,"o":"m 1612 538 q 1647 410 1647 481 q 1596 222 1647 319 q 1475 48 1546 125 q 1244 -137 1381 -54 q 954 -273 1107 -220 q 656 -340 800 -325 q 553 -346 604 -346 q 263 -288 389 -346 q 68 -137 137 -230 q 0 49 0 -45 q 21 147 0 101 q 81 207 39 189 q 176 225 122 225 q 252 218 214 225 q 322 199 290 211 q 349 185 340 193 q 359 169 359 176 q 351 156 359 161 q 326 147 342 150 q 276 127 295 142 q 250 82 257 111 q 242 26 242 52 q 299 -97 242 -50 q 441 -166 356 -145 q 614 -188 526 -188 q 700 -182 661 -188 q 1040 -75 903 -151 q 1242 98 1177 1 q 1308 291 1308 195 q 1292 378 1308 337 q 1217 473 1267 442 q 1102 504 1166 504 q 949 465 1026 504 q 821 360 871 426 q 771 222 771 295 q 828 76 771 146 q 842 41 842 60 q 830 15 842 26 q 794 0 819 4 q 772 -1 785 -1 q 614 23 712 -1 q 475 200 475 58 q 503 345 475 263 q 570 505 530 426 q 657 659 610 583 q 746 794 705 735 q 831 913 787 853 q 838 924 833 917 q 875 978 865 960 q 890 1016 885 995 q 718 887 800 975 q 497 598 600 759 q 449 499 469 553 q 430 404 430 446 l 430 395 q 439 359 431 383 q 446 332 446 340 q 438 317 446 322 q 411 311 430 312 l 406 311 q 245 370 312 311 q 174 508 174 425 q 273 730 174 608 q 534 964 373 852 q 873 1150 694 1076 q 1201 1234 1053 1224 q 1237 1235 1219 1235 q 1406 1202 1336 1235 q 1512 1112 1476 1169 q 1548 985 1548 1055 q 1500 817 1548 903 q 1359 657 1452 730 q 1612 538 1541 654 m 1162 734 q 1219 882 1219 810 q 1194 968 1219 930 q 1126 1027 1170 1006 q 1027 1048 1082 1048 q 941 1035 985 1048 q 1050 919 1050 997 q 1031 840 1050 882 q 972 736 1011 799 q 962 719 965 724 q 859 537 899 617 q 1029 613 947 560 q 1162 734 1112 666 z "},"C":{"ha":1393,"x_min":-1,"x_max":1271,"o":"m 861 975 q 871 1013 871 995 q 835 1071 871 1049 q 744 1095 800 1093 q 730 1096 736 1096 q 526 1014 619 1096 q 379 807 433 932 q 326 566 326 682 q 380 378 326 449 q 535 267 435 305 q 744 228 636 228 q 877 246 817 228 q 972 298 937 264 q 1046 452 1046 371 q 1040 498 1046 475 q 1031 524 1038 507 q 1021 559 1021 549 q 1058 583 1021 582 l 1067 583 q 1225 526 1159 583 q 1270 430 1270 484 q 1213 296 1270 367 q 1059 159 1156 224 q 806 40 942 81 q 536 -1 669 -1 q 266 50 387 -1 q 72 202 144 100 q 0 450 0 304 q 26 633 0 536 q 126 850 56 747 q 293 1034 195 953 q 525 1173 385 1111 q 787 1234 665 1234 l 797 1234 q 907 1204 859 1233 q 977 1125 956 1176 q 993 1145 982 1132 q 1030 1189 1017 1175 q 1064 1217 1046 1207 q 1099 1226 1082 1226 q 1129 1215 1117 1226 q 1141 1186 1141 1204 q 1116 1128 1141 1160 q 1003 937 1042 1031 q 963 768 963 842 q 987 673 963 711 q 991 663 991 668 q 977 652 991 654 l 975 652 q 909 673 957 652 q 834 709 861 694 q 770 802 770 747 q 797 882 770 839 q 861 975 829 930 z "},"D":{"ha":1655,"x_min":0,"x_max":1634,"o":"m 1137 1234 q 1410 1186 1298 1234 q 1577 1048 1521 1137 q 1634 837 1634 959 q 1601 638 1634 745 q 1504 416 1569 532 q 1272 81 1410 245 q 975 -201 1133 -83 q 807 -300 890 -264 q 658 -337 724 -337 q 533 -271 571 -337 q 497 -185 513 -243 q 480 -83 480 -127 q 481 -63 480 -72 q 500 -36 486 -36 q 526 -45 508 -36 q 557 -57 546 -55 q 630 -64 593 -64 q 887 9 757 -64 q 1127 215 1018 81 q 1303 524 1237 348 q 1344 736 1344 634 q 1312 897 1344 827 q 1223 1006 1280 967 q 1095 1045 1166 1045 q 954 1008 1027 1045 q 807 897 880 972 q 898 905 840 899 q 949 907 926 907 q 1070 880 1033 907 q 1107 803 1107 852 q 1067 671 1107 745 q 962 499 1028 597 q 904 407 933 456 q 848 304 875 359 q 804 198 821 250 q 787 101 787 146 q 798 45 787 69 q 802 33 802 39 q 781 20 802 20 q 679 30 721 20 q 612 60 637 41 q 576 106 587 80 q 565 166 565 133 q 602 319 565 227 q 643 399 613 347 q 724 541 672 452 q 780 637 763 607 q 814 731 814 693 q 724 793 814 793 l 715 793 q 572 595 640 701 q 524 496 543 550 q 505 401 505 442 l 505 392 q 513 356 505 380 q 520 328 520 336 q 512 314 520 319 q 486 308 505 309 l 480 308 q 320 368 387 308 q 258 494 258 415 q 287 613 258 548 q 369 747 316 677 q 146 728 221 728 q 117 728 131 728 q 0 838 0 736 q 1 859 0 848 q 16 924 3 880 q 40 981 28 968 q 52 987 46 987 q 63 977 59 987 q 471 883 91 883 l 490 883 q 705 1059 587 979 q 936 1187 822 1139 q 1137 1234 1050 1234 z "},"E":{"ha":1318,"x_min":-1,"x_max":1201,"o":"m 1159 533 q 1200 445 1200 495 q 1128 298 1200 376 q 939 152 1057 220 q 686 41 821 83 q 433 -1 551 -1 q 411 -1 422 -1 q 196 40 288 -1 q 56 153 104 82 q 7 308 7 223 q 45 456 7 381 q 162 600 83 531 q 357 721 240 669 q 250 797 287 750 q 212 897 212 843 q 239 988 212 943 q 113 877 135 953 q 111 864 112 873 q 105 846 108 852 q 96 840 103 840 q 81 846 90 840 q 8 928 26 876 q 0 976 0 954 q 41 1057 0 1028 q 151 1103 81 1085 q 623 1196 361 1159 q 1055 1234 886 1234 q 1143 1209 1107 1234 q 1178 1122 1178 1184 l 1178 1112 q 1168 1028 1176 1081 q 1149 962 1160 975 q 1137 954 1143 954 q 1126 964 1131 954 q 1019 1048 1101 1021 q 810 1076 937 1076 q 644 1066 733 1076 q 536 1042 582 1062 q 467 992 490 1022 q 443 932 443 963 q 466 875 443 901 q 535 833 488 849 q 648 817 581 817 q 696 819 671 817 q 794 833 730 825 q 808 834 802 834 q 852 815 836 834 q 868 770 868 795 q 856 732 868 749 q 819 711 843 715 q 696 690 759 697 q 493 598 569 655 q 386 479 416 541 q 355 361 355 417 q 365 302 355 326 q 448 224 386 250 q 595 199 511 199 q 746 218 672 199 q 863 269 819 237 q 981 461 981 358 q 975 507 981 484 q 966 532 973 515 q 956 568 956 557 q 993 591 956 589 l 1002 591 q 1159 533 1093 591 z "},"F":{"ha":868,"x_min":-1,"x_max":1319,"o":"m 1195 1234 q 1283 1209 1248 1234 q 1318 1122 1318 1184 l 1318 1112 q 1309 1029 1318 1084 q 1291 962 1301 975 q 1278 954 1284 954 q 1267 964 1272 954 q 1207 1027 1251 1002 q 1098 1064 1164 1052 q 949 1076 1033 1076 q 553 1030 779 1076 q 573 977 573 1007 q 553 906 573 943 q 495 811 534 869 q 460 758 471 775 q 450 741 456 751 q 736 800 558 783 q 757 801 747 801 q 871 690 865 801 l 871 685 q 867 628 871 660 q 854 584 863 597 q 841 574 848 574 q 830 583 835 574 q 766 646 815 626 q 644 667 716 667 q 423 627 536 667 q 469 405 456 528 q 473 328 473 365 q 439 145 473 219 q 348 35 404 71 q 228 -1 292 -1 q 117 30 169 -1 q 32 117 64 60 q 0 251 0 174 q 47 448 0 342 q 175 675 99 562 q 344 916 250 789 q 371 952 363 941 q 374 956 372 954 q 401 995 394 984 q 306 951 345 979 q 254 877 267 923 q 251 863 252 872 q 246 846 249 852 q 237 840 243 840 q 221 846 231 840 q 149 928 167 876 q 141 977 141 954 q 181 1057 141 1028 q 292 1103 222 1085 q 764 1196 502 1159 q 1195 1234 1026 1234 m 379 304 q 380 346 380 324 q 350 562 380 434 q 293 430 316 493 q 262 313 271 368 q 258 273 258 291 q 273 215 258 235 q 309 195 288 195 q 354 223 334 195 q 379 304 375 252 z "},"G":{"ha":1257,"x_min":0,"x_max":1241,"o":"m 1129 703 q 1193 718 1166 718 q 1228 707 1216 718 q 1240 681 1240 697 q 1224 643 1240 663 q 1179 609 1208 623 q 1057 556 1145 593 q 1038 548 1044 551 q 1117 502 1088 534 q 1145 423 1145 470 q 1109 309 1145 371 q 1000 101 1038 182 q 963 -39 963 20 q 1090 -138 963 -136 q 1116 -136 1104 -136 q 1153 -144 1140 -136 q 1166 -165 1166 -152 q 1153 -196 1166 -179 q 1116 -229 1140 -212 q 947 -316 1029 -286 q 798 -346 865 -346 q 679 -307 722 -346 q 635 -192 635 -268 q 693 16 635 -106 q 723 75 703 36 q 454 0 593 0 q 228 59 332 0 q 62 224 123 118 q 0 467 0 330 q 23 633 0 547 q 184 927 67 791 q 463 1149 302 1063 q 781 1234 623 1234 l 793 1234 q 900 1206 853 1233 q 969 1131 947 1179 q 1038 1217 994 1163 q 1074 1234 1053 1234 q 1102 1223 1090 1234 q 1114 1194 1114 1211 q 1103 1162 1114 1178 q 1008 990 1042 1072 q 975 848 975 909 q 997 766 975 799 q 1001 755 1001 760 q 986 745 1001 747 l 983 745 q 934 758 966 745 q 882 785 903 772 q 817 878 817 822 q 844 956 817 913 q 852 968 846 960 q 859 980 857 977 q 867 1013 867 998 q 831 1071 867 1049 q 741 1095 796 1093 q 726 1096 733 1096 q 523 1014 616 1096 q 376 808 430 932 q 323 567 323 683 q 377 378 323 449 q 495 288 421 319 q 652 256 570 256 q 796 284 728 256 q 905 366 863 312 q 939 472 939 431 q 934 506 939 490 q 688 414 771 440 q 635 405 659 405 q 533 496 557 405 q 520 561 528 517 q 513 630 513 604 q 515 648 513 643 q 526 660 519 660 q 538 653 532 660 q 690 612 573 612 q 905 638 785 612 q 1129 703 1026 663 z "},"H":{"ha":1497,"x_min":-1,"x_max":1639,"o":"m 1563 1195 q 1639 1062 1639 1148 q 1621 966 1639 1019 q 1572 856 1603 913 q 1505 741 1541 798 q 1411 595 1469 684 q 1316 451 1354 509 q 1246 334 1279 393 q 1185 198 1207 264 q 1163 81 1163 131 q 1175 24 1163 46 q 1178 12 1178 18 q 1158 -1 1178 -1 q 1030 17 1080 -1 q 957 69 981 35 q 934 153 934 103 q 950 251 934 197 q 999 371 967 305 q 1052 522 1052 470 q 1004 590 1052 572 q 852 608 957 608 q 807 607 832 608 q 720 488 779 567 q 569 277 617 349 q 662 182 621 229 q 731 88 703 136 q 784 -90 784 1 q 721 -283 784 -189 q 530 -458 658 -377 q 362 -542 446 -513 q 209 -571 279 -571 q 87 -540 136 -571 q 0 -362 0 -484 q 41 -162 0 -275 q 148 75 82 -48 q 301 338 213 198 q 90 601 90 509 q 153 680 90 652 q 310 718 215 707 q 554 733 405 728 q 637 881 614 829 q 713 1128 713 1050 q 705 1173 713 1156 q 701 1180 703 1175 q 690 1210 690 1201 q 722 1232 690 1227 q 761 1234 741 1234 q 844 1223 802 1234 q 913 1194 885 1213 q 1009 1029 1009 1134 q 979 895 1009 968 q 894 735 949 821 q 1064 696 1006 733 q 1131 595 1122 659 q 1150 626 1137 606 q 1273 822 1225 743 q 1353 980 1320 901 q 1386 1117 1386 1059 q 1383 1145 1386 1132 q 1370 1180 1381 1158 q 1360 1210 1360 1202 q 1391 1232 1360 1227 q 1431 1234 1411 1234 q 1563 1195 1507 1234 m 438 552 q 352 532 378 544 q 327 503 327 519 q 337 478 327 492 q 369 446 348 465 q 401 496 380 463 q 438 552 426 534 m 625 24 q 501 171 575 102 q 409 -2 440 69 q 366 -181 366 -98 q 392 -284 366 -245 q 463 -322 418 -322 q 504 -315 483 -322 q 575 -267 540 -302 q 632 -184 610 -232 q 654 -84 654 -136 q 625 24 654 -27 z "},"I":{"ha":674,"x_min":-1,"x_max":841,"o":"m 578 -178 q 387 -296 486 -254 q 203 -338 288 -338 q 75 -302 126 -338 q 0 -145 0 -251 q 37 28 0 -68 q 120 209 73 125 q 230 394 167 292 q 262 446 254 431 q 475 840 383 650 q 567 1129 567 1030 q 559 1173 567 1156 q 555 1180 557 1175 q 545 1210 545 1201 q 576 1232 545 1227 q 619 1234 597 1234 q 702 1224 661 1234 q 768 1194 742 1214 q 841 1059 841 1150 q 781 854 841 969 q 629 607 722 739 q 621 595 627 603 q 554 496 584 541 q 490 396 524 452 q 428 281 457 340 q 382 165 399 222 q 365 62 365 109 q 387 -26 365 9 q 441 -74 405 -54 q 515 -94 478 -94 q 543 -91 530 -94 q 582 -85 565 -85 q 612 -93 602 -85 q 622 -113 622 -100 q 611 -143 622 -126 q 578 -178 600 -160 z "},"J":{"ha":1303,"x_min":-1,"x_max":1426,"o":"m 1383 1194 q 1426 1099 1426 1169 q 1373 886 1426 1020 q 1243 582 1325 762 q 1053 202 1160 401 q 825 -175 946 3 q 581 -463 704 -352 q 351 -574 458 -574 q 158 -508 237 -574 q 39 -333 79 -442 q 0 -92 0 -223 q 17 79 0 -7 q 66 243 34 165 q 145 376 94 308 q 266 490 197 444 q 405 536 334 536 q 551 477 481 536 q 615 389 603 433 q 616 378 616 383 q 601 361 616 361 q 592 363 597 361 q 547 368 573 368 q 433 348 495 368 q 313 287 372 329 q 214 178 254 244 q 125 -67 125 30 q 162 -162 125 -130 q 261 -194 199 -194 q 402 -162 324 -194 q 559 -68 479 -130 q 703 79 638 -6 q 931 413 825 226 q 1105 777 1038 600 q 1181 1069 1172 953 q 921 960 1044 1004 q 713 904 798 916 q 688 903 699 903 q 575 1010 584 903 q 574 1063 574 1028 q 584 1162 574 1145 q 596 1172 589 1172 q 607 1163 602 1172 q 686 1104 631 1123 q 820 1085 742 1085 q 1114 1127 942 1085 q 1149 1148 1141 1135 q 1157 1181 1157 1162 l 1157 1192 q 1161 1215 1157 1208 q 1169 1225 1163 1221 q 1172 1226 1171 1225 q 1191 1232 1181 1230 q 1234 1234 1211 1234 q 1316 1224 1276 1234 q 1383 1194 1356 1214 z "},"K":{"ha":1379,"x_min":0,"x_max":1670,"o":"m 1621 1106 q 1670 996 1670 1051 q 1594 857 1670 926 q 1413 735 1518 787 q 1201 642 1308 682 q 961 556 1095 602 q 882 529 904 536 q 804 498 823 508 q 1035 174 917 297 q 1261 -3 1153 50 q 1463 -56 1369 -56 q 1531 -49 1499 -56 q 1546 -47 1539 -47 q 1576 -57 1564 -47 q 1588 -86 1588 -67 q 1582 -115 1588 -99 q 1538 -194 1572 -142 q 1472 -281 1505 -245 q 1354 -339 1419 -339 q 1196 -271 1280 -339 q 1028 -89 1112 -202 q 868 156 944 24 q 728 425 792 289 q 720 414 725 421 q 668 329 684 357 q 630 248 646 290 q 604 166 613 205 q 595 96 595 127 q 625 24 595 38 q 632 16 632 22 q 625 4 632 9 q 608 -1 618 -1 q 424 34 481 -1 q 366 140 366 70 q 387 241 366 184 q 443 366 407 298 q 533 519 479 433 q 601 626 554 553 q 732 838 692 768 q 777 964 777 915 q 764 1004 777 990 q 728 1018 751 1018 q 661 997 699 1018 q 582 936 623 976 q 311 595 435 789 q 262 495 281 549 q 243 399 243 441 l 243 392 q 252 355 243 380 q 258 328 258 336 q 251 314 258 319 q 224 308 243 309 l 219 308 q 59 367 125 308 q 0 485 0 412 q 64 663 0 564 q 232 864 127 763 q 457 1049 336 964 q 689 1184 578 1133 q 874 1234 800 1234 l 876 1234 q 1035 1186 968 1234 q 1103 1050 1103 1139 q 1031 844 1103 960 q 901 660 993 779 q 918 667 907 662 q 934 673 928 671 q 1172 808 1063 731 q 1349 976 1281 886 q 1416 1158 1416 1067 q 1415 1182 1416 1170 q 1414 1189 1414 1185 q 1424 1221 1414 1208 q 1453 1234 1434 1234 q 1485 1226 1468 1234 q 1547 1180 1510 1214 q 1621 1106 1584 1147 z "},"L":{"ha":930,"x_min":0,"x_max":1394,"o":"m 328 -7 q 433 330 328 130 q 561 543 476 408 q 657 699 619 635 q 731 836 694 763 q 771 966 771 916 q 759 1006 771 992 q 726 1020 747 1020 q 661 998 699 1020 q 582 935 623 977 q 311 595 435 790 q 262 495 281 549 q 243 399 243 441 l 243 392 q 252 355 243 380 q 258 328 258 336 q 251 314 258 319 q 224 308 243 309 l 219 308 q 59 367 125 308 q 0 485 0 412 q 64 663 0 564 q 232 864 127 763 q 457 1049 336 964 q 689 1184 578 1133 q 874 1234 800 1234 l 876 1234 q 1037 1188 973 1234 q 1101 1053 1101 1143 q 1036 848 1101 966 q 978 752 1013 805 q 884 612 943 699 q 739 394 795 483 q 643 215 683 306 q 603 56 603 125 q 625 -26 603 8 q 816 -99 670 -99 q 933 -90 864 -99 q 1270 -65 1139 -65 q 1358 -90 1322 -65 q 1393 -178 1393 -115 l 1393 -188 q 1380 -293 1392 -215 q 1358 -385 1368 -372 q 1345 -392 1351 -392 q 1335 -382 1339 -392 q 1203 -286 1306 -319 q 952 -254 1099 -254 q 724 -270 846 -254 q 478 -317 603 -286 q 369 -361 413 -333 q 311 -439 326 -389 q 309 -452 310 -444 q 303 -471 306 -465 q 294 -476 300 -476 q 279 -471 288 -476 q 248 -440 258 -460 q 229 -386 238 -419 q 224 -371 225 -376 q 216 -323 216 -345 q 243 -255 216 -281 q 308 -215 270 -229 q 403 -186 345 -201 q 328 -7 328 -123 z "},"M":{"ha":2089,"x_min":-1,"x_max":2260,"o":"m 2187 1194 q 2260 1059 2260 1150 q 2200 854 2260 969 q 2048 607 2140 739 q 2040 595 2045 603 q 1972 496 2003 541 q 1909 396 1942 452 q 1847 281 1876 340 q 1801 165 1818 222 q 1784 62 1784 109 q 1806 -26 1784 9 q 1860 -74 1824 -54 q 1934 -94 1897 -94 q 1961 -91 1948 -94 q 2001 -85 1984 -85 q 2030 -93 2020 -85 q 2041 -113 2041 -100 q 2029 -143 2041 -126 q 1997 -178 2018 -160 q 1805 -296 1904 -254 q 1622 -338 1706 -338 q 1494 -302 1545 -338 q 1419 -145 1419 -251 q 1455 28 1419 -68 q 1539 209 1492 125 q 1649 394 1586 292 q 1681 446 1672 431 q 1868 788 1794 637 q 1615 464 1749 624 q 1354 172 1482 303 q 1058 -83 1189 5 q 853 -171 926 -171 q 797 -149 817 -171 q 778 -82 778 -126 q 834 125 778 -7 q 1008 446 890 258 q 1180 753 1097 591 q 1296 1031 1263 916 q 1013 851 1155 969 q 746 580 871 732 q 525 264 621 428 q 375 -55 429 100 q 321 -330 321 -210 q 364 -501 321 -435 q 380 -547 380 -530 q 338 -574 380 -574 q 220 -551 292 -574 q 113 -503 149 -528 q 0 -299 0 -446 q 53 -66 0 -198 q 200 213 105 66 q 421 504 295 359 q 695 779 548 650 q 999 1009 842 909 q 1308 1162 1156 1109 q 1305 1168 1307 1164 q 1304 1173 1305 1171 q 1301 1180 1303 1175 q 1290 1210 1290 1201 q 1322 1232 1290 1227 q 1364 1234 1342 1234 q 1447 1224 1407 1234 q 1514 1194 1487 1214 q 1586 1057 1586 1149 q 1375 607 1586 902 q 1203 343 1264 452 q 1143 197 1143 235 q 1157 179 1143 179 q 1293 279 1190 179 q 1572 591 1396 378 q 1986 1123 1748 804 q 1978 1173 1986 1156 q 1974 1180 1976 1175 q 1963 1210 1963 1201 q 1995 1232 1963 1227 q 2038 1234 2016 1234 q 2120 1224 2080 1234 q 2187 1194 2161 1214 z "},"N":{"ha":1401,"x_min":0,"x_max":1569,"o":"m 945 810 q 867 693 893 734 q 1031 841 912 738 q 1160 956 1111 911 q 1244 1042 1208 1000 q 1286 1111 1280 1084 q 1294 1173 1292 1135 q 1303 1219 1293 1203 q 1349 1234 1313 1234 q 1517 1183 1453 1234 q 1568 1074 1568 1141 q 1546 970 1568 1027 q 1492 853 1525 913 q 1402 699 1459 794 q 1310 541 1346 606 q 1243 410 1273 476 q 1126 92 1171 251 q 1080 -205 1080 -67 q 1166 -495 1080 -386 q 1190 -543 1190 -524 q 1152 -571 1190 -566 q 1114 -574 1136 -574 q 1008 -562 1065 -574 q 918 -534 950 -551 q 820 -430 852 -501 q 787 -257 787 -359 q 820 -18 787 -151 q 912 258 853 114 q 1050 544 972 401 q 1220 814 1129 686 q 1122 720 1173 766 q 994 606 1072 673 q 823 452 888 514 q 699 316 758 390 q 604 164 640 243 q 580 68 580 106 q 589 28 580 44 q 593 14 593 20 q 570 -1 593 -1 q 467 39 524 -1 q 382 181 382 100 q 395 251 382 214 q 432 330 408 287 q 559 540 475 406 q 656 698 618 633 q 731 836 694 762 q 771 966 771 916 q 759 1006 771 992 q 726 1020 747 1020 q 661 998 699 1020 q 582 935 623 977 q 311 595 435 790 q 262 495 281 549 q 243 399 243 441 l 243 392 q 252 355 243 380 q 258 328 258 336 q 251 314 258 319 q 224 308 243 309 l 219 308 q 59 367 125 308 q 0 485 0 412 q 64 663 0 564 q 232 864 127 763 q 457 1049 336 964 q 689 1184 578 1133 q 874 1234 800 1234 l 876 1234 q 1009 1183 960 1234 q 1057 1059 1057 1132 q 1013 911 1057 985 q 945 810 993 880 z "},"O":{"ha":1504,"x_min":-1,"x_max":1466,"o":"m 1066 891 q 1177 916 1107 916 q 1311 891 1244 916 q 1422 820 1378 867 q 1466 707 1466 773 q 1465 687 1466 697 q 1399 471 1455 590 q 1258 243 1344 351 q 1070 68 1172 136 q 869 0 968 0 q 628 82 725 0 q 509 316 532 165 q 502 417 502 365 q 505 490 502 453 q 303 445 394 473 q 156 385 212 418 q 94 317 100 351 q 83 304 91 304 q 71 311 78 304 q 34 393 59 321 q 4 489 9 464 q 0 526 0 509 q 106 630 0 612 q 416 647 208 647 q 530 646 470 647 q 648 936 568 802 q 844 1153 728 1071 q 1099 1236 960 1236 q 1218 1197 1171 1236 q 1286 1101 1265 1158 q 1308 986 1307 1044 q 1298 963 1308 972 q 1277 954 1289 954 q 1256 963 1265 954 q 1158 996 1210 996 q 1026 945 1093 996 q 904 813 960 895 q 810 636 848 730 q 838 635 819 635 q 865 633 856 633 q 951 784 896 712 q 1066 891 1007 855 m 1152 439 q 1215 638 1215 559 q 1198 700 1215 678 q 1156 722 1181 722 q 1092 693 1124 722 q 1038 612 1059 664 q 1103 564 1082 595 q 1125 494 1125 532 q 1107 425 1125 458 q 1056 371 1088 391 q 984 350 1024 350 q 933 359 959 350 q 861 413 884 376 q 838 504 838 451 l 838 516 q 772 515 794 516 q 757 399 757 452 q 774 308 757 345 q 827 258 791 271 q 880 250 852 250 q 1027 300 949 250 q 1152 439 1105 351 z "},"P":{"ha":1448,"x_min":0,"x_max":1571,"o":"m 815 1179 q 1133 1236 978 1236 q 1359 1199 1259 1236 q 1515 1097 1459 1162 q 1571 953 1571 1032 q 1475 744 1571 851 q 1171 534 1379 636 q 638 355 962 433 q 622 241 622 294 q 678 79 622 144 q 692 43 692 62 q 681 17 692 28 q 644 3 669 6 q 620 1 634 1 q 465 25 560 1 q 326 202 326 60 q 353 347 326 265 q 420 507 380 428 q 508 661 460 585 q 596 796 555 737 q 681 916 637 855 q 689 926 684 920 q 718 968 711 957 q 533 839 620 912 q 395 694 446 765 q 323 590 361 649 q 275 491 294 545 q 256 394 256 436 l 256 387 q 264 351 256 375 q 271 323 271 332 q 264 309 271 314 q 237 303 256 304 l 235 303 q 144 318 186 303 q 72 363 102 334 q 0 498 0 418 q 122 741 0 606 q 435 994 245 875 q 815 1179 625 1113 m 812 721 q 665 437 710 555 q 888 531 792 472 q 1046 660 985 590 q 1136 798 1107 729 q 1165 924 1165 867 q 1148 997 1165 968 q 1010 1066 1107 1066 q 827 1022 932 1066 q 901 920 901 985 q 890 865 901 895 q 863 807 879 835 q 822 737 848 779 q 812 721 815 726 z "},"Q":{"ha":1133,"x_min":-1,"x_max":1073,"o":"m 982 414 q 803 194 905 286 q 590 53 701 101 q 378 4 479 4 q 269 21 319 4 q 222 -79 222 -37 q 352 -176 222 -148 q 546 -198 454 -198 q 756 -163 667 -198 q 893 -73 844 -127 q 926 -56 908 -56 q 962 -92 951 -56 q 974 -210 974 -140 q 971 -266 974 -241 q 908 -364 964 -333 q 759 -395 852 -395 q 582 -375 677 -395 q 388 -321 486 -355 q 206 -249 290 -288 q 66 -172 121 -210 q 0 -94 0 -127 q 31 -54 0 -71 q 174 73 109 -11 q 84 202 116 121 q 52 396 52 283 q 68 563 52 473 q 177 884 97 729 q 380 1137 258 1039 q 649 1236 503 1236 q 768 1197 721 1236 q 836 1101 815 1158 q 858 986 857 1044 q 849 963 858 972 q 827 954 840 954 q 806 963 815 954 q 697 998 757 998 q 545 947 623 998 q 404 811 467 895 q 309 634 341 727 q 281 488 281 556 q 330 334 281 396 q 380 438 347 368 q 463 608 435 554 q 585 782 517 712 q 723 884 652 851 q 860 918 793 918 q 969 890 920 918 q 1045 812 1017 863 q 1073 692 1073 761 q 982 414 1073 566 m 488 387 q 424 265 467 347 q 514 249 467 249 q 635 276 575 249 q 746 357 696 302 q 828 491 797 411 q 850 587 850 547 q 832 644 850 624 q 783 663 814 663 q 692 632 743 663 q 586 538 640 601 q 488 387 532 475 z "},"R":{"ha":1205,"x_min":-1,"x_max":1520,"o":"m 1463 -46 q 1478 -45 1470 -45 q 1508 -55 1495 -45 q 1520 -84 1520 -64 q 1514 -112 1520 -96 q 1471 -191 1504 -140 q 1404 -279 1437 -243 q 1286 -336 1352 -336 q 1124 -265 1211 -336 q 953 -77 1038 -193 q 790 176 867 40 q 650 450 713 313 q 602 240 602 330 q 658 77 602 143 q 672 43 672 60 q 660 16 672 27 q 624 1 648 5 q 602 0 614 0 q 444 24 539 0 q 305 201 305 60 q 332 346 305 264 q 400 506 359 427 q 487 661 440 585 q 575 795 534 736 q 661 915 616 854 q 663 918 661 916 q 704 977 692 958 q 720 1018 715 995 q 545 888 626 975 q 324 600 429 764 q 276 500 295 554 q 256 404 256 447 l 256 397 q 265 361 257 385 q 272 333 272 341 q 264 318 272 323 q 237 313 256 313 l 231 313 q 144 328 185 313 q 72 372 102 343 q 0 509 0 427 q 100 731 0 609 q 360 966 199 854 q 700 1152 521 1078 q 1027 1234 879 1225 q 1065 1236 1046 1236 q 1233 1203 1163 1236 q 1339 1113 1303 1170 q 1375 986 1375 1057 q 1336 836 1375 913 q 1220 687 1297 759 q 1029 563 1142 616 q 753 471 905 504 q 979 165 864 282 q 1198 -2 1093 48 q 1396 -53 1303 -53 q 1463 -46 1431 -53 m 791 720 q 696 551 739 635 q 831 603 770 570 q 939 679 893 635 q 1019 783 993 731 q 1045 883 1045 836 q 1021 968 1045 930 q 953 1027 996 1006 q 854 1048 909 1048 q 770 1036 814 1048 q 880 920 880 998 q 869 864 880 894 q 843 806 859 834 q 802 736 827 779 q 791 720 795 725 z "},"S":{"ha":1050,"x_min":-1,"x_max":1112,"o":"m 1002 1207 q 1066 1236 1033 1236 q 1099 1225 1086 1236 q 1112 1196 1112 1214 q 1080 1136 1112 1168 q 934 942 986 1039 q 882 769 882 844 q 897 700 882 730 q 900 690 900 694 q 884 680 900 680 q 820 708 867 680 q 749 754 773 736 q 696 844 696 795 q 732 930 696 884 q 783 987 759 961 q 829 1062 829 1040 q 808 1078 829 1078 q 713 1048 777 1078 q 554 950 628 1008 q 436 823 481 891 q 391 690 391 755 q 526 504 391 578 q 597 466 549 492 q 768 369 705 409 q 883 268 831 329 q 935 136 935 206 q 906 28 935 85 q 777 -149 855 -66 q 603 -282 699 -231 q 406 -337 507 -334 l 389 -337 q 171 -272 258 -337 q 42 -103 83 -206 q 0 111 0 -1 q 22 261 0 192 q 85 372 44 330 q 180 414 125 414 q 226 406 202 414 q 359 292 311 379 q 366 269 366 279 q 355 251 366 257 q 319 239 343 245 q 313 237 315 238 q 198 182 239 219 q 153 75 157 146 q 152 59 152 66 q 194 -69 152 -27 q 305 -111 236 -111 q 430 -83 363 -111 q 557 -8 497 -56 q 656 98 618 39 q 689 188 689 146 q 651 271 689 233 q 564 337 614 310 q 424 404 515 363 q 252 489 315 454 q 139 582 189 524 q 89 711 89 640 l 89 716 q 172 885 91 802 q 388 1037 253 968 q 684 1151 522 1106 q 1002 1207 845 1196 z "},"T":{"ha":617,"x_min":0,"x_max":1365,"o":"m 1241 1236 q 1329 1211 1294 1236 q 1364 1123 1364 1185 l 1364 1113 q 1354 1029 1362 1082 q 1336 963 1346 976 q 1324 956 1330 956 q 1313 966 1317 956 q 1218 1026 1296 1008 q 1013 1045 1139 1045 q 604 1011 835 1045 q 630 943 630 983 q 610 864 630 906 q 550 758 590 822 q 541 743 544 748 q 438 561 482 647 q 366 390 393 474 q 338 235 338 306 q 391 79 338 140 q 405 43 405 62 q 393 17 405 28 q 357 3 382 6 q 333 1 347 1 q 177 25 274 1 q 26 208 26 62 q 260 730 26 387 q 213 725 237 725 q 109 750 159 725 q 25 821 60 775 q 0 890 0 852 q 31 970 0 931 q 121 1034 62 1008 q 452 1133 243 1086 q 880 1207 661 1179 q 1241 1236 1098 1235 m 351 857 q 410 939 385 903 q 437 974 421 952 q 444 984 441 981 q 289 951 353 967 q 211 915 237 940 q 186 859 186 889 q 205 812 186 832 q 254 791 225 791 q 302 807 277 791 q 351 857 327 823 z "},"U":{"ha":1349,"x_min":0,"x_max":1525,"o":"m 1419 1196 q 1525 1038 1525 1135 q 1499 927 1525 987 q 1435 807 1473 867 q 1329 650 1396 747 q 1213 481 1251 540 q 1105 265 1140 366 q 1071 95 1071 165 q 1084 27 1071 52 q 1088 15 1088 20 q 1067 1 1088 1 q 945 15 999 1 q 867 52 891 28 q 839 131 839 79 q 879 294 839 195 q 743 145 809 210 q 614 41 677 81 q 496 -1 550 2 q 481 -1 488 -1 q 363 43 399 -1 q 326 162 326 87 q 345 291 326 221 q 392 424 364 361 q 447 528 420 486 q 579 761 536 667 q 622 899 622 854 q 593 937 622 937 q 483 874 555 937 q 330 703 410 811 q 263 576 288 648 q 239 438 239 504 q 250 363 239 396 q 252 357 250 361 q 258 330 258 337 q 251 315 258 320 q 224 309 243 309 l 218 309 q 130 325 172 309 q 59 368 89 340 q 0 486 0 413 q 64 665 0 565 q 232 865 127 764 q 457 1050 336 966 q 689 1185 578 1135 q 874 1236 800 1236 l 876 1236 q 963 1217 933 1236 q 992 1153 992 1198 q 927 964 992 1090 q 721 630 863 838 q 671 532 688 577 q 654 452 654 486 q 673 393 654 414 q 725 372 692 372 q 824 407 766 372 q 949 513 882 441 q 1091 701 1016 585 q 1170 858 1137 785 q 1223 996 1202 930 q 1243 1112 1243 1061 q 1240 1147 1243 1131 q 1226 1181 1238 1159 q 1216 1211 1216 1202 q 1248 1232 1216 1227 q 1289 1236 1268 1236 q 1419 1196 1363 1236 z "},"V":{"ha":1537,"x_min":0,"x_max":1757,"o":"m 1718 1186 q 1756 1095 1756 1155 q 1691 892 1756 1013 q 1508 630 1625 772 q 1235 342 1391 488 q 898 63 1079 196 q 533 -170 718 -71 q 404 -222 467 -203 q 288 -241 340 -241 q 204 -222 239 -241 q 155 -165 170 -203 q 141 -112 146 -146 q 135 -44 135 -78 q 142 16 135 -6 q 159 36 149 36 q 182 25 166 36 q 205 11 197 14 q 315 -7 256 -7 q 391 0 352 -7 q 332 122 332 54 q 381 269 332 182 q 535 514 451 390 q 651 694 606 622 q 731 838 696 766 q 761 911 751 878 q 771 967 771 943 q 759 1007 771 994 q 726 1021 747 1021 q 661 1000 699 1021 q 582 937 623 978 q 311 596 435 791 q 262 497 281 551 q 243 400 243 444 l 243 393 q 252 357 243 381 q 258 330 258 337 q 251 315 258 320 q 224 309 243 310 l 218 309 q 130 325 172 309 q 59 368 89 340 q 0 486 0 413 q 64 665 0 565 q 232 865 127 764 q 457 1050 336 966 q 689 1185 578 1135 q 874 1236 800 1236 l 876 1236 q 1009 1184 960 1235 q 1057 1059 1057 1133 q 1013 913 1057 986 q 922 773 991 879 q 743 495 819 616 q 606 249 668 374 q 532 41 544 123 q 807 201 665 96 q 1079 438 949 307 q 1315 703 1210 570 q 1481 943 1419 836 q 1526 1038 1513 998 q 1538 1115 1538 1078 q 1536 1149 1538 1131 q 1525 1185 1535 1162 q 1516 1214 1516 1206 q 1550 1235 1516 1232 q 1572 1236 1561 1236 q 1718 1186 1655 1236 z "},"W":{"ha":2069,"x_min":0,"x_max":2249,"o":"m 2173 1196 q 2249 1063 2249 1149 q 2231 968 2249 1020 q 2183 859 2214 916 q 2117 745 2153 802 q 2024 602 2081 689 q 1946 481 1971 522 q 1838 266 1872 366 q 1804 96 1804 165 q 1817 27 1804 52 q 1820 16 1820 20 q 1799 1 1820 1 q 1497 108 1630 1 q 1285 390 1365 214 q 925 83 1119 229 q 533 -170 732 -63 q 404 -222 467 -203 q 288 -241 340 -241 q 204 -222 239 -241 q 155 -165 170 -203 q 141 -112 146 -146 q 135 -44 135 -78 q 142 16 135 -6 q 159 36 149 36 q 182 25 166 36 q 205 11 197 14 q 315 -7 256 -7 q 391 0 352 -7 q 332 122 332 54 q 381 269 332 182 q 535 514 451 390 q 651 694 606 622 q 731 838 696 766 q 761 911 751 878 q 771 967 771 943 q 759 1007 771 994 q 726 1021 747 1021 q 661 1000 699 1021 q 582 937 623 978 q 311 596 435 791 q 262 497 281 551 q 243 400 243 444 l 243 393 q 252 357 243 381 q 258 330 258 337 q 251 315 258 320 q 224 309 243 310 l 218 309 q 130 325 172 309 q 59 368 89 340 q 0 486 0 413 q 64 665 0 565 q 232 865 127 764 q 457 1050 336 966 q 689 1185 578 1135 q 874 1236 800 1236 l 876 1236 q 1009 1184 960 1235 q 1057 1059 1057 1133 q 1013 913 1057 986 q 919 768 991 878 q 787 566 843 653 q 676 380 732 478 q 581 193 620 282 q 532 42 541 104 q 766 173 645 88 q 1002 363 887 257 q 1219 587 1116 470 q 1191 830 1191 707 q 1193 892 1191 861 q 1246 1086 1200 1007 q 1359 1202 1292 1164 q 1499 1240 1427 1240 q 1609 1216 1558 1240 q 1689 1143 1659 1191 q 1720 1032 1720 1096 q 1643 812 1720 932 q 1528 654 1594 736 q 1380 486 1461 571 q 1520 308 1437 308 q 1594 338 1555 308 q 1676 424 1633 368 q 1765 560 1718 479 q 1935 884 1874 751 q 1997 1111 1997 1018 q 1993 1147 1997 1131 q 1980 1181 1991 1159 q 1969 1211 1969 1202 q 2001 1232 1969 1227 q 2042 1236 2022 1236 q 2173 1196 2117 1236 m 1316 817 q 1323 713 1318 762 q 1386 797 1356 756 q 1435 917 1435 861 q 1421 965 1435 947 q 1388 984 1407 984 q 1353 968 1369 984 q 1326 918 1337 951 q 1316 833 1316 884 l 1316 817 z "},"X":{"ha":1723,"x_min":-1,"x_max":1681,"o":"m 1646 968 q 1279 513 1508 766 q 1366 325 1324 391 q 1440 235 1408 258 q 1510 197 1472 211 q 1527 189 1522 192 q 1563 181 1538 184 q 1592 174 1583 178 q 1600 159 1600 170 q 1593 134 1600 149 q 1465 14 1549 45 q 1390 0 1426 0 q 1278 41 1327 0 q 1195 137 1228 81 q 1120 279 1161 193 q 1099 322 1105 309 q 637 -94 861 81 q 264 -317 413 -269 q 172 -336 207 -336 q 106 -314 134 -336 q 52 -243 78 -293 q 19 -170 38 -216 q 0 -109 0 -123 l 0 -107 q 7 -92 1 -97 q 21 -86 13 -86 q 33 -90 27 -86 q 167 -121 91 -121 q 443 -42 290 -121 q 751 169 595 37 q 1044 461 907 302 q 932 770 981 619 q 884 1017 884 920 q 914 1142 884 1092 q 1009 1216 943 1193 q 1109 1236 1055 1236 q 1215 1215 1162 1236 q 1246 1187 1246 1203 q 1242 1172 1246 1179 q 1227 1151 1237 1164 q 1202 1115 1208 1128 q 1173 941 1173 1045 q 1225 661 1173 804 q 1346 826 1289 737 q 1438 1000 1403 916 q 1473 1145 1473 1084 q 1457 1210 1473 1185 q 1452 1222 1452 1217 q 1470 1236 1452 1234 l 1474 1236 q 1533 1219 1496 1236 q 1601 1184 1570 1202 q 1681 1068 1681 1137 q 1646 968 1681 1022 z "},"Y":{"ha":1430,"x_min":0,"x_max":1563,"o":"m 1468 1196 q 1563 1031 1563 1135 q 1524 875 1563 960 q 1430 708 1485 790 q 1284 503 1374 625 q 1215 410 1237 440 q 1213 406 1215 408 q 1001 80 1092 239 q 909 -198 909 -79 q 931 -283 909 -248 q 983 -319 946 -306 q 1061 -332 1019 -332 q 1108 -326 1087 -332 q 1146 -321 1130 -321 q 1176 -328 1166 -321 q 1187 -349 1187 -336 q 1176 -378 1187 -361 q 1143 -413 1164 -395 q 951 -532 1050 -490 q 768 -573 852 -573 q 640 -538 691 -573 q 580 -399 580 -497 q 644 -134 580 -293 q 819 224 709 25 q 496 -1 623 5 q 481 -1 488 -1 q 363 43 399 -1 q 326 162 326 87 q 345 291 326 221 q 392 424 364 361 q 447 528 420 486 q 579 761 536 667 q 622 899 622 854 q 593 937 622 937 q 483 874 555 937 q 330 703 410 811 q 263 576 288 648 q 239 438 239 504 q 250 363 239 396 q 252 357 250 361 q 258 330 258 337 q 251 315 258 320 q 224 309 243 309 l 218 309 q 130 325 172 309 q 59 368 89 340 q 0 486 0 413 q 64 665 0 565 q 232 865 127 764 q 457 1050 336 966 q 689 1185 578 1135 q 874 1236 800 1236 l 876 1236 q 963 1217 933 1236 q 992 1153 992 1198 q 927 964 992 1090 q 721 630 863 838 q 671 532 688 577 q 654 452 654 486 q 673 393 654 414 q 724 372 692 372 q 793 390 755 372 q 878 446 832 408 q 975 543 924 484 q 1080 685 1026 602 q 1188 872 1135 768 q 1245 1020 1225 954 q 1266 1131 1266 1086 q 1258 1175 1266 1157 q 1255 1181 1257 1177 q 1244 1211 1244 1202 q 1276 1232 1244 1227 q 1316 1235 1295 1235 q 1397 1224 1356 1235 q 1468 1196 1438 1214 z "},"Z":{"ha":1713,"x_min":0,"x_max":1579,"o":"m 1575 168 q 1578 133 1578 149 q 1548 59 1578 83 q 1471 27 1518 35 q 1259 7 1383 14 q 998 0 1135 0 q 683 10 840 0 q 417 -224 549 -122 q 276 -307 347 -277 q 150 -338 205 -338 q 44 -281 76 -338 q 14 -210 28 -258 q 0 -124 0 -161 q 1 -105 0 -113 q 18 -82 5 -82 q 39 -90 23 -82 q 64 -100 56 -98 q 113 -104 88 -104 q 415 23 256 -104 q 719 342 574 149 q 983 749 863 535 q 1020 880 1020 816 q 997 968 1020 929 q 930 1029 975 1007 q 824 1052 886 1052 q 705 1034 769 1052 q 544 960 604 1002 q 474 862 484 917 q 464 850 472 850 q 452 854 458 850 q 418 914 439 864 q 389 992 397 964 q 381 1039 381 1017 q 478 1142 381 1116 q 731 1189 581 1167 q 1046 1223 881 1211 q 1354 1236 1211 1236 l 1386 1236 q 1519 1210 1470 1234 q 1568 1114 1568 1185 q 1567 1101 1568 1107 q 1517 1002 1563 1045 q 1501 994 1507 994 q 1492 998 1495 994 q 1484 1013 1489 1003 q 1478 1025 1480 1021 q 1376 1095 1448 1077 q 1377 1075 1377 1085 q 1352 945 1377 1019 q 1275 777 1327 871 q 965 323 1153 557 q 901 197 901 243 q 1030 132 901 132 q 1088 135 1057 132 q 1291 165 1203 144 q 1434 221 1379 186 q 1502 305 1489 256 q 1513 317 1505 317 q 1525 311 1518 317 q 1553 249 1537 300 q 1575 168 1569 197 z "},"[":{"ha":1000,"x_min":67,"x_max":932,"o":"m 370 -49 q 397 -58 388 -49 q 406 -83 406 -68 q 382 -136 406 -109 q 328 -163 359 -163 l 255 -163 q 119 -114 170 -163 q 68 14 68 -64 q 85 104 68 58 l 458 1129 q 543 1263 484 1202 q 676 1361 602 1324 q 823 1397 751 1397 l 896 1397 q 923 1388 914 1397 q 932 1363 932 1378 q 909 1310 932 1337 q 854 1282 886 1282 q 789 1263 815 1282 q 745 1213 762 1244 q 711 1131 728 1181 l 336 102 q 311 1 311 31 q 324 -36 311 -23 q 370 -49 338 -49 z "},"\\":{"ha":1143,"x_min":67,"x_max":1075,"o":"m 435 772 q 268 1014 359 924 q 95 1104 176 1104 q 85 1103 90 1104 l 83 1103 q 68 1115 68 1103 q 71 1126 68 1120 q 110 1167 77 1143 q 169 1208 142 1192 q 248 1233 212 1233 q 361 1149 316 1233 l 708 458 q 875 217 784 307 q 1048 126 966 126 q 1057 127 1053 126 l 1061 127 q 1075 115 1075 127 q 1072 104 1075 111 q 1034 64 1065 87 q 974 22 1004 41 q 895 -3 932 -3 q 781 81 827 -3 l 435 772 z "},"]":{"ha":975,"x_min":68,"x_max":907,"o":"m 144 -55 q 209 -35 183 -54 q 252 17 235 -15 q 285 99 268 48 l 641 1134 q 659 1192 652 1168 q 665 1234 665 1216 q 651 1272 665 1259 q 607 1284 637 1284 l 603 1284 q 577 1294 585 1284 q 568 1319 568 1303 q 590 1372 568 1344 q 644 1400 612 1399 l 717 1401 l 722 1401 q 857 1351 806 1401 q 907 1223 907 1301 q 892 1137 907 1181 l 538 105 q 455 -30 513 33 q 323 -130 397 -93 q 177 -169 250 -168 l 104 -170 l 103 -170 q 77 -161 85 -170 q 68 -136 68 -151 q 90 -83 68 -111 q 144 -55 113 -56 z "},"^":{"ha":498,"x_min":67,"x_max":431,"o":"m 147 981 q 108 962 129 962 q 79 974 91 962 q 68 1001 68 985 q 85 1038 68 1020 l 256 1215 q 297 1233 274 1233 q 330 1214 320 1233 l 426 1038 q 431 1019 431 1029 q 411 980 431 997 q 370 962 392 962 q 339 981 349 962 l 271 1109 l 147 981 z "},"_":{"ha":699,"x_min":67,"x_max":632,"o":"m 109 -3 q 78 8 89 -3 q 68 37 68 20 q 86 81 68 61 q 132 102 104 102 l 590 102 q 621 91 610 102 q 631 62 631 79 q 613 18 631 38 q 568 -3 595 -3 l 109 -3 z "},"`":{"ha":224,"x_min":67,"x_max":157,"o":"m 155 1196 q 156 1186 156 1191 q 143 1154 156 1168 q 111 1139 131 1140 q 87 1149 98 1139 q 73 1177 77 1159 l 68 1196 q 68 1204 68 1200 q 78 1225 68 1218 q 104 1233 89 1233 q 136 1223 121 1233 q 155 1196 151 1213 z "},"a":{"ha":811,"x_min":-79,"x_max":950,"o":"m 832 504 q 860 534 843 524 q 895 544 877 544 q 934 529 918 544 q 950 491 950 515 q 933 440 950 467 q 777 216 857 314 q 617 59 698 118 q 463 -1 536 -1 l 461 -1 q 353 32 405 -1 q 275 134 300 66 q 183 34 233 67 q 85 0 134 0 l 80 0 q -39 52 -1 3 q -78 183 -78 101 q -32 399 -78 279 q 93 631 15 520 q 261 811 170 742 q 436 881 352 881 q 570 822 503 881 q 625 865 590 849 q 697 881 661 881 q 771 856 741 881 q 800 779 800 830 q 767 657 800 730 q 663 490 734 585 q 559 334 587 390 q 540 277 540 299 q 548 254 540 262 q 570 247 556 247 q 614 259 589 247 q 662 293 638 271 q 832 504 762 393 m 454 529 q 498 655 498 609 q 490 685 498 675 q 467 694 481 694 q 415 673 446 694 q 351 610 384 651 q 286 519 314 565 q 220 404 258 474 q 218 398 218 400 q 184 298 184 336 q 194 268 184 278 q 221 257 203 257 q 294 290 252 257 q 368 378 336 322 q 411 453 382 403 q 454 529 439 504 z "},"b":{"ha":802,"x_min":-142,"x_max":796,"o":"m 729 835 q 795 692 795 791 q 762 531 795 624 q 656 321 728 438 q 454 78 558 159 q 262 -3 350 -3 q 139 55 186 -3 q 87 217 92 113 q 58 81 58 138 q 69 24 58 46 q 73 12 73 18 q 52 -1 73 -1 q -58 14 -16 -1 q -121 58 -100 28 q -141 130 -141 87 q -100 287 -141 193 q 21 509 -58 380 q 207 846 132 686 q 281 1109 281 1005 q 278 1145 281 1128 q 264 1180 276 1158 q 254 1210 254 1202 q 286 1232 254 1227 q 326 1234 306 1234 q 457 1195 401 1234 q 532 1061 532 1145 q 506 943 532 1007 q 431 789 480 880 q 617 880 533 880 q 672 869 646 880 l 729 835 m 496 433 q 545 554 528 498 q 562 650 562 610 q 547 709 562 688 q 503 730 532 730 q 419 699 471 730 q 304 603 368 667 q 285 574 296 591 q 240 502 264 540 q 194 366 194 429 q 221 288 194 317 q 290 258 248 258 q 395 302 340 258 q 496 433 450 345 z "},"c":{"ha":755,"x_min":-31,"x_max":892,"o":"m 774 503 q 803 533 786 524 q 838 543 820 543 q 876 529 861 543 q 892 491 892 515 q 876 440 892 467 q 751 256 811 335 q 274 -1 555 -1 q 115 43 184 -1 q 8 162 45 87 q -30 323 -30 236 q -19 414 -30 368 q 92 638 9 530 q 288 814 175 747 q 515 881 401 881 q 655 837 608 881 q 702 723 702 793 q 694 663 702 694 q 660 573 684 621 q 600 491 637 526 q 517 457 564 457 q 451 476 485 457 q 388 559 406 502 q 386 571 386 566 q 390 581 386 578 q 404 583 395 583 l 416 583 q 432 585 426 583 q 498 617 475 596 q 520 659 520 637 q 507 686 520 675 q 471 696 494 696 q 370 655 426 696 q 267 543 301 604 q 232 422 232 481 q 281 303 232 352 q 415 254 330 254 q 490 263 451 254 q 640 340 566 281 q 774 503 714 399 z "},"d":{"ha":813,"x_min":-77,"x_max":954,"o":"m 833 504 q 861 534 844 524 q 897 544 878 544 q 935 529 919 544 q 951 491 951 515 q 935 440 951 467 q 779 216 858 314 q 618 59 699 118 q 465 -1 538 -1 l 463 -1 q 354 32 406 -1 q 276 134 302 66 q 185 34 235 67 q 86 0 135 0 l 81 0 q -38 52 1 3 q -77 183 -77 101 q -30 399 -77 279 q 94 631 16 520 q 262 811 172 742 q 437 881 353 881 q 534 863 496 881 q 600 813 572 846 q 617 848 606 825 q 679 992 656 932 q 701 1108 701 1052 q 697 1145 701 1128 q 684 1180 695 1158 q 673 1210 673 1201 q 705 1232 673 1227 q 745 1234 726 1234 q 877 1195 821 1234 q 954 1061 954 1148 q 923 930 954 1004 q 846 781 892 857 q 720 586 800 706 q 560 334 608 418 q 541 277 541 299 q 549 254 541 262 q 572 247 557 247 q 615 259 591 247 q 663 293 640 271 q 833 504 764 393 m 455 529 q 499 655 499 609 q 491 685 499 675 q 469 694 483 694 q 416 673 447 694 q 353 610 385 651 q 288 519 315 565 q 222 404 260 474 q 219 398 220 400 q 185 298 185 336 q 195 268 185 278 q 222 257 205 257 q 296 290 254 257 q 370 378 338 322 q 412 453 384 403 q 455 529 441 504 z "},"e":{"ha":755,"x_min":-29,"x_max":894,"o":"m 776 504 q 804 534 787 524 q 839 544 821 544 q 877 529 861 544 q 893 490 893 515 q 877 440 893 467 q 752 256 811 334 q 275 -1 557 -1 q 116 43 185 -1 q 9 162 47 87 q -28 323 -28 236 q -18 414 -28 368 q 94 638 11 530 q 289 814 176 747 q 517 881 402 881 q 656 837 610 881 q 703 722 703 793 q 651 556 703 644 q 507 396 600 467 q 296 296 414 324 q 425 257 349 257 q 574 295 498 257 q 709 410 649 334 q 776 504 751 463 m 241 366 q 372 432 319 390 q 451 520 425 473 q 476 606 476 566 q 463 652 476 635 q 424 670 449 670 q 312 606 377 670 q 233 417 233 506 q 241 366 233 390 z "},"f":{"ha":646,"x_min":-139,"x_max":888,"o":"m 819 1217 q 854 1234 833 1234 q 878 1225 868 1234 q 888 1200 888 1216 q 879 1171 888 1186 q 809 1021 833 1091 q 784 897 784 951 q 806 814 784 847 q 809 805 809 809 q 795 793 809 795 l 791 793 q 744 805 773 793 q 697 827 715 816 q 632 920 632 864 q 659 998 632 956 q 675 1047 675 1021 q 668 1074 675 1063 q 649 1084 661 1084 q 598 1050 628 1084 q 491 901 548 994 q 488 894 490 899 q 481 880 483 885 q 494 880 486 880 q 508 881 503 881 l 513 881 q 600 856 566 881 q 634 766 634 830 l 634 761 q 627 705 634 739 q 609 656 620 670 q 597 648 603 648 q 586 658 590 648 q 527 724 574 701 q 410 754 480 748 q 308 597 378 703 q 214 452 251 511 q 143 334 176 393 q 82 198 104 264 q 60 81 60 131 q 71 24 60 46 q 75 12 75 18 q 54 -1 75 -1 q -56 14 -13 -1 q -119 57 -98 28 q -139 130 -139 86 q -98 288 -139 195 q 23 509 -56 380 q 145 719 91 618 q 142 718 144 718 q 97 699 111 705 q 75 694 84 694 q 59 709 59 694 q 74 748 59 723 q 205 838 108 806 q 263 988 242 920 q 283 1109 283 1057 q 280 1145 283 1128 q 267 1180 278 1158 q 256 1210 256 1202 q 288 1232 256 1227 q 328 1234 308 1234 q 459 1195 404 1234 q 524 1121 505 1166 q 547 1147 538 1139 q 671 1228 612 1212 q 713 1234 692 1234 q 806 1200 762 1234 q 819 1217 810 1206 z "},"g":{"ha":823,"x_min":-336,"x_max":958,"o":"m 840 504 q 867 534 850 524 q 903 544 884 544 q 941 529 925 544 q 958 491 958 515 q 941 440 958 467 q 697 124 823 247 q 464 -1 572 1 q 174 -425 304 -277 q -56 -574 43 -573 l -58 -574 q -207 -529 -136 -574 q -330 -382 -277 -484 q -335 -359 -335 -370 q -322 -329 -335 -340 q -291 -317 -309 -317 q -252 -339 -265 -317 q -196 -361 -229 -361 q -88 -319 -151 -361 q 41 -210 -25 -277 q 173 -59 106 -143 q 299 114 240 25 q 195 27 247 56 q 98 -1 144 -1 q -13 58 30 -1 q -56 219 -56 118 q -35 367 -56 287 q 31 534 -14 447 q 148 709 80 629 q 291 834 216 788 q 435 881 366 881 q 607 768 591 881 q 609 795 609 783 q 596 851 609 829 q 591 866 591 859 q 613 881 591 880 l 620 881 q 663 873 642 881 q 713 850 684 865 q 718 847 716 848 q 806 718 806 802 q 785 620 806 673 q 720 481 764 567 q 700 441 707 454 q 604 252 651 344 q 669 293 637 263 q 840 504 770 393 m 499 481 q 507 532 507 508 q 483 597 507 574 q 419 621 458 621 q 330 592 376 621 q 248 511 283 564 q 194 351 194 424 q 238 267 194 287 q 269 261 252 261 q 385 314 320 261 q 484 451 449 367 l 484 450 q 499 481 494 471 z "},"h":{"ha":793,"x_min":-137,"x_max":932,"o":"m 814 504 q 842 534 825 524 q 877 545 859 545 q 915 530 899 545 q 931 491 931 515 q 915 440 931 467 q 761 218 838 314 q 601 61 684 123 q 445 -1 518 0 l 441 -1 q 313 42 353 -1 q 274 157 274 85 q 286 245 274 198 q 319 336 298 292 l 397 477 q 441 585 441 551 q 419 610 441 610 q 343 572 392 610 q 258 481 294 534 q 169 334 202 393 q 108 198 130 265 q 85 81 85 130 q 97 24 85 46 q 100 12 100 18 q 80 -1 100 -1 q -84 35 -32 -1 q -136 141 -136 71 q -118 241 -136 185 q -65 364 -100 296 q 20 513 -31 431 q 46 555 28 526 q 180 775 127 684 q 271 957 233 865 q 309 1114 309 1048 q 306 1145 309 1131 q 292 1180 304 1158 q 282 1210 282 1202 q 313 1232 282 1227 q 353 1234 334 1234 q 485 1195 429 1234 q 561 1061 561 1147 q 529 928 561 1003 q 436 755 496 852 q 547 843 489 808 q 654 878 605 878 q 673 877 664 878 q 786 760 786 859 q 763 658 786 713 q 708 556 741 604 q 625 450 684 520 q 571 383 591 409 q 540 334 551 357 q 521 277 521 300 q 529 254 521 262 q 552 247 537 247 q 595 259 570 247 q 644 293 620 271 q 814 504 743 394 z "},"i":{"ha":408,"x_min":-114,"x_max":543,"o":"m 425 504 q 453 534 436 524 q 488 545 469 545 q 526 530 510 545 q 543 491 543 515 q 526 440 543 467 q 370 216 449 314 q 210 59 290 118 q 56 -1 129 -1 l 52 -1 q -75 41 -36 -1 q -114 155 -114 84 q -70 336 -114 236 q -27 423 -51 379 q 33 533 -4 467 q 122 704 93 641 q 151 812 151 767 q 142 852 151 836 q 138 866 138 860 q 161 881 138 881 q 264 841 208 881 q 349 697 349 780 q 317 584 349 642 q 225 445 286 527 q 151 334 179 385 q 132 277 132 300 q 140 254 132 262 q 163 247 148 247 q 206 259 181 247 q 254 293 231 271 q 425 504 354 394 m 353 881 q 265 917 300 881 q 229 1004 229 952 q 230 1016 229 1010 q 254 1083 233 1053 q 308 1133 275 1114 q 376 1151 340 1151 q 465 1115 429 1151 q 500 1028 500 1080 q 500 1016 500 1022 q 476 948 497 979 q 422 899 455 918 q 353 881 390 881 z "},"j":{"ha":320,"x_min":-833,"x_max":460,"o":"m 271 881 q 183 917 218 881 q 147 1004 147 952 q 148 1016 147 1010 q 172 1084 151 1053 q 226 1133 193 1115 q 295 1152 258 1152 q 383 1116 347 1152 q 418 1028 418 1080 q 418 1016 418 1022 q 394 948 415 979 q 340 899 373 918 q 271 881 308 881 m 342 504 q 370 534 353 524 q 406 545 387 545 q 444 530 428 545 q 460 491 460 515 q 444 440 460 467 q 200 124 326 247 q -33 -1 75 1 q -323 -425 -193 -277 q -553 -574 -454 -573 l -555 -574 q -704 -529 -633 -574 q -827 -382 -774 -484 q -832 -359 -832 -370 q -819 -329 -832 -340 q -788 -317 -806 -317 q -749 -339 -762 -317 q -693 -361 -726 -361 q -477 -230 -610 -361 q -229 68 -345 -98 q -56 359 -113 235 q -1 473 -40 397 q 43 566 29 536 q 112 795 112 714 q 99 851 112 830 q 94 866 94 859 q 116 881 94 880 l 123 881 q 165 873 144 881 q 216 850 186 865 q 220 847 219 848 q 309 718 309 802 q 288 620 309 673 q 223 481 267 567 q 203 441 210 454 q 106 252 155 344 q 172 293 140 263 q 342 504 273 393 z "},"k":{"ha":764,"x_min":-125,"x_max":903,"o":"m 785 504 q 813 534 796 524 q 848 545 829 545 q 886 530 870 545 q 903 491 903 515 q 886 440 903 467 q 730 216 809 314 q 570 59 650 118 q 416 -1 489 -1 q 282 42 340 -1 q 188 158 224 85 q 142 317 153 230 q 100 194 113 251 q 87 94 87 138 q 100 26 87 50 q 103 14 103 20 q 83 1 103 1 q -97 50 -45 1 q -125 130 -125 78 q 35 536 -125 253 q 129 704 92 635 q 202 848 167 773 q 258 990 237 922 q 279 1110 279 1059 q 276 1145 279 1129 q 262 1180 274 1158 q 252 1210 252 1202 q 283 1232 252 1227 q 324 1234 304 1234 q 456 1194 400 1234 q 532 1062 532 1147 q 500 931 532 1004 q 411 762 469 858 q 529 849 470 817 q 641 881 589 881 q 718 848 690 881 q 747 763 747 816 q 696 613 747 693 q 536 460 645 533 q 264 345 428 388 q 328 277 286 302 q 427 253 371 253 q 610 315 515 253 q 785 504 706 378 m 175 386 q 284 434 229 399 q 374 517 339 469 q 434 624 434 599 q 425 633 434 633 q 367 605 408 633 q 284 537 327 577 q 219 463 242 496 q 175 386 192 418 z "},"l":{"ha":461,"x_min":-80,"x_max":599,"o":"m 393 383 q 481 503 439 438 q 509 534 492 524 q 544 544 526 544 q 583 529 567 544 q 599 490 599 515 q 582 439 599 467 q 440 233 509 321 q 256 59 349 117 q 85 1 163 1 q -35 52 9 1 q -80 195 -80 104 q -52 351 -80 264 q 33 536 -24 437 q 210 870 144 726 q 277 1110 277 1013 q 274 1145 277 1129 q 260 1180 272 1158 q 250 1210 250 1202 q 281 1232 250 1227 q 321 1234 302 1234 q 453 1194 397 1234 q 530 1061 530 1147 q 499 929 530 1003 q 422 781 468 856 q 296 585 376 705 q 227 480 250 515 q 159 315 159 376 q 172 274 159 288 q 208 260 185 260 q 293 292 243 260 q 393 383 342 323 z "},"m":{"ha":1192,"x_min":-131,"x_max":1332,"o":"m 1214 504 q 1242 534 1225 524 q 1277 545 1259 545 q 1316 530 1299 545 q 1332 491 1332 515 q 1315 440 1332 467 q 1074 122 1196 244 q 845 -1 953 0 l 841 -1 q 713 42 753 -1 q 674 156 674 85 q 687 245 674 198 q 720 336 699 292 l 798 477 q 843 587 843 554 q 825 609 843 609 q 760 577 802 609 q 684 499 719 545 q 629 420 665 471 q 570 332 582 353 q 509 192 531 260 q 486 76 486 125 q 497 22 486 43 q 501 10 501 16 q 480 -3 501 -3 q 315 36 365 -3 q 264 144 264 75 q 279 234 264 187 q 320 338 294 281 q 384 452 332 364 q 401 479 395 470 q 449 590 449 557 q 431 610 449 610 q 358 571 406 610 q 274 478 310 532 q 237 425 261 460 q 176 334 188 356 q 114 195 137 262 q 92 79 92 127 q 103 24 92 45 q 106 12 106 18 q 86 -1 106 -1 q -80 38 -30 -1 q -130 146 -130 77 q -75 340 -130 219 q -1 469 -62 369 q 123 686 78 598 q 168 825 168 774 q 163 852 168 842 q 159 866 159 860 q 182 881 159 881 q 399 753 399 881 l 399 752 q 614 881 513 881 q 693 864 656 881 q 755 816 730 848 q 782 739 779 784 q 1008 881 901 881 q 1112 844 1072 881 q 1152 740 1152 806 q 1126 624 1152 687 q 1083 543 1109 583 q 1015 446 1057 503 q 940 334 957 368 q 921 277 921 300 q 929 255 921 262 q 952 247 937 247 q 995 259 970 247 q 1044 293 1020 271 q 1214 504 1146 397 z "},"n":{"ha":798,"x_min":-130,"x_max":939,"o":"m 821 504 q 849 534 832 524 q 884 545 865 545 q 922 530 906 545 q 939 491 939 515 q 922 440 939 467 q 766 216 845 314 q 606 59 686 118 q 452 -1 525 -1 l 448 -1 q 321 42 360 -1 q 281 157 281 85 q 294 245 281 198 q 326 336 306 292 l 405 477 q 439 544 428 517 q 450 587 450 572 q 431 609 450 609 q 358 570 406 609 q 275 478 311 532 q 238 425 262 460 q 177 334 189 356 q 116 195 138 262 q 93 79 93 127 q 104 24 93 45 q 108 12 108 18 q 87 -1 108 -1 q -79 38 -28 -1 q -129 146 -129 77 q -73 340 -129 219 q 1 469 -60 369 q 124 686 79 598 q 170 825 170 774 q 164 852 170 842 q 160 866 160 860 q 183 881 160 881 q 400 753 400 881 l 400 751 q 615 881 514 881 q 719 843 679 881 q 759 739 759 806 q 732 624 759 687 q 690 544 715 584 q 622 446 664 504 q 547 334 575 385 q 528 277 528 300 q 536 254 528 262 q 559 247 545 247 q 602 259 578 247 q 650 293 627 271 q 821 504 751 393 z "},"o":{"ha":829,"x_min":-39,"x_max":973,"o":"m 855 505 q 883 535 866 525 q 918 545 900 545 q 957 531 941 545 q 972 492 972 516 q 956 441 972 469 q 837 320 912 364 q 684 276 761 276 q 637 281 660 276 q 514 135 585 199 q 364 36 444 71 q 210 0 285 0 q 78 36 134 0 q -8 135 22 71 q -39 281 -39 199 q -12 441 -39 358 q 131 690 37 585 q 215 744 177 744 q 251 724 238 744 q 264 671 264 705 q 264 657 264 664 q 332 817 272 751 q 492 882 391 882 q 636 844 578 882 q 721 742 693 806 q 748 602 748 678 q 734 491 748 547 q 694 387 720 435 q 778 424 736 395 q 855 505 819 452 m 291 251 q 439 321 367 251 q 314 440 359 363 q 263 604 269 517 q 186 474 205 536 q 174 396 174 437 q 203 293 174 335 q 291 251 231 251 m 536 472 q 548 549 548 515 q 529 618 548 595 q 481 641 509 641 q 426 618 450 641 q 401 561 401 595 q 421 502 401 533 q 483 441 441 471 q 512 426 504 426 q 523 433 519 426 q 533 461 526 441 q 536 472 535 468 z "},"p":{"ha":722,"x_min":-409,"x_max":716,"o":"m 557 881 q 677 829 638 878 q 715 698 715 780 q 669 482 715 603 q 545 250 623 361 q 376 70 467 139 q 201 0 286 0 q 104 18 142 0 q 39 68 66 35 q -76 -169 -38 -75 q -113 -340 -113 -264 q -56 -496 -113 -429 q -42 -531 -42 -513 q -54 -557 -42 -546 q -90 -572 -65 -568 q -113 -573 -100 -573 q -269 -549 -174 -573 q -409 -370 -409 -513 q -329 -93 -409 -252 q -138 227 -250 66 q 19 509 -43 364 q 81 752 81 654 q 77 793 81 774 q 64 828 75 806 q 54 857 54 849 q 85 879 54 874 q 125 882 105 882 q 256 842 200 882 q 326 759 310 810 q 437 853 376 825 q 551 881 498 881 l 557 881 m 420 483 q 453 583 453 545 q 443 613 453 603 q 416 624 433 624 q 343 591 385 624 q 269 503 301 559 q 227 428 255 478 q 184 352 198 377 q 140 226 140 272 q 148 196 140 206 q 170 186 156 186 q 223 208 192 186 q 286 271 254 230 q 348 356 321 313 q 410 465 374 399 q 420 483 416 477 z "},"q":{"ha":899,"x_min":-1,"x_max":820,"o":"m 745 656 q 820 522 820 610 q 787 384 820 462 q 707 226 755 306 q 577 20 659 146 q 416 -238 465 -153 q 355 -374 378 -307 q 333 -490 333 -441 q 345 -547 333 -526 q 348 -559 348 -554 q 328 -573 348 -573 q 154 -520 204 -559 q 103 -418 103 -481 q 137 -291 103 -361 q 240 -105 171 -220 q 267 -60 258 -75 q 313 16 281 -36 q 422 203 387 139 q 286 51 355 101 q 155 0 216 0 q 43 60 87 0 q 0 220 0 119 q 21 368 0 288 q 87 536 43 448 q 204 710 136 631 q 347 836 272 789 q 492 882 422 882 q 615 851 562 882 q 669 743 669 819 q 663 690 669 718 q 745 656 709 681 m 260 271 q 318 260 289 260 q 445 313 385 260 q 541 450 505 366 q 562 524 555 488 l 562 528 q 530 604 562 576 q 450 631 498 631 q 340 596 395 631 q 252 494 285 561 q 216 358 216 421 q 227 303 216 326 q 260 271 238 280 z "},"r":{"ha":637,"x_min":-3,"x_max":774,"o":"m 304 646 q 310 667 310 656 q 300 693 310 683 q 278 704 291 704 q 245 679 258 704 q 113 441 180 551 q 56 406 92 406 q 15 423 33 406 q -3 463 -3 439 q 12 504 -3 484 q 82 640 54 569 q 111 774 111 710 q 47 918 111 864 q 36 942 36 929 q 59 982 36 962 q 104 1008 83 1001 q 169 1019 136 1019 q 242 1004 208 1019 q 295 965 275 989 q 315 911 315 940 q 313 892 315 902 q 375 901 344 901 q 505 860 448 901 q 588 717 588 800 q 554 596 588 658 q 456 448 520 535 q 382 336 410 387 q 363 278 363 301 q 371 256 363 263 q 394 248 379 248 q 437 260 412 248 q 486 294 462 273 q 656 505 588 398 q 684 535 667 525 q 719 545 701 545 q 758 531 741 545 q 774 492 774 516 q 757 441 774 469 q 601 217 680 315 q 441 60 522 119 q 287 0 360 1 l 283 0 q 156 43 195 0 q 116 157 116 86 q 129 246 116 199 q 161 337 141 293 l 304 646 z "},"s":{"ha":811,"x_min":-36,"x_max":805,"o":"m 736 864 q 770 882 751 882 q 794 873 785 882 q 804 848 804 863 q 795 819 804 834 q 725 669 750 739 q 701 545 701 599 q 722 463 701 496 q 726 453 726 458 q 711 442 726 444 l 707 442 q 661 453 690 442 q 614 475 633 465 q 549 568 549 513 q 576 647 549 604 q 583 657 578 650 q 614 703 603 687 q 622 727 622 716 q 609 749 622 741 q 576 756 596 756 q 515 740 546 756 q 467 693 484 724 q 451 633 451 665 q 475 549 451 591 q 549 441 499 506 q 634 315 605 367 q 663 208 663 264 q 660 177 663 192 q 604 83 650 123 q 487 21 557 43 q 339 0 417 0 q 157 33 242 0 q 18 136 71 66 q -36 308 -36 205 q -28 388 -36 347 q 28 534 -12 476 q 123 591 68 591 q 158 585 140 591 q 160 585 159 585 q 227 557 202 571 q 271 515 252 543 q 280 494 280 501 q 274 484 280 487 q 255 479 268 481 q 229 473 237 477 q 183 441 208 463 q 140 397 158 420 q 111 321 111 360 q 134 255 111 286 q 193 207 157 225 q 266 189 229 189 q 328 207 301 189 q 366 262 355 225 q 374 318 374 289 q 357 414 374 366 q 304 532 339 462 q 269 608 282 578 q 250 666 256 638 q 244 711 244 690 q 280 806 244 768 q 372 864 315 845 q 494 882 429 882 q 613 864 558 882 q 695 813 669 846 q 736 864 715 838 z "},"t":{"ha":569,"x_min":-73,"x_max":703,"o":"m 585 505 q 612 536 595 526 q 647 546 629 546 q 686 531 670 546 q 702 492 702 516 q 686 441 702 469 q 619 338 654 391 q 383 95 517 189 q 99 0 250 0 q -32 49 8 0 q -73 183 -73 98 q -55 313 -73 242 q -11 453 -38 384 q 45 580 16 522 q 98 673 74 637 q 133 727 121 709 q 64 700 90 713 q 42 695 51 695 q 26 710 26 695 q 41 749 26 724 q 109 812 63 786 q 218 854 154 838 q 299 992 270 932 q 328 1093 328 1051 q 321 1125 328 1111 q 318 1137 318 1132 q 338 1152 318 1152 l 342 1152 q 441 1104 390 1149 q 528 939 528 1027 q 518 879 528 910 q 602 768 602 861 l 602 762 q 594 706 601 740 q 576 658 587 671 q 564 650 570 650 q 553 659 557 650 q 445 744 536 720 q 389 673 410 699 q 254 472 294 556 q 214 329 214 387 q 234 266 214 288 q 288 243 254 243 q 387 279 331 243 q 495 384 442 315 q 506 397 498 389 q 585 505 561 468 z "},"u":{"ha":849,"x_min":-117,"x_max":986,"o":"m 868 505 q 896 536 880 526 q 931 546 913 546 q 970 531 954 546 q 986 492 986 517 q 969 441 986 469 q 728 123 850 245 q 499 1 607 1 l 495 1 q 368 44 408 1 q 329 158 329 87 q 339 239 329 195 q 184 64 256 129 q 52 0 111 0 l 49 0 q -78 43 -39 0 q -117 156 -117 85 q -73 336 -117 237 q -31 425 -54 380 q 30 534 -7 469 q 119 705 90 642 q 148 814 148 768 q 139 854 148 837 q 135 867 135 861 q 158 882 135 882 q 260 842 205 882 q 346 698 346 781 q 314 585 346 642 q 221 446 282 528 q 160 358 177 385 q 138 315 145 334 q 131 281 131 295 q 142 252 131 262 q 172 242 153 242 q 240 262 200 242 q 326 324 280 283 q 414 425 371 366 l 488 584 q 518 672 507 625 q 530 760 530 720 q 528 793 530 779 q 514 828 526 806 q 504 857 504 849 q 535 879 504 874 q 576 882 556 882 q 707 842 651 882 q 793 699 793 781 q 761 586 793 643 q 669 446 729 528 q 594 336 623 387 q 575 279 575 301 q 583 256 575 264 q 606 249 591 249 q 649 261 625 249 q 698 294 674 273 q 868 505 798 397 z "},"v":{"ha":909,"x_min":-112,"x_max":1042,"o":"m 924 505 q 951 535 935 525 q 987 545 968 545 q 1025 531 1009 545 q 1042 492 1042 516 q 1025 441 1042 469 q 814 173 925 264 q 606 82 703 82 q 512 107 554 82 q 443 181 471 133 q 233 49 334 98 q 58 0 132 0 l 54 0 q -73 43 -33 0 q -112 156 -112 85 q -68 336 -112 237 q -25 425 -49 380 q 35 534 -1 469 q 124 705 96 642 q 153 814 153 768 q 144 854 153 837 q 140 867 140 861 q 163 882 140 882 q 266 842 211 882 q 351 698 351 781 q 319 585 351 642 q 227 446 288 528 q 165 358 182 385 q 138 279 138 314 q 156 234 138 250 q 206 218 174 218 q 294 242 243 218 q 400 315 344 266 q 395 399 395 355 q 429 644 395 511 q 493 778 453 724 q 582 858 534 832 q 680 884 631 884 q 796 837 747 884 q 845 713 845 790 q 749 483 845 606 q 564 283 671 382 q 637 246 593 246 q 768 310 694 246 q 924 505 842 374 m 532 562 q 522 448 522 496 q 557 498 534 464 q 583 536 574 524 q 620 632 620 588 q 612 663 620 651 q 593 674 605 674 q 557 646 575 674 q 532 562 540 618 z "},"w":{"ha":1329,"x_min":-123,"x_max":1464,"o":"m 1347 506 q 1375 536 1358 526 q 1409 546 1392 546 q 1448 531 1432 546 q 1464 493 1464 517 q 1447 442 1464 469 q 1237 175 1348 265 q 1029 84 1126 84 q 936 110 978 84 q 867 183 895 135 q 729 82 794 122 q 608 22 663 41 q 511 2 553 2 q 424 35 454 2 q 393 128 393 68 q 409 226 393 172 q 297 111 365 162 q 156 31 229 60 q 20 1 82 1 q -84 36 -45 1 q -123 141 -123 71 q -110 229 -123 180 q -71 338 -98 278 q -29 426 -52 381 q 31 535 -5 470 q 121 706 92 643 q 150 814 150 769 q 141 854 150 838 q 137 867 137 861 q 160 882 137 882 q 262 842 205 882 q 347 699 347 781 q 315 585 347 643 q 222 446 283 528 q 162 359 178 387 q 136 307 144 331 q 127 264 127 282 q 138 231 127 243 q 168 220 149 220 q 226 238 191 220 q 304 297 260 257 q 399 401 348 337 q 506 553 451 465 q 557 650 538 604 q 576 743 576 697 q 560 816 576 781 q 554 828 558 820 q 544 857 544 849 q 576 879 544 874 q 616 882 596 882 q 747 842 691 882 q 790 752 790 812 q 762 642 790 703 q 683 514 734 581 q 580 349 614 424 q 546 222 546 273 q 561 169 546 188 q 603 151 576 151 q 664 169 629 151 q 738 223 698 186 q 824 317 779 259 q 819 399 819 355 q 853 644 819 509 q 917 778 877 724 q 1006 858 958 832 q 1103 884 1055 884 q 1219 837 1170 884 q 1267 714 1267 791 q 1172 484 1267 608 q 987 285 1095 384 q 1061 248 1017 248 q 1192 311 1118 248 q 1347 506 1265 375 m 956 562 q 945 449 945 496 q 979 497 957 465 q 1007 537 998 524 q 1044 633 1044 589 q 1036 663 1044 652 q 1017 675 1029 675 q 981 647 999 675 q 956 562 964 618 z "},"x":{"ha":952,"x_min":-43,"x_max":1083,"o":"m 869 170 q 730 41 787 81 q 630 1 672 1 q 581 17 603 1 q 539 64 558 34 q 505 131 521 94 q 464 233 489 168 q 448 275 453 260 q 310 139 399 220 q 167 22 222 59 q 102 0 134 0 q 14 50 54 0 q -23 102 -5 73 q -42 148 -41 132 l -42 150 q -32 164 -42 164 q -23 161 -28 164 q 19 153 -5 153 q 132 184 66 153 q 267 264 198 215 q 401 375 336 314 q 388 408 397 385 q 319 547 349 498 q 252 595 290 595 q 204 573 229 595 q 151 503 179 551 q 140 486 148 497 q 114 441 123 456 q 57 406 92 406 q 16 422 33 406 q -2 463 -2 439 q 12 504 -2 484 q 134 691 79 619 q 244 798 189 762 q 357 834 298 834 q 440 809 410 834 q 490 742 471 785 q 538 609 509 699 q 560 539 552 564 q 644 640 608 591 q 703 736 680 688 q 726 822 726 785 q 717 863 726 845 q 714 872 714 868 q 730 882 714 882 q 775 864 747 882 q 829 829 804 847 q 881 740 881 788 q 843 653 881 699 q 606 412 751 548 q 662 302 633 337 q 724 268 690 268 q 790 296 754 268 q 873 381 827 325 q 965 505 928 448 q 993 535 976 525 q 1028 545 1010 545 q 1066 531 1050 545 q 1082 492 1082 516 q 1066 441 1082 469 q 869 170 960 269 z "},"y":{"ha":879,"x_min":-115,"x_max":1015,"o":"m 897 505 q 925 535 908 525 q 960 545 942 545 q 999 531 983 545 q 1015 492 1015 516 q 998 441 1015 469 q 832 195 949 361 q 574 -148 715 29 q 304 -449 433 -325 q 103 -573 175 -573 q 35 -538 55 -573 q 14 -449 14 -504 q 22 -373 14 -412 q 39 -310 29 -335 q 256 133 109 -131 q 151 37 203 73 q 55 0 98 0 l 52 0 q -75 43 -36 0 q -115 156 -115 85 q -71 336 -115 237 q -28 425 -52 380 q 33 534 -4 469 q 122 705 93 642 q 151 814 151 768 q 142 854 151 837 q 138 867 138 861 q 161 882 138 882 q 263 842 208 882 q 349 698 349 781 q 317 585 349 642 q 224 446 285 528 q 163 358 180 385 q 134 281 134 311 q 145 252 134 262 q 175 242 156 242 q 258 271 209 242 q 361 357 307 299 q 463 496 416 414 q 512 583 486 534 q 543 637 522 602 q 603 750 584 709 q 622 823 622 791 q 615 854 622 840 q 611 867 611 861 q 634 882 611 882 q 736 842 682 882 q 823 697 823 780 q 792 588 823 642 q 707 458 762 533 q 692 437 696 444 q 385 -56 557 256 q 331 -189 331 -153 q 342 -204 331 -204 q 385 -177 355 -204 q 456 -98 415 -150 q 897 505 682 191 z "},"z":{"ha":845,"x_min":0,"x_max":974,"o":"m 832 882 q 873 865 859 882 q 888 825 888 848 q 873 785 888 802 q 832 768 859 768 l 772 768 q 788 706 788 739 q 753 597 788 655 q 653 475 718 540 q 554 355 584 405 q 524 275 524 306 q 559 240 524 240 q 640 269 591 240 q 745 358 688 298 q 856 505 802 418 q 884 535 867 525 q 919 545 901 545 q 958 531 941 545 q 974 492 974 516 q 957 441 974 469 q 760 170 855 275 q 589 43 686 87 q 397 0 493 0 l 390 0 q 306 33 334 1 q 279 115 279 65 q 309 229 279 172 q 232 123 260 174 q 203 34 203 71 q 204 21 203 27 q 205 15 205 18 q 191 0 205 0 q 180 2 186 0 q 81 47 119 25 q 26 92 43 70 q 9 136 9 113 q 46 211 9 172 q 168 319 83 250 q 274 408 230 370 q 358 490 317 446 q 443 603 415 547 q 471 701 471 658 q 454 756 471 736 q 409 776 437 776 q 309 728 365 776 q 191 571 254 681 q 116 441 153 501 q 59 406 94 406 q 18 423 35 406 q 0 463 0 439 q 14 504 0 484 q 72 603 52 562 q 91 684 91 644 q 13 821 91 756 q 3 846 3 833 q 16 871 3 861 q 49 882 29 882 l 832 882 z "},"{":{"ha":1045,"x_min":67,"x_max":978,"o":"m 309 616 q 330 560 323 593 q 336 483 336 526 q 332 404 336 446 q 321 298 328 362 q 310 193 313 234 q 307 116 307 153 q 330 -6 307 37 q 412 -49 353 -49 q 442 -59 432 -49 q 452 -84 452 -68 q 428 -136 452 -109 q 370 -163 404 -163 q 135 -103 202 -163 q 68 66 68 -42 q 78 169 68 115 q 108 304 88 223 q 135 422 126 377 q 143 506 143 467 q 96 616 143 585 q 191 686 149 640 q 262 786 232 732 q 336 930 292 840 q 432 1114 389 1042 q 542 1252 475 1187 q 706 1357 608 1318 q 937 1397 804 1397 q 967 1387 958 1397 q 977 1361 977 1377 q 954 1309 977 1336 q 897 1282 930 1282 q 778 1236 835 1282 q 672 1120 721 1189 q 553 936 624 1052 q 422 735 475 809 q 309 616 368 661 z "},"|":{"ha":680,"x_min":67,"x_max":612,"o":"m 391 -44 q 356 -158 389 -113 q 245 -203 323 -203 q 222 -202 233 -203 q 140 -191 186 -200 q 77 -167 94 -181 q 68 -151 68 -159 q 81 -136 68 -142 q 184 -40 140 -113 q 252 142 228 33 q 277 385 275 252 l 288 1278 q 323 1391 290 1346 q 435 1436 357 1436 q 458 1436 446 1436 q 539 1424 492 1434 q 602 1400 585 1415 q 612 1384 612 1392 q 597 1370 612 1375 q 495 1274 538 1346 q 428 1092 452 1201 q 402 849 404 982 l 391 -44 z "},"}":{"ha":1045,"x_min":67,"x_max":978,"o":"m 736 616 q 709 749 709 659 q 713 829 709 787 q 724 936 717 871 q 735 1040 732 1000 q 739 1118 739 1081 q 730 1205 739 1168 q 696 1262 720 1241 q 633 1282 673 1282 q 603 1292 613 1282 q 593 1318 593 1302 q 617 1370 593 1343 q 675 1397 642 1397 q 910 1336 843 1397 q 977 1168 977 1276 q 967 1064 977 1118 q 937 930 957 1010 q 911 812 920 857 q 902 728 902 766 q 949 616 902 648 q 853 544 897 593 q 781 444 810 495 q 709 304 753 393 q 612 119 655 192 q 504 -19 570 47 q 339 -124 437 -84 q 108 -163 241 -163 q 78 -154 87 -163 q 68 -127 68 -144 q 92 -76 68 -102 q 149 -49 115 -49 q 267 -2 210 -49 q 373 113 324 45 q 492 298 421 181 q 620 494 569 424 q 736 616 670 565 z "},"¢":{"ha":1143,"x_min":67,"x_max":1075,"o":"m 781 1149 q 895 1233 827 1233 q 974 1208 931 1233 q 1033 1168 1001 1192 q 1072 1126 1065 1143 q 1075 1115 1075 1120 q 1060 1103 1075 1103 l 1057 1103 q 1047 1104 1053 1104 q 940 1067 996 1104 q 829 964 884 1031 q 842 898 842 935 q 834 839 842 869 q 800 749 823 796 q 740 667 777 701 q 657 633 703 633 q 591 651 625 633 q 528 734 545 678 q 526 746 526 741 q 530 756 526 754 q 545 759 535 759 l 555 759 q 572 760 566 759 q 638 792 616 772 q 661 834 661 813 q 647 861 661 850 q 611 872 634 872 q 510 831 566 872 q 407 719 441 780 q 372 597 372 657 q 421 478 372 528 q 555 429 470 429 q 631 439 591 429 q 781 515 707 456 q 915 679 854 574 q 943 709 926 699 q 978 719 960 719 q 1016 705 1000 719 q 1032 667 1032 690 q 1015 615 1032 642 q 891 431 955 515 q 414 174 695 174 l 408 174 l 361 81 q 248 -3 316 -3 q 169 22 211 -3 q 71 104 82 76 q 68 115 68 111 q 81 127 68 127 l 85 127 q 95 126 90 126 q 264 213 174 126 q 151 331 192 255 q 111 498 111 408 q 121 589 111 544 q 233 814 150 706 q 428 989 315 922 q 655 1057 541 1057 q 730 1047 696 1057 l 781 1149 z "},"£":{"ha":1113,"x_min":67,"x_max":1046,"o":"m 783 831 q 798 834 793 833 q 803 836 800 835 q 892 873 854 848 q 932 952 930 897 l 932 957 q 909 1017 932 996 q 846 1038 886 1038 q 742 1006 798 1038 q 638 911 686 974 q 568 762 590 848 q 553 710 563 744 q 550 701 551 704 q 661 707 605 705 l 667 707 q 753 682 719 707 q 787 593 787 656 l 787 587 q 780 531 787 566 q 762 482 773 496 q 750 474 756 474 q 739 484 744 474 q 672 558 726 534 q 543 582 619 582 q 510 581 527 582 q 502 559 507 573 q 493 534 496 543 q 449 342 449 426 q 498 202 449 251 q 626 153 547 153 q 736 176 679 153 q 818 221 779 193 q 876 278 858 249 q 887 306 882 286 q 896 327 892 320 q 907 333 899 333 q 928 324 915 333 q 1009 208 994 278 q 1012 181 1012 194 q 911 58 1012 99 q 691 7 810 18 q 452 -3 572 -3 l 444 -3 q 93 119 246 -1 q 74 139 81 127 q 68 166 68 152 q 74 192 68 180 q 93 213 81 205 q 347 491 254 320 q 378 557 358 513 q 292 524 332 544 q 270 520 279 520 q 254 534 254 520 q 269 574 254 549 q 425 678 311 646 q 476 863 452 757 q 541 1035 496 950 q 655 1176 587 1120 q 808 1233 724 1233 q 865 1226 836 1233 q 1002 1129 958 1204 q 1046 953 1046 1055 q 1022 800 1046 876 q 974 730 1003 755 q 901 705 945 705 q 856 711 880 705 q 754 789 793 728 q 747 809 747 802 q 756 823 747 819 q 783 831 765 827 z "},"¥":{"ha":1076,"x_min":68,"x_max":1008,"o":"m 576 608 q 549 566 568 595 q 552 566 550 566 q 574 568 568 568 l 577 568 q 662 488 662 568 l 662 485 q 662 482 662 484 q 650 423 660 436 q 642 418 646 418 q 634 425 637 418 q 598 460 629 449 q 515 471 566 471 q 486 470 502 471 q 471 446 481 463 q 464 433 467 437 q 522 439 491 437 l 525 439 q 609 359 609 439 l 609 355 q 597 294 609 309 q 589 288 593 288 q 582 295 585 288 q 460 342 572 342 q 407 340 436 342 q 404 334 406 338 q 403 333 404 334 q 341 196 363 263 q 319 80 319 130 q 331 23 319 45 q 334 11 334 16 q 314 -3 334 -3 q 168 30 214 -3 q 121 128 121 63 q 163 288 121 193 q 94 258 117 272 q 79 255 85 255 q 68 265 68 255 q 78 292 68 275 q 122 331 89 311 q 203 368 155 350 q 231 418 211 385 q 233 422 232 421 q 146 387 175 404 q 131 384 137 384 q 120 394 120 384 q 130 421 120 404 q 183 465 143 444 q 283 507 224 487 q 326 576 304 541 l 287 1096 q 286 1118 286 1107 q 311 1197 286 1166 q 397 1232 336 1229 q 427 1233 412 1233 q 509 1221 491 1233 q 518 1208 518 1215 q 509 1198 518 1202 q 447 1087 468 1174 q 421 876 426 1000 q 420 858 420 867 q 442 765 420 797 q 498 732 463 732 q 552 748 523 732 q 610 795 581 764 q 795 1025 728 926 q 861 1188 861 1124 q 858 1215 861 1203 q 857 1223 857 1219 q 869 1234 857 1234 q 873 1233 871 1234 q 918 1209 890 1231 q 965 1168 945 1187 q 1008 1084 1008 1126 q 959 992 1008 1038 l 576 608 z "},"§":{"ha":1146,"x_min":68,"x_max":1079,"o":"m 926 1221 q 1078 1080 1078 1180 q 1078 1067 1078 1074 q 1038 903 1038 970 q 1059 820 1038 852 q 1063 810 1063 814 q 1048 799 1063 800 l 1044 799 q 998 810 1027 799 q 950 832 969 821 q 886 925 886 869 q 913 1004 886 961 q 950 1060 926 1024 q 958 1084 958 1073 q 945 1106 958 1098 q 912 1114 932 1114 q 856 1100 884 1114 q 808 1059 827 1086 q 788 992 788 1031 q 798 937 788 966 q 822 874 807 907 q 862 794 837 842 q 902 712 888 743 q 923 654 917 680 q 932 583 932 617 q 901 477 932 520 q 817 412 869 433 q 701 391 764 391 q 648 394 674 391 q 692 289 683 326 q 701 219 701 252 q 662 99 701 148 q 557 25 623 50 q 416 1 492 1 q 237 36 321 1 q 113 140 157 70 q 68 303 68 210 q 75 379 68 340 q 132 525 92 467 q 227 583 172 583 q 262 576 244 583 q 264 576 262 576 q 331 548 307 562 q 375 506 356 534 q 384 485 384 492 q 378 475 384 478 q 359 471 372 473 q 332 464 340 468 q 243 387 287 441 q 214 312 214 351 q 238 246 214 277 q 297 198 261 216 q 370 180 334 180 q 432 198 406 180 q 471 253 459 216 q 479 309 479 279 q 461 405 479 357 q 409 523 444 452 q 373 600 386 570 q 353 658 360 629 q 348 703 348 681 q 382 795 348 758 q 473 850 417 833 q 591 867 528 867 q 652 863 623 867 q 642 884 649 870 q 605 963 618 932 q 585 1023 592 994 q 579 1067 579 1046 q 614 1160 579 1123 q 705 1215 649 1198 q 824 1233 761 1233 q 926 1221 878 1233 m 702 618 q 710 675 710 646 q 700 746 710 708 q 681 748 691 748 q 625 734 654 748 q 576 693 595 721 q 557 627 557 666 q 566 571 557 601 q 588 515 574 547 q 659 552 627 525 q 702 618 690 580 z "},"À":{"ha":1653,"x_min":0,"x_max":1586,"o":"m 1514 1196 q 1586 1061 1586 1152 q 1555 921 1586 998 q 1478 767 1524 843 q 1375 609 1433 692 q 1368 598 1373 606 q 1249 418 1301 503 q 1153 237 1196 334 q 1110 63 1110 139 q 1133 -25 1110 11 q 1187 -73 1150 -53 q 1261 -93 1223 -93 q 1288 -90 1275 -93 q 1327 -84 1310 -84 q 1357 -91 1347 -84 q 1367 -111 1367 -98 q 1356 -141 1367 -124 q 1324 -176 1345 -158 q 1132 -294 1231 -253 q 948 -336 1033 -336 q 821 -301 871 -336 q 745 -144 745 -250 q 776 13 745 -73 q 850 181 807 100 q 949 353 894 263 q 997 442 981 404 q 1012 506 1012 479 q 961 573 1012 555 q 804 590 911 590 q 752 589 781 590 q 529 273 627 439 q 376 -51 431 106 q 321 -328 321 -208 q 364 -500 321 -434 q 380 -545 380 -528 q 338 -573 380 -573 q 220 -550 292 -573 q 113 -501 149 -527 q 0 -298 0 -445 q 59 -49 0 -191 q 223 248 117 92 q 465 554 328 404 q 264 484 343 526 q 176 396 185 441 q 165 384 174 384 q 153 390 160 384 q 121 463 141 401 q 95 552 100 525 q 92 587 92 570 q 122 661 92 636 q 199 692 153 685 q 626 718 347 714 q 964 987 789 871 q 1308 1164 1139 1103 q 1305 1169 1307 1165 q 1304 1175 1305 1173 q 1301 1181 1303 1177 q 1290 1211 1290 1202 q 1322 1233 1290 1228 q 1364 1236 1342 1236 q 1447 1225 1407 1236 q 1514 1196 1487 1215 m 1081 575 q 1295 1033 1249 870 q 1079 904 1187 985 q 867 717 970 823 l 868 717 q 1013 679 954 715 q 1081 575 1072 643 m 1298 1497 q 1354 1580 1310 1550 q 1451 1610 1398 1610 q 1527 1587 1496 1610 q 1558 1522 1558 1564 q 1556 1497 1558 1510 l 1544 1444 q 1500 1361 1533 1391 q 1432 1332 1468 1332 l 1430 1332 q 1333 1376 1371 1333 q 1295 1470 1295 1419 q 1298 1497 1295 1484 z "},"Á":{"ha":1672,"x_min":0,"x_max":1605,"o":"m 1514 1196 q 1586 1061 1586 1152 q 1555 921 1586 998 q 1478 767 1524 843 q 1375 609 1433 692 q 1368 598 1373 606 q 1249 418 1301 503 q 1153 237 1196 334 q 1110 63 1110 139 q 1133 -25 1110 11 q 1187 -73 1150 -53 q 1261 -93 1223 -93 q 1288 -90 1275 -93 q 1327 -84 1310 -84 q 1357 -91 1347 -84 q 1367 -111 1367 -98 q 1356 -141 1367 -124 q 1324 -176 1345 -158 q 1132 -294 1231 -253 q 948 -336 1033 -336 q 821 -301 871 -336 q 745 -144 745 -250 q 776 13 745 -73 q 850 181 807 100 q 949 353 894 263 q 997 442 981 404 q 1012 506 1012 479 q 961 573 1012 555 q 804 590 911 590 q 752 589 781 590 q 529 273 627 439 q 376 -50 431 106 q 321 -328 321 -207 q 364 -500 321 -434 q 380 -545 380 -528 q 338 -573 380 -573 q 220 -550 292 -573 q 113 -501 149 -527 q 0 -298 0 -445 q 59 -49 0 -191 q 223 248 117 92 q 465 554 328 404 q 265 484 342 526 q 176 396 187 442 q 165 384 174 384 q 153 390 160 384 q 121 463 141 401 q 95 552 100 525 q 92 587 92 570 q 122 661 92 636 q 199 692 153 685 q 626 718 347 714 q 964 987 789 871 q 1308 1164 1139 1103 q 1305 1169 1307 1165 q 1304 1175 1305 1173 q 1301 1181 1303 1177 q 1290 1211 1290 1202 q 1322 1233 1290 1228 q 1364 1236 1342 1236 q 1447 1225 1407 1236 q 1514 1196 1487 1215 m 1081 575 q 1295 1033 1249 870 q 1079 904 1187 985 q 867 717 970 823 l 868 717 q 1013 679 954 715 q 1081 575 1072 643 m 1601 1503 q 1604 1476 1604 1490 q 1566 1382 1604 1425 q 1469 1338 1529 1339 l 1467 1338 q 1399 1368 1431 1338 q 1355 1450 1367 1398 l 1343 1503 q 1341 1528 1341 1516 q 1372 1593 1341 1570 q 1449 1616 1403 1616 q 1546 1586 1501 1616 q 1601 1503 1590 1556 z "},"Â":{"ha":1653,"x_min":0,"x_max":1586,"o":"m 1514 1196 q 1586 1061 1586 1152 q 1555 921 1586 998 q 1478 767 1524 843 q 1375 609 1433 692 q 1368 598 1373 606 q 1249 418 1301 503 q 1153 237 1196 334 q 1110 63 1110 139 q 1133 -25 1110 11 q 1187 -73 1150 -53 q 1261 -93 1223 -93 q 1288 -90 1275 -93 q 1327 -84 1310 -84 q 1357 -91 1347 -84 q 1367 -111 1367 -98 q 1356 -141 1367 -124 q 1324 -176 1345 -158 q 1132 -294 1231 -253 q 948 -336 1033 -336 q 821 -301 871 -336 q 745 -144 745 -250 q 776 13 745 -73 q 850 181 807 100 q 949 353 894 263 q 997 442 981 404 q 1012 506 1012 479 q 961 573 1012 555 q 804 590 911 590 q 752 589 781 590 q 529 273 627 439 q 376 -50 431 106 q 321 -328 321 -207 q 364 -500 321 -434 q 380 -545 380 -528 q 338 -573 380 -573 q 220 -550 292 -573 q 113 -501 149 -527 q 0 -298 0 -445 q 59 -49 0 -191 q 223 248 117 92 q 465 554 328 404 q 265 484 342 526 q 176 396 187 442 q 165 384 174 384 q 153 390 160 384 q 121 463 141 401 q 95 552 100 525 q 92 587 92 570 q 122 661 92 636 q 199 692 153 685 q 626 718 347 714 q 964 987 789 871 q 1308 1164 1139 1103 q 1305 1169 1307 1165 q 1304 1175 1305 1173 q 1301 1181 1303 1177 q 1290 1211 1290 1202 q 1322 1233 1290 1228 q 1364 1236 1342 1236 q 1447 1225 1407 1236 q 1514 1196 1487 1215 m 1081 575 q 1295 1033 1249 870 q 1079 904 1187 985 q 867 717 970 823 l 868 717 q 1013 679 954 715 q 1081 575 1072 643 m 1302 1357 q 1263 1338 1284 1338 q 1234 1349 1246 1338 q 1223 1377 1223 1360 q 1240 1413 1223 1396 l 1411 1590 q 1452 1609 1429 1609 q 1485 1590 1476 1609 l 1581 1413 q 1586 1394 1586 1404 q 1567 1355 1586 1373 q 1526 1338 1548 1338 q 1494 1357 1504 1338 l 1426 1484 l 1302 1357 z "},"Ã":{"ha":1723,"x_min":0,"x_max":1655,"o":"m 1514 1196 q 1586 1061 1586 1152 q 1555 921 1586 998 q 1478 767 1524 843 q 1375 609 1433 692 q 1368 598 1373 606 q 1249 418 1301 503 q 1153 237 1196 334 q 1110 63 1110 139 q 1133 -25 1110 11 q 1187 -73 1150 -53 q 1261 -93 1223 -93 q 1288 -90 1275 -93 q 1327 -84 1310 -84 q 1357 -91 1347 -84 q 1367 -111 1367 -98 q 1356 -141 1367 -124 q 1324 -176 1345 -158 q 1132 -294 1231 -253 q 948 -336 1033 -336 q 821 -301 871 -336 q 745 -144 745 -250 q 776 13 745 -73 q 850 181 807 100 q 949 353 894 263 q 997 442 981 404 q 1012 506 1012 479 q 961 573 1012 555 q 804 590 911 590 q 752 589 781 590 q 529 273 627 439 q 376 -50 431 106 q 321 -328 321 -207 q 364 -500 321 -434 q 380 -545 380 -528 q 338 -573 380 -573 q 220 -550 292 -573 q 113 -501 149 -527 q 0 -298 0 -445 q 59 -49 0 -191 q 223 248 117 92 q 465 554 328 404 q 265 484 342 526 q 176 396 187 442 q 165 384 174 384 q 153 390 160 384 q 121 463 141 401 q 95 552 100 525 q 92 587 92 570 q 122 661 92 636 q 199 692 153 685 q 626 718 347 714 q 964 987 789 871 q 1308 1164 1139 1103 q 1305 1169 1307 1165 q 1304 1175 1305 1173 q 1301 1181 1303 1177 q 1290 1211 1290 1202 q 1322 1233 1290 1228 q 1364 1236 1342 1236 q 1447 1225 1407 1236 q 1514 1196 1487 1215 m 1081 575 q 1295 1033 1249 871 q 1079 904 1187 985 q 867 717 970 823 l 868 717 q 1013 679 954 715 q 1081 575 1072 643 m 1387 1432 q 1354 1423 1371 1423 q 1313 1438 1330 1423 q 1295 1472 1295 1453 q 1320 1509 1295 1495 q 1409 1532 1362 1532 q 1449 1529 1429 1532 q 1498 1518 1469 1525 q 1499 1518 1499 1518 q 1501 1518 1500 1518 q 1552 1508 1538 1508 q 1568 1511 1562 1508 q 1598 1518 1583 1518 q 1638 1503 1622 1518 q 1655 1469 1655 1488 q 1625 1430 1655 1443 q 1554 1415 1591 1415 q 1514 1418 1533 1415 q 1466 1428 1495 1421 q 1411 1438 1428 1438 q 1387 1432 1396 1438 z "},"Ä":{"ha":1731,"x_min":0,"x_max":1664,"o":"m 1514 1196 q 1586 1061 1586 1152 q 1555 921 1586 998 q 1478 767 1524 843 q 1375 609 1433 692 q 1368 598 1373 606 q 1249 418 1301 503 q 1153 237 1196 334 q 1110 63 1110 139 q 1133 -25 1110 11 q 1187 -73 1150 -53 q 1261 -93 1223 -93 q 1288 -90 1275 -93 q 1327 -84 1310 -84 q 1357 -91 1347 -84 q 1367 -111 1367 -98 q 1356 -141 1367 -124 q 1324 -176 1345 -158 q 1132 -294 1231 -253 q 948 -336 1033 -336 q 821 -301 871 -336 q 745 -144 745 -250 q 776 13 745 -73 q 850 181 807 100 q 949 353 894 263 q 997 442 981 404 q 1012 506 1012 479 q 961 573 1012 555 q 804 590 911 590 q 752 589 781 590 q 529 273 627 439 q 376 -50 431 106 q 321 -328 321 -207 q 364 -500 321 -434 q 380 -545 380 -528 q 338 -573 380 -573 q 220 -550 292 -573 q 113 -501 149 -527 q 0 -298 0 -445 q 59 -49 0 -191 q 223 248 117 92 q 465 554 328 404 q 264 484 343 526 q 176 396 185 441 q 165 384 174 384 q 153 390 160 384 q 121 463 141 401 q 95 552 100 525 q 92 587 92 570 q 122 661 92 636 q 199 692 153 685 q 626 718 347 714 q 964 987 789 871 q 1308 1164 1139 1103 q 1305 1169 1307 1165 q 1304 1175 1305 1173 q 1301 1181 1303 1177 q 1290 1211 1290 1202 q 1322 1233 1290 1228 q 1364 1236 1342 1236 q 1447 1225 1407 1236 q 1514 1196 1487 1215 m 1081 575 q 1295 1033 1249 870 q 1079 904 1187 985 q 867 717 970 823 l 868 717 q 1013 679 954 715 q 1081 575 1072 643 m 1319 1546 q 1380 1522 1356 1546 q 1403 1463 1403 1499 q 1401 1442 1403 1453 q 1355 1368 1392 1398 q 1275 1338 1318 1338 q 1214 1361 1238 1338 q 1191 1420 1191 1385 q 1193 1442 1191 1431 q 1239 1515 1202 1485 q 1319 1546 1276 1546 m 1579 1546 q 1640 1522 1617 1546 q 1664 1463 1664 1499 q 1662 1442 1664 1453 q 1615 1368 1653 1398 q 1535 1338 1578 1338 q 1474 1361 1498 1338 q 1451 1420 1451 1384 q 1453 1442 1451 1431 q 1499 1515 1462 1485 q 1579 1546 1536 1546 z "},"Å":{"ha":1653,"x_min":0,"x_max":1586,"o":"m 1514 1196 q 1586 1061 1586 1152 q 1555 921 1586 998 q 1478 767 1524 843 q 1375 609 1433 692 q 1368 598 1373 606 q 1249 418 1301 503 q 1153 237 1196 334 q 1110 63 1110 139 q 1133 -25 1110 11 q 1187 -73 1150 -53 q 1261 -93 1223 -93 q 1288 -90 1275 -93 q 1327 -84 1310 -84 q 1357 -91 1347 -84 q 1367 -111 1367 -98 q 1356 -141 1367 -124 q 1324 -176 1345 -158 q 1132 -294 1231 -253 q 948 -336 1033 -336 q 821 -301 871 -336 q 745 -144 745 -250 q 776 13 745 -73 q 850 181 807 100 q 949 353 894 263 q 997 442 981 404 q 1012 506 1012 479 q 961 573 1012 555 q 804 590 911 590 q 752 589 781 590 q 529 273 627 439 q 376 -50 431 106 q 321 -328 321 -207 q 364 -500 321 -434 q 380 -545 380 -528 q 338 -573 380 -573 q 220 -550 292 -573 q 113 -501 149 -527 q 0 -298 0 -445 q 59 -49 0 -191 q 223 248 117 92 q 465 554 328 404 q 264 484 343 526 q 176 396 185 441 q 165 384 174 384 q 153 390 160 384 q 121 463 141 401 q 95 552 100 525 q 92 587 92 570 q 122 661 92 636 q 199 692 153 685 q 626 718 347 714 q 964 987 789 871 q 1308 1164 1139 1103 q 1305 1169 1307 1165 q 1304 1175 1305 1173 q 1301 1181 1303 1177 q 1290 1211 1290 1202 q 1322 1233 1290 1228 q 1364 1236 1342 1236 q 1447 1225 1407 1236 q 1514 1196 1487 1215 m 1081 575 q 1295 1033 1249 870 q 1079 904 1187 985 q 867 717 970 823 l 868 717 q 1013 679 954 715 q 1081 575 1072 643 m 1480 1609 q 1557 1578 1527 1609 q 1586 1501 1586 1548 q 1583 1473 1586 1487 q 1551 1406 1575 1437 q 1492 1356 1527 1375 q 1422 1338 1458 1338 q 1345 1368 1375 1338 q 1316 1444 1316 1398 q 1319 1473 1316 1459 q 1351 1540 1326 1509 q 1409 1590 1375 1571 q 1480 1609 1443 1609 m 1499 1473 q 1501 1485 1501 1479 q 1490 1514 1501 1502 q 1462 1525 1480 1525 q 1424 1510 1441 1525 q 1402 1473 1407 1494 q 1400 1462 1400 1468 q 1411 1433 1400 1444 q 1440 1421 1422 1421 q 1478 1436 1461 1421 q 1499 1473 1495 1452 z "},"Æ":{"ha":2349,"x_min":-1,"x_max":2282,"o":"m 2240 534 q 2281 446 2281 496 q 2209 300 2281 378 q 2020 153 2138 222 q 1767 43 1902 85 q 1514 1 1632 1 q 1491 0 1503 0 q 1269 45 1362 0 q 1128 168 1175 91 q 1110 63 1110 110 q 1133 -24 1110 11 q 1186 -73 1150 -53 q 1260 -92 1223 -92 q 1288 -89 1274 -92 q 1326 -83 1310 -83 q 1357 -91 1346 -83 q 1367 -111 1367 -98 q 1356 -141 1367 -124 q 1324 -176 1345 -158 q 1132 -294 1231 -253 q 948 -336 1032 -336 q 821 -301 871 -336 q 746 -144 746 -249 q 804 83 746 -42 q 949 353 861 209 q 1013 506 1013 453 q 962 572 1013 555 q 806 589 912 589 q 751 589 771 589 q 529 272 627 439 q 375 -51 431 106 q 320 -329 320 -208 q 363 -500 320 -434 q 380 -545 380 -528 q 338 -572 380 -572 q 220 -549 291 -572 q 113 -500 149 -526 q 0 -298 0 -444 q 59 -49 0 -191 q 222 248 117 92 q 465 555 328 404 q 264 483 342 526 q 176 396 185 441 q 165 384 174 384 q 154 390 160 384 q 122 460 142 401 q 95 551 102 519 q 92 585 92 570 q 122 660 92 635 q 199 692 152 685 q 626 718 357 715 q 964 987 789 871 q 1308 1164 1139 1103 q 1306 1169 1307 1165 q 1304 1175 1305 1173 q 1301 1182 1303 1177 q 1291 1211 1291 1203 q 1322 1232 1291 1228 q 1366 1236 1343 1236 q 1448 1225 1408 1236 q 1514 1196 1487 1215 q 1543 1173 1532 1184 q 2136 1236 1894 1233 q 2259 1122 2259 1235 l 2259 1113 q 2249 1028 2257 1081 q 2230 964 2241 976 q 2218 956 2224 956 q 2207 965 2212 956 q 2099 1050 2182 1022 q 1888 1078 2016 1078 q 1725 1068 1813 1078 q 1583 1026 1636 1061 q 1539 983 1554 1007 q 1523 932 1523 958 q 1540 884 1523 906 q 1610 837 1562 854 q 1730 819 1658 819 q 1777 821 1752 819 q 1874 834 1813 827 q 1889 836 1882 836 q 1932 816 1916 836 q 1949 772 1949 797 q 1937 733 1949 750 q 1900 712 1924 717 q 1777 691 1840 699 q 1574 599 1650 656 q 1467 480 1497 542 q 1436 362 1436 418 q 1446 302 1436 328 q 1529 225 1467 250 q 1674 201 1591 201 q 1826 220 1752 201 q 1944 271 1900 239 q 2036 369 2010 320 q 2062 461 2062 417 q 2056 508 2062 486 q 2047 534 2053 517 q 2037 569 2037 559 q 2074 592 2037 591 l 2083 592 q 2169 577 2128 592 q 2240 534 2210 562 m 1274 970 q 1295 1033 1284 995 q 1096 916 1196 989 q 866 717 979 833 l 868 717 q 1013 679 954 715 q 1081 575 1072 643 q 1274 970 1219 820 z "},"Œ":{"ha":2313,"x_min":0,"x_max":2245,"o":"m 2203 534 q 2245 446 2245 496 q 2173 300 2245 378 q 1983 153 2100 222 q 1730 43 1865 85 q 1478 1 1595 1 q 1453 0 1466 0 q 1267 31 1349 0 q 1133 115 1185 61 q 868 1 996 1 q 628 83 724 1 q 509 317 531 165 q 502 418 502 366 q 505 491 502 454 q 303 446 394 473 q 157 386 212 419 q 94 317 102 353 q 83 306 92 306 q 71 311 78 306 q 34 393 59 322 q 4 490 9 465 q 0 525 0 509 q 106 631 0 613 q 422 648 207 648 q 531 647 473 648 q 648 937 568 802 q 844 1154 728 1072 q 1099 1237 960 1237 q 1206 1206 1162 1237 q 1276 1125 1251 1175 q 1713 1205 1480 1174 q 2099 1236 1946 1236 q 2222 1122 2222 1235 l 2222 1113 q 2212 1029 2220 1082 q 2194 964 2204 976 q 2182 956 2188 956 q 2171 965 2175 956 q 2063 1050 2146 1022 q 1852 1078 1980 1078 q 1688 1068 1777 1078 q 1580 1044 1626 1064 q 1510 994 1534 1023 q 1487 933 1487 965 q 1510 877 1487 903 q 1579 834 1533 850 q 1693 819 1626 819 q 1741 821 1716 819 q 1839 834 1775 827 q 1853 836 1846 836 q 1896 816 1880 836 q 1912 771 1912 797 q 1900 733 1912 750 q 1864 712 1887 717 q 1740 691 1803 699 q 1537 599 1613 656 q 1430 480 1461 542 q 1399 362 1399 418 q 1409 302 1399 328 q 1492 225 1430 250 q 1638 201 1554 201 q 1790 220 1715 201 q 1908 271 1866 240 q 2026 463 2026 359 q 2020 508 2026 486 q 2011 533 2017 516 q 2001 569 2001 559 q 2037 592 2001 591 l 2046 592 q 2133 577 2091 592 q 2203 534 2174 562 m 1212 606 q 1215 639 1215 624 q 1198 701 1215 680 q 1155 722 1181 722 q 1092 693 1124 722 q 1038 613 1059 665 q 1097 572 1076 598 q 1124 513 1119 545 q 1125 494 1125 504 q 1107 426 1125 459 q 1059 373 1090 393 q 984 351 1025 351 q 934 359 960 351 q 860 414 884 376 q 837 505 837 452 l 838 517 q 772 516 794 517 q 757 399 757 452 q 774 309 757 345 q 827 260 791 272 q 880 251 852 251 q 967 269 922 251 q 1053 319 1012 286 q 1152 440 1114 369 q 1212 606 1202 536 m 1258 908 q 1268 956 1259 935 q 1257 964 1261 959 q 1242 972 1247 970 q 1158 997 1202 997 q 1046 960 1103 997 q 914 828 977 916 q 810 637 852 740 q 865 633 846 635 q 952 785 897 713 q 1067 892 1007 856 q 1068 893 1067 892 q 1072 895 1070 895 q 1175 917 1113 917 q 1258 908 1218 917 z "},"Ç":{"ha":1338,"x_min":0,"x_max":1271,"o":"m 1225 527 q 1270 431 1270 486 q 1213 297 1270 368 q 1059 161 1156 226 q 804 41 941 82 q 532 0 667 0 l 526 0 q 503 -39 517 -16 q 494 -55 500 -44 q 471 -92 478 -79 q 543 -158 512 -117 q 585 -243 574 -199 q 589 -279 589 -261 q 556 -368 589 -331 q 471 -405 524 -405 q 284 -305 361 -405 q 236 -233 260 -273 q 230 -214 230 -222 q 236 -198 230 -204 q 251 -193 242 -193 q 275 -208 267 -193 q 327 -272 298 -249 q 386 -302 356 -295 q 416 -305 401 -305 q 468 -287 449 -305 q 487 -240 487 -269 q 473 -193 487 -217 q 433 -149 460 -169 q 394 -133 412 -133 q 374 -148 376 -133 q 383 -164 374 -157 q 409 -177 392 -172 q 414 -178 411 -178 q 417 -178 415 -178 q 420 -177 419 -177 q 427 -182 427 -177 q 426 -186 427 -184 q 401 -219 419 -210 q 376 -227 388 -227 q 332 -200 350 -227 q 307 -146 313 -174 q 304 -123 304 -134 q 322 -78 304 -95 q 376 -61 340 -61 q 397 -64 383 -61 q 404 -64 401 -64 q 448 5 422 -36 q 218 74 319 20 q 59 225 117 129 q 0 452 0 321 q 26 635 0 538 q 126 851 56 748 q 293 1036 195 954 q 525 1174 385 1112 q 787 1236 665 1236 l 797 1236 q 933 1187 876 1234 q 989 1056 989 1139 q 987 1025 989 1041 l 901 878 l 861 976 q 871 1015 871 996 q 835 1073 871 1050 q 744 1097 800 1095 q 730 1098 737 1098 q 526 1016 619 1098 q 379 809 433 934 q 326 568 326 684 q 380 379 326 450 q 536 268 435 307 q 744 229 636 229 q 877 247 817 229 q 972 299 937 265 q 1046 453 1046 372 q 1040 500 1046 477 q 1031 526 1038 509 q 1021 562 1021 551 q 1058 585 1021 584 l 1067 585 q 1155 570 1114 585 q 1225 527 1196 555 z "},"È":{"ha":1269,"x_min":-1,"x_max":1201,"o":"m 1159 534 q 1201 446 1201 496 q 1129 300 1201 378 q 939 153 1057 222 q 686 43 821 85 q 433 1 551 1 q 411 0 422 0 q 196 42 288 0 q 56 154 104 83 q 7 309 7 224 q 45 457 7 382 q 162 601 83 532 q 357 722 240 670 q 250 798 287 751 q 212 899 212 844 q 239 989 212 945 q 158 947 191 973 q 113 878 125 920 q 111 865 112 874 q 106 848 109 853 q 96 842 103 842 q 81 847 90 842 q 8 930 26 878 q 0 977 0 956 q 41 1058 0 1029 q 151 1105 81 1087 q 624 1198 361 1161 q 1055 1236 886 1235 q 1143 1211 1107 1236 q 1178 1123 1178 1185 l 1178 1113 q 1168 1029 1177 1082 q 1149 964 1160 976 q 1138 956 1143 956 q 1126 966 1131 956 q 1019 1049 1101 1022 q 810 1077 937 1077 q 644 1067 733 1077 q 536 1043 582 1063 q 467 994 490 1023 q 443 933 443 964 q 466 877 443 903 q 535 834 488 850 q 648 819 581 819 q 696 821 671 819 q 794 834 748 829 q 808 836 802 836 q 852 816 836 836 q 868 771 868 797 q 856 733 868 750 q 819 712 843 717 q 696 691 759 699 q 493 600 569 656 q 386 481 416 543 q 355 362 355 419 q 365 303 355 328 q 448 226 386 251 q 594 201 511 201 q 746 220 671 201 q 863 271 821 239 q 981 463 981 359 q 975 508 981 485 q 966 533 973 516 q 956 569 956 559 q 993 592 956 591 l 1002 592 q 1088 577 1048 592 q 1159 534 1129 562 m 503 1497 q 558 1580 514 1550 q 655 1610 603 1610 q 732 1587 701 1610 q 763 1522 763 1564 q 760 1497 763 1510 l 749 1444 q 705 1362 738 1392 q 637 1332 673 1332 l 635 1332 q 537 1376 575 1333 q 500 1470 500 1419 q 503 1497 500 1484 z "},"É":{"ha":1269,"x_min":-1,"x_max":1201,"o":"m 1159 534 q 1201 446 1201 496 q 1129 300 1201 378 q 939 153 1057 222 q 686 43 821 85 q 433 1 551 1 q 411 0 422 0 q 196 42 288 0 q 56 154 104 83 q 7 309 7 224 q 45 457 7 382 q 162 601 83 532 q 357 722 240 670 q 250 798 287 751 q 212 899 212 844 q 239 989 212 945 q 158 947 191 973 q 113 878 125 920 q 111 865 112 874 q 106 848 109 853 q 96 842 103 842 q 81 847 90 842 q 8 930 26 878 q 0 977 0 956 q 41 1058 0 1029 q 151 1105 81 1087 q 624 1198 361 1161 q 1055 1236 886 1235 q 1143 1211 1107 1236 q 1178 1123 1178 1185 l 1178 1113 q 1168 1029 1177 1082 q 1149 964 1160 976 q 1138 956 1143 956 q 1126 966 1131 956 q 1019 1049 1101 1022 q 810 1077 937 1077 q 644 1067 733 1077 q 536 1043 582 1063 q 467 994 490 1023 q 443 933 443 964 q 466 877 443 903 q 535 834 488 850 q 648 819 581 819 q 696 821 671 819 q 794 834 748 829 q 808 836 802 836 q 852 816 836 836 q 868 771 868 797 q 856 733 868 750 q 819 712 843 717 q 696 691 759 699 q 493 600 569 656 q 386 481 416 543 q 355 362 355 419 q 365 303 355 328 q 448 226 386 251 q 594 201 511 201 q 746 220 671 201 q 863 271 821 239 q 981 463 981 359 q 975 508 981 485 q 966 533 973 516 q 956 569 956 559 q 993 592 956 591 l 1002 592 q 1088 577 1048 592 q 1159 534 1129 562 m 802 1503 q 804 1476 804 1490 q 767 1382 804 1425 q 669 1338 729 1339 l 667 1338 q 600 1368 632 1338 q 555 1450 567 1398 l 544 1503 q 541 1528 541 1516 q 572 1593 541 1570 q 650 1616 604 1616 q 746 1586 702 1616 q 802 1503 791 1556 z "},"Ê":{"ha":1269,"x_min":-1,"x_max":1201,"o":"m 1159 534 q 1201 446 1201 496 q 1129 300 1201 378 q 939 153 1057 222 q 686 43 821 85 q 433 1 551 1 q 411 0 422 0 q 196 42 288 0 q 56 154 104 83 q 7 309 7 224 q 45 457 7 382 q 162 601 83 532 q 357 722 240 670 q 250 798 287 751 q 212 899 212 844 q 239 989 212 945 q 158 947 191 973 q 113 878 125 920 q 111 865 112 874 q 106 848 109 853 q 96 842 103 842 q 81 847 90 842 q 8 930 26 878 q 0 977 0 956 q 41 1058 0 1029 q 151 1105 81 1087 q 624 1198 361 1161 q 1055 1236 886 1235 q 1143 1211 1107 1236 q 1178 1123 1178 1185 l 1178 1113 q 1168 1029 1177 1082 q 1149 964 1160 976 q 1138 956 1143 956 q 1126 966 1131 956 q 1019 1049 1101 1022 q 810 1077 937 1077 q 644 1067 733 1077 q 536 1043 582 1063 q 467 994 490 1023 q 443 933 443 964 q 466 877 443 903 q 535 834 488 850 q 648 819 581 819 q 696 821 671 819 q 794 834 748 829 q 808 836 802 836 q 852 816 836 836 q 868 771 868 797 q 856 733 868 750 q 819 712 843 717 q 696 691 759 699 q 493 600 569 656 q 386 481 416 543 q 355 362 355 419 q 365 303 355 328 q 448 226 386 251 q 594 201 511 201 q 746 220 671 201 q 863 271 821 239 q 981 463 981 359 q 975 508 981 485 q 966 533 973 516 q 956 569 956 559 q 993 592 956 591 l 1002 592 q 1088 577 1048 592 q 1159 534 1129 562 m 565 1357 q 525 1338 547 1338 q 497 1349 509 1338 q 486 1377 486 1360 q 503 1413 486 1396 l 673 1590 q 715 1609 692 1609 q 748 1590 739 1609 l 844 1413 q 848 1394 848 1404 q 829 1355 848 1373 q 789 1338 810 1338 q 757 1357 767 1338 l 688 1484 l 565 1357 z "},"Ë":{"ha":1269,"x_min":-1,"x_max":1201,"o":"m 1159 534 q 1201 446 1201 496 q 1129 300 1201 378 q 939 153 1057 222 q 686 43 821 85 q 433 1 551 1 q 411 0 422 0 q 196 42 288 0 q 56 154 104 83 q 7 309 7 224 q 45 457 7 382 q 162 601 83 532 q 357 722 240 670 q 250 798 287 751 q 212 899 212 844 q 239 989 212 945 q 158 947 191 973 q 113 878 125 920 q 111 865 112 874 q 106 848 109 853 q 96 842 103 842 q 81 847 90 842 q 8 930 26 878 q 0 977 0 956 q 41 1058 0 1029 q 151 1105 81 1087 q 624 1198 361 1161 q 1055 1236 886 1235 q 1143 1211 1107 1236 q 1178 1123 1178 1185 l 1178 1113 q 1168 1029 1177 1082 q 1149 964 1160 976 q 1138 956 1143 956 q 1126 966 1131 956 q 1019 1049 1101 1022 q 810 1077 937 1077 q 644 1067 733 1077 q 536 1043 582 1063 q 467 994 490 1023 q 443 933 443 964 q 466 877 443 903 q 535 834 488 850 q 648 819 581 819 q 696 821 671 819 q 794 834 748 829 q 808 836 802 836 q 852 816 836 836 q 868 771 868 797 q 856 733 868 750 q 819 712 843 717 q 696 691 759 699 q 493 600 569 656 q 386 481 416 543 q 355 362 355 419 q 365 303 355 328 q 448 226 386 251 q 594 201 511 201 q 746 220 671 201 q 863 271 821 239 q 981 463 981 359 q 975 508 981 485 q 966 533 973 516 q 956 569 956 559 q 993 592 956 591 l 1002 592 q 1088 577 1048 592 q 1159 534 1129 562 m 602 1546 q 663 1522 639 1546 q 686 1464 686 1499 q 684 1442 686 1453 q 638 1368 675 1398 q 558 1338 601 1338 q 497 1361 521 1338 q 474 1420 474 1384 q 476 1442 474 1431 q 522 1515 486 1485 q 602 1546 559 1546 m 862 1546 q 923 1522 899 1546 q 947 1463 947 1499 q 944 1442 947 1453 q 898 1368 935 1398 q 818 1338 861 1338 q 757 1361 781 1338 q 734 1420 734 1384 q 736 1442 734 1431 q 782 1515 745 1485 q 862 1546 819 1546 z "},"Ì":{"ha":908,"x_min":0,"x_max":841,"o":"m 578 -176 q 387 -295 486 -254 q 203 -336 288 -336 q 75 -302 126 -336 q 0 -144 0 -250 q 36 29 0 -67 q 119 209 73 125 q 229 394 166 292 q 262 448 253 432 q 403 697 336 570 q 519 942 471 823 q 567 1130 567 1061 q 559 1174 567 1157 q 555 1181 557 1177 q 545 1211 545 1202 q 576 1232 545 1227 q 619 1235 597 1235 q 702 1225 661 1235 q 768 1196 742 1215 q 841 1060 841 1151 q 822 955 841 1012 q 772 839 803 898 q 707 724 742 780 q 629 608 671 668 q 619 593 626 604 q 500 414 553 498 q 407 234 448 331 q 365 63 365 138 q 387 -25 365 11 q 441 -73 405 -54 q 515 -93 477 -93 q 543 -90 529 -93 q 581 -84 564 -84 q 611 -92 601 -84 q 622 -112 622 -99 q 611 -142 622 -125 q 578 -176 600 -159 m 578 1497 q 634 1580 590 1550 q 731 1609 679 1609 q 808 1587 777 1609 q 839 1522 839 1564 q 836 1497 839 1510 l 825 1443 q 781 1361 813 1390 q 712 1331 748 1331 l 711 1331 q 613 1375 651 1333 q 576 1470 576 1418 q 578 1497 576 1484 z "},"Í":{"ha":967,"x_min":0,"x_max":899,"o":"m 578 -176 q 387 -295 486 -254 q 203 -336 288 -336 q 75 -302 126 -336 q 0 -144 0 -250 q 36 29 0 -67 q 119 209 73 125 q 229 394 166 292 q 262 448 253 432 q 403 697 336 570 q 519 942 471 823 q 567 1130 567 1061 q 559 1174 567 1157 q 555 1181 557 1177 q 545 1211 545 1202 q 576 1232 545 1227 q 619 1235 597 1235 q 702 1225 661 1235 q 768 1196 742 1215 q 841 1060 841 1151 q 822 955 841 1012 q 772 839 803 898 q 707 724 742 780 q 629 608 671 668 q 619 593 626 604 q 500 414 553 498 q 407 234 448 331 q 365 63 365 138 q 387 -25 365 11 q 441 -73 405 -54 q 515 -93 477 -93 q 543 -90 529 -93 q 581 -84 564 -84 q 611 -92 601 -84 q 622 -112 622 -99 q 611 -142 622 -125 q 578 -176 600 -159 m 896 1503 q 899 1476 899 1490 q 861 1381 899 1424 q 764 1337 823 1339 l 762 1337 q 694 1367 727 1337 q 650 1449 661 1396 l 638 1503 q 635 1527 635 1516 q 667 1592 635 1569 q 744 1615 698 1615 q 841 1586 796 1615 q 896 1503 885 1556 z "},"Î":{"ha":985,"x_min":0,"x_max":918,"o":"m 578 -176 q 387 -295 486 -254 q 203 -336 288 -336 q 75 -302 126 -336 q 0 -144 0 -250 q 36 29 0 -67 q 119 209 73 125 q 229 394 166 292 q 262 448 253 432 q 403 697 336 570 q 519 942 471 823 q 567 1130 567 1061 q 559 1174 567 1157 q 555 1181 557 1177 q 545 1211 545 1202 q 576 1232 545 1227 q 619 1235 597 1235 q 702 1225 661 1235 q 768 1196 742 1215 q 841 1060 841 1151 q 822 955 841 1012 q 772 839 803 898 q 707 724 742 780 q 629 608 671 668 q 619 593 626 604 q 500 414 553 498 q 407 234 448 331 q 365 63 365 138 q 387 -25 365 11 q 441 -73 405 -54 q 515 -93 477 -93 q 543 -90 529 -93 q 581 -84 564 -84 q 611 -92 601 -84 q 622 -112 622 -99 q 611 -142 622 -125 q 578 -176 600 -159 m 633 1356 q 594 1337 615 1337 q 566 1349 577 1337 q 554 1376 554 1360 q 571 1413 554 1395 l 742 1590 q 783 1608 760 1608 q 817 1589 806 1608 l 912 1413 q 917 1393 917 1403 q 898 1355 917 1372 q 857 1337 879 1337 q 825 1356 836 1337 l 757 1484 l 633 1356 z "},"Ï":{"ha":1045,"x_min":0,"x_max":978,"o":"m 578 -176 q 387 -295 486 -254 q 203 -336 288 -336 q 75 -302 126 -336 q 0 -144 0 -250 q 36 29 0 -67 q 119 209 73 125 q 229 394 166 292 q 262 448 253 432 q 403 697 336 570 q 519 942 471 823 q 567 1130 567 1061 q 559 1174 567 1157 q 555 1181 557 1177 q 545 1211 545 1202 q 576 1232 545 1227 q 619 1235 597 1235 q 702 1225 661 1235 q 768 1196 742 1215 q 841 1060 841 1151 q 822 955 841 1012 q 772 839 803 898 q 707 724 742 780 q 629 608 671 668 q 619 593 626 604 q 500 414 553 498 q 407 234 448 331 q 365 63 365 138 q 387 -25 365 11 q 441 -73 405 -54 q 515 -93 477 -93 q 543 -90 529 -93 q 581 -84 564 -84 q 611 -92 601 -84 q 622 -112 622 -99 q 611 -142 622 -125 q 578 -176 600 -159 m 633 1546 q 693 1522 670 1546 q 717 1463 717 1499 q 715 1441 717 1452 q 669 1368 705 1398 q 589 1337 632 1337 q 529 1361 552 1337 q 505 1419 505 1384 q 507 1441 505 1430 q 553 1515 517 1485 q 633 1546 590 1546 m 893 1546 q 954 1522 930 1546 q 977 1463 977 1499 q 975 1441 977 1452 q 929 1368 966 1398 q 849 1337 892 1337 q 788 1361 812 1337 q 765 1419 765 1384 q 767 1441 765 1430 q 813 1515 777 1485 q 893 1546 850 1546 z "},"Ð":{"ha":1702,"x_min":0,"x_max":1634,"o":"m 1137 1236 q 1410 1187 1298 1236 q 1577 1049 1521 1139 q 1634 838 1634 960 q 1601 640 1634 746 q 1504 417 1569 533 q 1272 83 1410 247 q 975 -201 1133 -81 q 807 -300 890 -263 q 658 -336 724 -336 q 533 -271 570 -336 q 497 -185 513 -243 q 480 -83 480 -127 q 481 -62 480 -71 q 500 -35 486 -35 q 526 -44 507 -35 q 557 -56 546 -54 q 631 -62 593 -62 q 888 10 758 -62 q 1127 216 1018 82 q 1303 525 1237 349 q 1344 737 1344 635 q 1312 898 1344 827 q 1223 1007 1280 968 q 1095 1046 1166 1046 q 953 1009 1027 1046 q 807 898 880 972 q 851 901 821 899 q 898 905 882 904 q 949 908 925 908 q 1069 881 1032 908 q 1107 804 1107 853 q 1085 712 1107 764 q 1034 612 1063 661 q 962 500 1004 563 q 939 464 955 490 q 1050 493 1000 471 q 1129 550 1101 514 q 1145 562 1138 562 q 1156 553 1152 562 q 1159 536 1159 548 q 1139 434 1159 500 q 1062 323 1115 357 q 949 289 1009 289 l 841 289 q 802 188 816 235 q 787 101 787 140 q 798 46 787 70 q 801 34 801 39 q 781 20 801 20 q 654 39 702 20 q 585 90 606 57 q 564 167 564 122 q 589 284 564 216 q 479 255 528 276 q 404 199 431 233 q 386 187 394 187 q 376 195 380 187 q 373 212 373 200 q 379 262 373 232 q 393 315 386 292 q 397 323 394 317 q 320 368 352 338 q 258 494 258 416 q 287 614 258 549 q 369 748 316 678 q 151 729 224 729 q 117 730 133 729 q 34 757 67 732 q 0 838 0 782 q 1 859 0 848 q 16 925 3 881 q 40 981 28 969 q 52 988 46 988 q 63 978 59 988 q 471 884 91 884 l 490 884 q 705 1060 587 979 q 936 1188 822 1141 q 1137 1236 1050 1236 m 780 638 q 814 732 814 694 q 792 778 814 762 q 724 793 770 793 l 715 793 q 572 595 640 702 q 509 446 528 526 q 583 459 545 459 l 676 459 q 722 538 691 485 q 780 638 762 607 z "},"Ñ":{"ha":1636,"x_min":-1,"x_max":1569,"o":"m 945 810 q 867 694 893 735 q 1030 842 912 739 q 1159 957 1111 912 q 1244 1043 1208 1001 q 1286 1112 1280 1084 q 1293 1173 1292 1135 q 1303 1219 1293 1204 q 1349 1235 1313 1235 q 1517 1184 1453 1235 q 1568 1075 1568 1143 q 1546 971 1568 1029 q 1492 854 1525 913 q 1402 699 1459 795 q 1310 541 1346 606 q 1243 410 1273 477 q 1125 93 1171 252 q 1080 -204 1080 -66 q 1166 -494 1080 -385 q 1190 -541 1190 -523 q 1152 -570 1190 -564 q 1116 -573 1137 -573 q 1008 -562 1067 -573 q 918 -534 950 -550 q 820 -429 852 -500 q 787 -256 787 -358 q 820 -18 787 -150 q 912 258 853 115 q 1050 545 971 402 q 1220 815 1129 687 q 1123 721 1173 767 q 995 608 1072 675 q 823 454 889 516 q 699 318 758 391 q 604 165 640 244 q 580 68 580 106 q 589 28 580 45 q 593 15 593 21 q 570 0 593 0 q 467 40 523 0 q 382 182 382 101 q 395 252 382 215 q 432 330 408 288 q 559 541 475 407 q 656 699 618 634 q 731 837 694 763 q 770 966 770 917 q 759 1007 770 994 q 726 1021 747 1021 q 661 999 699 1021 q 582 937 623 977 q 311 595 435 789 q 262 496 281 551 q 243 399 243 441 l 243 393 q 252 357 243 380 q 258 329 258 337 q 251 314 258 319 q 224 309 243 309 l 221 309 q 132 324 174 309 q 59 368 90 339 q 0 486 0 413 q 64 665 0 565 q 232 865 127 764 q 457 1050 336 966 q 689 1185 578 1135 q 874 1236 800 1236 l 876 1236 q 1009 1184 960 1235 q 1057 1059 1057 1133 q 1013 912 1057 985 q 945 810 993 880 m 1060 1314 q 1027 1305 1044 1305 q 986 1320 1003 1305 q 968 1354 968 1335 q 994 1390 968 1376 q 1082 1413 1036 1413 q 1122 1410 1103 1413 q 1171 1400 1142 1407 q 1173 1399 1173 1399 q 1224 1390 1208 1390 q 1242 1393 1235 1390 q 1271 1400 1256 1400 q 1312 1384 1295 1400 q 1329 1350 1329 1369 q 1299 1312 1329 1325 q 1226 1296 1264 1296 q 1187 1300 1206 1296 q 1139 1310 1167 1303 q 1135 1311 1138 1310 q 1085 1319 1100 1319 q 1060 1314 1069 1319 z "},"Ò":{"ha":1534,"x_min":0,"x_max":1467,"o":"m 1066 892 q 1177 916 1107 916 q 1311 892 1244 916 q 1422 821 1378 868 q 1467 707 1467 773 q 1466 687 1467 697 q 1400 471 1455 591 q 1258 244 1344 352 q 1070 68 1172 136 q 869 1 968 1 q 628 83 725 1 q 509 316 532 165 q 502 417 502 366 q 505 490 502 454 q 303 446 394 473 q 156 385 212 418 q 94 317 100 352 q 83 305 91 305 q 71 311 78 305 q 34 393 59 321 q 4 489 9 464 q 0 526 0 509 q 106 631 0 612 q 416 648 208 648 q 530 646 470 648 q 648 937 568 802 q 844 1154 728 1072 q 1099 1236 960 1236 q 1218 1198 1171 1236 q 1286 1102 1265 1159 q 1308 987 1308 1044 q 1298 963 1308 972 q 1277 954 1289 954 q 1256 963 1265 954 q 1158 996 1210 996 q 1026 946 1093 996 q 904 813 960 895 q 810 636 848 730 q 838 635 820 636 q 865 633 857 633 q 951 784 896 713 q 1066 892 1007 855 m 1152 439 q 1215 639 1215 560 q 1198 700 1215 679 q 1156 722 1182 722 q 1092 693 1124 722 q 1038 612 1059 664 q 1103 564 1082 595 q 1125 494 1125 532 q 1107 425 1125 458 q 1056 371 1088 391 q 984 350 1024 350 q 933 359 959 350 q 861 414 884 376 q 838 504 838 452 l 838 516 q 772 515 794 516 q 757 399 757 452 q 774 308 757 345 q 827 259 791 271 q 880 250 852 250 q 1028 301 950 250 q 1152 439 1105 352 m 943 1497 q 999 1580 954 1550 q 1095 1609 1043 1609 q 1172 1587 1141 1609 q 1203 1522 1203 1564 q 1200 1497 1203 1510 l 1189 1443 q 1145 1361 1177 1390 q 1076 1331 1112 1331 l 1075 1331 q 978 1375 1015 1333 q 940 1470 940 1418 q 943 1497 940 1484 z "},"Ó":{"ha":1534,"x_min":0,"x_max":1466,"o":"m 1066 892 q 1177 916 1107 916 q 1311 892 1244 916 q 1422 821 1378 868 q 1466 707 1466 773 q 1465 687 1466 697 q 1399 471 1455 591 q 1258 244 1344 352 q 1070 68 1172 136 q 869 1 968 1 q 628 83 725 1 q 509 316 532 165 q 502 417 502 366 q 505 490 502 454 q 303 446 394 473 q 156 385 212 418 q 94 317 100 352 q 83 305 91 305 q 71 311 78 305 q 34 393 59 321 q 4 489 9 464 q 0 526 0 509 q 106 631 0 612 q 416 648 208 648 q 530 646 470 648 q 648 937 568 802 q 844 1154 728 1072 q 1099 1236 960 1236 q 1218 1198 1171 1236 q 1286 1102 1265 1159 q 1308 987 1308 1044 q 1298 963 1308 972 q 1277 954 1289 954 q 1256 963 1265 954 q 1158 996 1210 996 q 1026 946 1093 996 q 904 813 960 895 q 810 636 848 730 q 838 635 820 636 q 865 633 857 633 q 951 784 896 713 q 1066 892 1007 855 m 1152 439 q 1215 639 1215 560 q 1198 700 1215 679 q 1156 722 1182 722 q 1092 693 1124 722 q 1038 612 1059 664 q 1103 564 1082 595 q 1125 494 1125 532 q 1107 425 1125 458 q 1056 371 1088 391 q 984 350 1024 350 q 933 359 959 350 q 861 414 884 376 q 838 504 838 452 l 838 516 q 772 515 794 516 q 757 399 757 452 q 774 308 757 345 q 827 259 791 271 q 880 250 852 250 q 1028 301 950 250 q 1152 439 1105 352 m 1227 1503 q 1230 1476 1230 1490 q 1192 1381 1230 1424 q 1095 1337 1154 1339 l 1093 1337 q 1025 1367 1057 1337 q 981 1449 992 1396 l 969 1503 q 966 1528 966 1516 q 998 1593 966 1570 q 1074 1615 1029 1615 q 1171 1586 1126 1615 q 1227 1503 1215 1556 z "},"Ô":{"ha":1534,"x_min":0,"x_max":1467,"o":"m 1066 892 q 1177 916 1107 916 q 1311 892 1244 916 q 1422 821 1378 868 q 1467 707 1467 773 q 1466 687 1467 697 q 1400 471 1455 591 q 1258 244 1344 352 q 1070 68 1172 136 q 869 1 968 1 q 628 83 725 1 q 509 316 532 165 q 502 417 502 366 q 505 490 502 454 q 303 446 394 473 q 156 385 212 418 q 94 317 100 352 q 83 305 91 305 q 71 311 78 305 q 34 393 59 321 q 4 489 9 464 q 0 526 0 509 q 106 631 0 612 q 416 648 208 648 q 530 646 470 648 q 648 937 568 802 q 844 1154 728 1072 q 1099 1236 960 1236 q 1218 1198 1171 1236 q 1286 1102 1265 1159 q 1308 987 1308 1044 q 1298 963 1308 972 q 1277 954 1289 954 q 1256 963 1265 954 q 1158 996 1210 996 q 1026 946 1093 996 q 904 813 960 895 q 810 636 848 730 q 838 635 820 636 q 865 633 857 633 q 951 784 896 713 q 1066 892 1007 855 m 1152 439 q 1215 639 1215 560 q 1198 700 1215 679 q 1156 722 1182 722 q 1092 693 1124 722 q 1038 612 1059 664 q 1103 564 1082 595 q 1125 494 1125 532 q 1107 425 1125 458 q 1056 371 1088 391 q 984 350 1024 350 q 933 359 959 350 q 861 414 884 376 q 838 504 838 452 l 838 516 q 772 515 794 516 q 757 399 757 452 q 774 308 757 345 q 827 259 791 271 q 880 250 852 250 q 1028 301 950 250 q 1152 439 1105 352 m 931 1356 q 892 1337 913 1337 q 863 1349 875 1337 q 852 1376 852 1360 q 869 1413 852 1395 l 1040 1590 q 1080 1608 1057 1608 q 1114 1589 1105 1608 l 1210 1413 q 1215 1394 1215 1403 q 1195 1355 1215 1372 q 1155 1337 1176 1337 q 1123 1356 1133 1337 l 1054 1484 l 931 1356 z "},"Õ":{"ha":1534,"x_min":0,"x_max":1467,"o":"m 1066 892 q 1177 916 1107 916 q 1311 892 1244 916 q 1422 821 1378 868 q 1467 707 1467 773 q 1466 687 1467 697 q 1400 471 1455 591 q 1258 244 1344 352 q 1070 68 1172 136 q 869 1 968 1 q 628 83 725 1 q 509 316 532 165 q 502 417 502 366 q 505 490 502 454 q 303 446 394 473 q 156 385 212 418 q 94 317 100 352 q 83 305 91 305 q 71 311 78 305 q 34 393 59 321 q 4 489 9 464 q 0 526 0 509 q 106 631 0 612 q 416 648 208 648 q 530 646 470 648 q 648 937 568 802 q 844 1154 728 1072 q 1099 1236 960 1236 q 1218 1198 1171 1236 q 1286 1102 1265 1159 q 1308 987 1308 1044 q 1298 963 1308 972 q 1277 954 1289 954 q 1256 963 1265 954 q 1158 996 1210 996 q 1026 946 1093 996 q 904 813 960 895 q 810 636 848 730 q 838 635 820 636 q 865 633 857 633 q 951 784 896 713 q 1066 892 1007 855 m 1152 439 q 1215 639 1215 560 q 1198 700 1215 679 q 1156 722 1182 722 q 1092 693 1124 722 q 1038 612 1059 664 q 1103 564 1082 595 q 1125 494 1125 532 q 1107 425 1125 458 q 1056 371 1088 391 q 984 350 1024 350 q 933 359 959 350 q 861 414 884 376 q 838 504 838 452 l 838 516 q 772 515 794 516 q 757 399 757 452 q 774 308 757 345 q 827 259 791 271 q 880 250 852 250 q 1028 301 950 250 q 1152 439 1105 352 m 897 1432 q 864 1423 882 1423 q 823 1438 841 1423 q 806 1472 806 1453 q 831 1508 806 1494 q 920 1531 873 1531 q 960 1528 941 1531 q 1009 1518 980 1525 q 1010 1517 1010 1517 q 1062 1508 1046 1508 q 1079 1511 1073 1508 q 1108 1518 1093 1518 q 1149 1502 1132 1518 q 1166 1468 1166 1487 q 1136 1429 1166 1442 q 1064 1414 1101 1414 q 1025 1417 1044 1414 q 977 1428 1006 1421 q 922 1437 939 1437 q 897 1432 907 1437 z "},"Ö":{"ha":1534,"x_min":0,"x_max":1467,"o":"m 1066 892 q 1177 916 1107 916 q 1311 892 1244 916 q 1422 821 1378 868 q 1467 707 1467 773 q 1466 687 1467 697 q 1400 471 1455 591 q 1258 244 1344 352 q 1070 68 1172 136 q 869 1 968 1 q 628 83 725 1 q 509 316 532 165 q 502 417 502 366 q 505 490 502 454 q 303 446 394 473 q 156 385 212 418 q 94 317 100 352 q 83 305 91 305 q 71 311 78 305 q 34 393 59 321 q 4 489 9 464 q 0 526 0 509 q 106 631 0 612 q 416 648 208 648 q 530 646 470 648 q 648 937 568 802 q 844 1154 728 1072 q 1099 1236 960 1236 q 1218 1198 1171 1236 q 1286 1102 1265 1159 q 1308 987 1308 1044 q 1298 963 1308 972 q 1277 954 1289 954 q 1256 963 1265 954 q 1158 996 1210 996 q 1026 946 1093 996 q 904 813 960 895 q 810 636 848 730 q 838 635 820 636 q 865 633 857 633 q 951 784 896 713 q 1066 892 1007 855 m 1152 439 q 1215 639 1215 560 q 1198 700 1215 679 q 1156 722 1182 722 q 1092 693 1124 722 q 1038 612 1059 664 q 1103 564 1082 595 q 1125 494 1125 532 q 1107 425 1125 458 q 1056 371 1088 391 q 984 350 1024 350 q 933 359 959 350 q 861 414 884 376 q 838 504 838 452 l 838 516 q 772 515 794 516 q 757 399 757 452 q 774 308 757 345 q 827 259 791 271 q 880 250 852 250 q 1028 301 950 250 q 1152 439 1105 352 m 943 1546 q 1004 1522 981 1546 q 1028 1463 1028 1499 q 1025 1441 1028 1452 q 980 1368 1017 1398 q 899 1337 943 1337 q 839 1361 862 1337 q 815 1419 815 1384 q 817 1441 815 1430 q 864 1515 827 1485 q 943 1546 901 1546 m 1204 1546 q 1265 1522 1241 1546 q 1289 1463 1289 1499 q 1286 1441 1289 1452 q 1240 1368 1277 1398 q 1160 1337 1202 1337 q 1099 1361 1122 1337 q 1076 1419 1076 1384 q 1078 1441 1076 1430 q 1124 1515 1087 1485 q 1204 1546 1160 1546 z "},"×":{"ha":736,"x_min":68,"x_max":669,"o":"m 279 663 q 245 718 267 696 q 198 739 224 739 q 180 736 189 739 q 175 736 177 736 q 170 740 170 736 q 173 747 170 743 q 244 809 183 766 q 315 838 285 838 q 361 802 349 838 l 408 680 l 473 719 q 562 784 525 749 q 601 848 598 819 q 613 860 601 860 l 616 860 q 638 843 627 858 q 659 814 650 829 q 668 781 668 798 q 649 733 668 756 q 602 694 631 711 l 439 597 l 457 547 q 490 493 469 514 q 538 471 511 471 q 556 474 547 471 q 562 475 559 475 q 566 471 566 475 q 564 463 566 468 q 534 433 557 452 q 492 401 511 414 q 422 373 452 373 q 374 408 388 373 l 328 531 l 262 492 q 175 426 211 461 q 136 362 138 391 q 123 351 135 351 l 120 351 q 97 368 109 353 q 77 396 84 383 q 68 430 68 413 q 86 477 68 455 q 134 517 105 500 l 298 614 l 279 663 z "},"Ø":{"ha":1281,"x_min":-1,"x_max":1213,"o":"m 217 -128 q 127 -101 178 -128 q 38 -39 76 -74 q 0 14 0 -5 q 16 28 0 28 l 32 27 q 135 56 81 27 q 243 139 189 85 q 170 416 170 241 q 177 515 170 465 q 191 605 183 566 q 199 644 199 644 q 317 935 237 800 q 513 1152 397 1069 q 767 1234 629 1234 q 840 1221 806 1234 q 883 1296 863 1267 q 931 1343 903 1325 q 996 1361 958 1361 q 1091 1331 1040 1361 q 1164 1281 1126 1309 q 1210 1232 1201 1253 q 1213 1219 1213 1224 q 1196 1204 1213 1204 l 1181 1205 q 1073 1174 1129 1205 q 960 1084 1017 1142 q 976 985 976 1037 q 967 961 976 970 q 946 952 958 952 q 919 964 937 952 q 878 985 896 979 q 831 913 848 941 l 847 914 q 980 890 913 914 q 1091 819 1047 866 q 1135 705 1135 771 q 1134 685 1135 695 q 1068 469 1124 589 q 927 242 1013 350 q 739 66 841 134 q 537 -1 637 -1 q 381 28 452 -1 l 353 -27 q 217 -128 299 -128 m 534 631 q 618 780 565 709 l 704 950 q 578 818 637 903 q 479 634 519 733 l 534 631 m 441 513 q 426 396 426 449 q 483 509 441 425 q 486 514 485 513 q 441 513 465 514 m 549 248 q 696 299 618 248 q 820 437 774 350 q 884 637 884 558 q 867 698 884 677 q 824 720 850 720 q 760 691 793 720 q 706 610 727 662 q 772 562 751 593 q 794 492 794 530 q 776 423 794 456 q 725 369 758 389 q 653 348 693 348 q 557 380 602 348 l 496 257 q 549 248 520 248 z "},"Ù":{"ha":1592,"x_min":0,"x_max":1525,"o":"m 1419 1171 q 1525 1013 1525 1110 q 1499 903 1525 962 q 1435 783 1473 843 q 1329 627 1396 723 q 1213 456 1251 515 q 1105 240 1139 340 q 1071 71 1071 140 q 1084 3 1071 26 q 1087 -9 1087 -4 q 1067 -23 1087 -23 q 945 -9 999 -23 q 867 27 891 4 q 838 106 838 54 q 879 270 838 168 q 496 -26 642 -19 q 481 -26 488 -26 q 362 18 399 -26 q 326 138 326 62 q 345 266 326 196 q 392 399 364 336 q 447 503 420 462 q 579 736 536 642 q 622 874 622 829 q 593 912 622 912 q 483 849 555 912 q 330 677 410 786 q 263 551 288 623 q 239 414 239 479 q 250 339 239 372 q 252 332 250 336 q 258 304 258 312 q 251 290 258 295 q 224 284 243 285 l 218 284 q 131 300 172 284 q 59 344 89 315 q 0 462 0 389 q 45 609 0 528 q 168 774 91 690 q 340 938 245 859 q 534 1077 436 1016 q 722 1174 633 1138 q 873 1211 812 1211 l 876 1211 q 963 1192 933 1211 q 992 1128 992 1173 q 964 1017 992 1086 q 876 847 936 948 q 721 606 816 745 q 671 507 688 553 q 654 427 654 461 q 673 368 654 389 q 724 347 692 347 q 795 366 755 347 q 883 425 836 385 q 984 529 931 465 q 1091 677 1037 592 q 1202 910 1161 806 q 1242 1086 1242 1014 q 1240 1122 1242 1105 q 1226 1156 1238 1134 q 1216 1186 1216 1177 q 1248 1208 1216 1203 q 1288 1211 1268 1211 q 1419 1171 1363 1211 m 995 1497 q 1050 1580 1006 1550 q 1147 1609 1095 1609 q 1224 1586 1193 1609 q 1255 1521 1255 1563 q 1253 1497 1255 1510 l 1241 1443 q 1197 1361 1230 1390 q 1128 1331 1164 1331 l 1127 1331 q 1029 1375 1067 1333 q 991 1469 991 1417 q 995 1497 991 1483 z "},"Ú":{"ha":1592,"x_min":0,"x_max":1525,"o":"m 1419 1171 q 1525 1013 1525 1110 q 1499 903 1525 962 q 1435 783 1473 843 q 1329 627 1396 723 q 1213 456 1251 515 q 1105 240 1139 340 q 1071 71 1071 140 q 1084 3 1071 26 q 1087 -9 1087 -4 q 1067 -23 1087 -23 q 945 -9 999 -23 q 867 27 891 4 q 838 106 838 54 q 879 270 838 168 q 496 -26 642 -19 q 481 -26 488 -26 q 362 18 399 -26 q 326 138 326 62 q 345 266 326 196 q 392 399 364 336 q 447 503 420 462 q 579 736 536 642 q 622 874 622 829 q 593 912 622 912 q 483 849 555 912 q 330 677 410 786 q 263 551 288 623 q 239 414 239 479 q 250 339 239 372 q 252 332 250 336 q 258 304 258 312 q 251 290 258 295 q 224 284 243 285 l 218 284 q 131 300 172 284 q 59 344 89 315 q 0 462 0 389 q 45 609 0 528 q 168 774 91 690 q 340 938 245 859 q 534 1077 436 1016 q 722 1174 633 1138 q 873 1211 812 1211 l 876 1211 q 963 1192 933 1211 q 992 1128 992 1173 q 964 1017 992 1086 q 876 847 936 948 q 721 606 816 745 q 671 507 688 553 q 654 427 654 461 q 673 368 654 389 q 724 347 692 347 q 795 366 755 347 q 883 425 836 385 q 984 529 931 465 q 1091 677 1037 592 q 1202 910 1161 806 q 1242 1086 1242 1014 q 1240 1122 1242 1105 q 1226 1156 1238 1134 q 1216 1186 1216 1177 q 1248 1208 1216 1203 q 1288 1211 1268 1211 q 1419 1171 1363 1211 m 1201 1503 q 1204 1476 1204 1490 q 1166 1381 1204 1424 q 1069 1337 1128 1339 l 1067 1337 q 999 1367 1031 1337 q 955 1449 966 1396 l 943 1503 q 941 1528 941 1516 q 971 1593 941 1570 q 1048 1615 1002 1615 q 1145 1586 1101 1615 q 1201 1503 1190 1556 z "},"Û":{"ha":1592,"x_min":0,"x_max":1525,"o":"m 1419 1171 q 1525 1013 1525 1110 q 1499 903 1525 962 q 1435 783 1473 843 q 1329 627 1396 723 q 1213 456 1251 515 q 1105 240 1139 340 q 1071 71 1071 140 q 1084 3 1071 26 q 1087 -9 1087 -4 q 1067 -23 1087 -23 q 945 -9 999 -23 q 867 27 891 4 q 838 106 838 54 q 879 270 838 168 q 496 -26 642 -19 q 481 -26 488 -26 q 362 18 399 -26 q 326 138 326 62 q 345 266 326 196 q 392 399 364 336 q 447 503 420 462 q 579 736 536 642 q 622 874 622 829 q 593 912 622 912 q 483 849 555 912 q 330 677 410 786 q 263 551 288 623 q 239 414 239 479 q 250 339 239 372 q 252 332 250 336 q 258 304 258 312 q 251 290 258 295 q 224 284 243 285 l 218 284 q 131 300 172 284 q 59 344 89 315 q 0 462 0 389 q 45 609 0 528 q 168 774 91 690 q 340 938 245 859 q 534 1077 436 1016 q 722 1174 633 1138 q 873 1211 812 1211 l 876 1211 q 963 1192 933 1211 q 992 1128 992 1173 q 964 1017 992 1086 q 876 847 936 948 q 721 606 816 745 q 671 507 688 553 q 654 427 654 461 q 673 368 654 389 q 724 347 692 347 q 795 366 755 347 q 883 425 836 385 q 984 529 931 465 q 1091 677 1037 592 q 1202 910 1161 806 q 1242 1086 1242 1014 q 1240 1122 1242 1105 q 1226 1156 1238 1134 q 1216 1186 1216 1177 q 1248 1208 1216 1203 q 1288 1211 1268 1211 q 1419 1171 1363 1211 m 969 1356 q 929 1337 951 1337 q 901 1349 912 1337 q 889 1376 889 1360 q 906 1413 889 1395 l 1077 1590 q 1118 1608 1095 1608 q 1152 1589 1142 1608 l 1247 1413 q 1252 1393 1252 1403 q 1233 1354 1252 1371 q 1192 1337 1214 1337 q 1161 1356 1171 1337 l 1092 1484 l 969 1356 z "},"Ü":{"ha":1592,"x_min":0,"x_max":1525,"o":"m 1419 1171 q 1525 1013 1525 1110 q 1499 903 1525 962 q 1435 783 1473 843 q 1329 627 1396 723 q 1213 456 1251 515 q 1105 240 1139 340 q 1071 71 1071 140 q 1084 3 1071 26 q 1087 -9 1087 -4 q 1067 -23 1087 -23 q 945 -9 999 -23 q 867 27 891 4 q 838 106 838 54 q 879 270 838 168 q 496 -26 642 -19 q 481 -26 488 -26 q 362 18 399 -26 q 326 138 326 62 q 345 266 326 196 q 392 399 364 336 q 447 503 420 462 q 579 736 536 642 q 622 874 622 829 q 593 912 622 912 q 483 849 555 912 q 330 677 410 786 q 263 551 288 623 q 239 414 239 479 q 250 339 239 372 q 252 332 250 336 q 258 304 258 312 q 251 290 258 295 q 224 284 243 285 l 218 284 q 131 300 172 284 q 59 344 89 315 q 0 462 0 389 q 45 609 0 528 q 168 774 91 690 q 340 938 245 859 q 534 1077 436 1016 q 722 1174 633 1138 q 873 1211 812 1211 l 876 1211 q 963 1192 933 1211 q 992 1128 992 1173 q 964 1017 992 1086 q 876 847 936 948 q 721 606 816 745 q 671 507 688 553 q 654 427 654 461 q 673 368 654 389 q 724 347 692 347 q 795 366 755 347 q 883 425 836 385 q 984 529 931 465 q 1091 677 1037 592 q 1202 910 1161 806 q 1242 1086 1242 1014 q 1240 1122 1242 1105 q 1226 1156 1238 1134 q 1216 1186 1216 1177 q 1248 1208 1216 1203 q 1288 1211 1268 1211 q 1419 1171 1363 1211 m 1014 1546 q 1075 1522 1051 1546 q 1098 1463 1098 1499 q 1096 1441 1098 1452 q 1049 1368 1086 1398 q 970 1337 1013 1337 q 909 1361 932 1337 q 885 1420 885 1384 q 888 1441 885 1430 q 934 1515 897 1485 q 1014 1546 971 1546 m 1274 1546 q 1335 1522 1312 1546 q 1358 1463 1358 1499 q 1356 1441 1358 1452 q 1310 1368 1347 1398 q 1230 1337 1273 1337 q 1169 1361 1193 1337 q 1145 1419 1145 1384 q 1148 1441 1145 1430 q 1194 1515 1157 1485 q 1274 1546 1231 1546 z "},"Ý":{"ha":1630,"x_min":0,"x_max":1563,"o":"m 1468 1171 q 1563 1006 1563 1111 q 1524 851 1563 936 q 1429 683 1485 766 q 1284 479 1374 601 q 1215 385 1237 416 q 1139 278 1173 328 q 1064 164 1105 229 q 990 33 1024 100 q 932 -102 956 -33 q 909 -222 909 -170 q 931 -308 909 -273 q 982 -344 945 -331 q 1061 -357 1019 -357 q 1108 -351 1087 -357 q 1147 -346 1130 -346 q 1177 -353 1166 -346 q 1187 -373 1187 -360 q 1176 -404 1187 -387 q 1143 -438 1164 -420 q 951 -556 1050 -515 q 768 -598 852 -598 q 640 -563 691 -598 q 580 -424 580 -522 q 644 -159 580 -317 q 819 199 709 0 q 496 -26 623 -20 q 481 -26 488 -26 q 362 18 399 -26 q 326 138 326 62 q 345 266 326 196 q 392 399 364 336 q 447 503 420 462 q 579 736 536 642 q 622 874 622 829 q 593 912 622 912 q 483 849 555 912 q 330 677 410 786 q 263 551 288 623 q 239 414 239 479 q 250 339 239 372 q 252 332 250 336 q 258 304 258 312 q 251 290 258 295 q 224 284 243 285 l 218 284 q 131 300 172 284 q 59 344 89 315 q 0 462 0 389 q 45 609 0 528 q 168 774 91 690 q 340 938 245 859 q 534 1077 436 1016 q 722 1174 633 1138 q 873 1211 812 1211 l 876 1211 q 963 1192 933 1211 q 992 1128 992 1173 q 964 1017 992 1086 q 876 847 936 948 q 721 606 816 745 q 671 507 688 553 q 654 427 654 461 q 673 368 654 389 q 724 347 692 347 q 813 375 762 347 q 926 465 865 404 q 1055 622 987 526 q 1188 847 1122 718 q 1245 995 1225 929 q 1266 1105 1266 1061 q 1258 1149 1266 1133 q 1255 1156 1257 1152 q 1244 1186 1244 1177 q 1276 1208 1244 1203 q 1314 1211 1294 1211 q 1397 1200 1356 1211 q 1468 1171 1438 1190 m 1172 1503 q 1175 1476 1175 1490 q 1137 1381 1175 1424 q 1040 1337 1099 1339 l 1038 1337 q 970 1367 1002 1337 q 926 1449 937 1396 l 914 1503 q 911 1527 911 1516 q 943 1592 911 1569 q 1019 1615 974 1615 q 1117 1586 1072 1615 q 1172 1503 1161 1556 z "},"Ÿ":{"ha":1630,"x_min":0,"x_max":1563,"o":"m 1468 1171 q 1563 1006 1563 1111 q 1524 851 1563 936 q 1429 683 1485 766 q 1284 479 1374 601 q 1215 385 1237 416 q 1139 278 1173 328 q 1064 164 1105 229 q 990 33 1024 100 q 932 -102 956 -33 q 909 -222 909 -170 q 931 -308 909 -273 q 982 -344 945 -331 q 1061 -357 1019 -357 q 1108 -351 1087 -357 q 1147 -346 1130 -346 q 1177 -353 1166 -346 q 1187 -373 1187 -360 q 1176 -404 1187 -387 q 1143 -438 1164 -420 q 951 -556 1050 -515 q 768 -598 852 -598 q 640 -563 691 -598 q 580 -424 580 -522 q 644 -159 580 -317 q 819 199 709 0 q 496 -26 623 -20 q 481 -26 488 -26 q 362 18 399 -26 q 326 138 326 62 q 345 266 326 196 q 392 399 364 336 q 447 503 420 462 q 579 736 536 642 q 622 874 622 829 q 593 912 622 912 q 483 849 555 912 q 330 677 410 786 q 263 551 288 623 q 239 414 239 479 q 250 339 239 372 q 252 332 250 336 q 258 304 258 312 q 251 290 258 295 q 224 284 243 285 l 218 284 q 131 300 172 284 q 59 344 89 315 q 0 462 0 389 q 45 609 0 528 q 168 774 91 690 q 340 938 245 859 q 534 1077 436 1016 q 722 1174 633 1138 q 873 1211 812 1211 l 876 1211 q 963 1192 933 1211 q 992 1128 992 1173 q 964 1017 992 1086 q 876 847 936 948 q 721 606 816 745 q 671 507 688 553 q 654 427 654 461 q 673 368 654 389 q 724 347 692 347 q 813 375 762 347 q 926 465 865 404 q 1055 622 987 526 q 1188 847 1122 718 q 1245 995 1225 929 q 1266 1105 1266 1061 q 1258 1149 1266 1133 q 1255 1156 1257 1152 q 1244 1186 1244 1177 q 1276 1208 1244 1203 q 1314 1211 1294 1211 q 1397 1200 1356 1211 q 1468 1171 1438 1190 m 1061 1546 q 1122 1522 1099 1546 q 1145 1463 1145 1499 q 1143 1441 1145 1452 q 1097 1368 1134 1398 q 1017 1337 1060 1337 q 956 1361 980 1337 q 932 1419 932 1384 q 935 1441 932 1430 q 981 1515 944 1485 q 1061 1546 1018 1546 m 1322 1546 q 1382 1522 1358 1546 q 1405 1463 1405 1499 q 1403 1441 1405 1452 q 1357 1368 1394 1398 q 1277 1337 1320 1337 q 1217 1361 1240 1337 q 1193 1419 1193 1384 q 1196 1441 1193 1430 q 1241 1515 1204 1485 q 1322 1546 1278 1546 z "},"Þ":{"ha":1137,"x_min":68,"x_max":1070,"o":"m 1049 369 q 1069 224 1069 292 q 1013 29 1069 109 q 861 -92 957 -52 q 649 -132 766 -132 q 425 -96 537 -132 l 425 -96 l 421 -366 q 381 -490 418 -441 q 258 -539 345 -539 q 235 -538 248 -539 q 146 -525 195 -535 q 79 -500 96 -515 q 68 -482 68 -491 q 83 -466 68 -472 q 224 -304 170 -432 q 292 9 279 -176 q 296 102 296 54 l 297 159 l 304 704 l 305 818 l 309 1077 q 347 1201 311 1151 q 468 1251 382 1251 q 493 1249 480 1251 q 582 1237 531 1247 q 650 1211 633 1227 q 661 1193 661 1202 q 646 1177 661 1183 q 538 1078 584 1152 q 465 891 492 1004 q 455 842 459 868 l 465 842 q 661 792 559 838 q 838 685 764 746 q 970 539 916 621 q 1049 369 1025 458 m 770 167 q 813 316 813 223 q 771 507 813 409 q 655 669 728 605 q 495 733 582 733 l 484 733 q 444 728 465 732 q 439 726 441 726 q 433 610 434 669 l 427 102 l 427 52 q 481 49 453 49 q 647 79 567 49 q 770 167 726 110 z "},"ß":{"ha":1335,"x_min":0,"x_max":1267,"o":"m 1236 633 q 1267 522 1267 584 q 1223 361 1267 444 q 1119 212 1180 278 q 890 35 1030 115 q 894 115 894 71 q 889 218 894 162 q 954 319 932 267 q 975 421 975 371 q 962 495 975 460 q 905 569 943 545 q 817 593 867 593 q 673 551 748 593 q 548 441 598 509 q 498 302 498 374 l 498 292 q 498 243 498 282 q 498 73 498 141 q 510 -355 498 -247 q 566 -404 535 -386 q 581 -421 581 -410 q 568 -441 581 -431 q 526 -460 558 -452 q 525 -460 526 -460 q 447 -472 496 -468 q 446 -473 447 -473 q 444 -472 445 -473 q 412 -474 424 -474 l 406 -474 q 274 -416 311 -474 q 237 -271 237 -358 l 237 -264 l 244 -103 q 240 58 240 -26 q 247 267 240 171 q 265 403 254 363 q 346 602 291 495 q 459 800 401 709 q 566 956 518 891 q 574 966 568 960 q 604 1011 595 997 q 616 1044 612 1026 q 468 933 539 1009 q 278 685 370 826 q 237 600 254 646 q 220 517 220 553 l 220 511 q 228 480 221 500 q 234 456 234 463 q 204 439 234 439 l 199 439 q 124 452 159 439 q 62 490 88 465 q 0 608 0 537 q 86 799 0 694 q 310 1000 172 904 q 602 1159 448 1096 q 883 1231 755 1223 q 916 1232 900 1232 q 1060 1204 1000 1232 q 1151 1127 1120 1175 q 1181 1018 1181 1078 q 1140 873 1181 947 q 1019 736 1099 799 q 1236 633 1175 732 m 850 802 q 899 929 899 867 q 878 1003 899 970 q 819 1054 857 1036 q 734 1072 782 1072 q 660 1061 699 1072 q 754 961 754 1028 q 745 912 754 938 q 722 862 735 886 q 686 802 708 838 q 677 789 680 793 q 590 633 623 699 q 735 698 665 652 q 850 802 806 743 z "},"à":{"ha":829,"x_min":-76,"x_max":953,"o":"m 835 505 q 863 535 846 525 q 898 545 880 545 q 937 531 921 545 q 953 492 953 516 q 936 441 953 468 q 780 217 859 315 q 620 59 701 119 q 466 -1 539 0 l 464 -1 q 355 33 408 -1 q 277 135 303 66 q 187 35 237 68 q 89 1 137 1 l 83 1 q -37 54 2 5 q -75 184 -75 102 q -29 400 -75 279 q 95 632 18 521 q 263 812 172 743 q 439 882 355 882 q 572 823 507 882 q 628 866 593 850 q 700 882 663 882 q 773 856 744 882 q 803 781 803 831 q 770 658 803 730 q 665 491 737 586 q 562 335 589 389 q 543 277 543 300 q 551 255 543 262 q 573 248 559 248 q 616 260 592 248 q 665 294 641 272 q 835 505 765 394 m 456 530 q 500 656 500 610 q 492 685 500 675 q 470 695 484 695 q 417 673 448 695 q 354 611 387 652 q 289 520 317 566 q 223 404 261 475 q 220 399 222 401 q 195 342 203 368 q 187 300 187 317 q 197 268 187 279 q 224 258 207 258 q 298 291 256 258 q 371 379 340 323 l 456 530 m 441 1132 q 497 1215 453 1185 q 594 1244 542 1244 q 671 1221 640 1244 q 702 1156 702 1198 q 699 1132 702 1145 l 688 1078 q 644 996 677 1026 q 576 966 612 966 l 574 966 q 476 1010 514 968 q 439 1105 439 1053 q 441 1132 439 1118 z "},"á":{"ha":824,"x_min":-77,"x_max":952,"o":"m 834 505 q 863 535 846 525 q 897 545 880 545 q 936 531 920 545 q 952 492 952 516 q 935 441 952 468 q 780 217 859 315 q 620 59 701 119 q 465 -1 538 0 l 463 -1 q 355 33 407 -1 q 277 135 302 66 q 186 35 236 68 q 88 1 136 1 l 82 1 q -37 54 1 5 q -76 184 -76 102 q -30 400 -76 279 q 94 632 17 521 q 263 812 172 743 q 438 882 354 882 q 572 823 506 882 q 627 866 592 850 q 699 882 663 882 q 773 856 743 882 q 802 781 802 831 q 769 658 802 730 q 665 491 736 586 q 561 335 589 389 q 542 277 542 300 q 550 255 542 262 q 572 248 558 248 q 616 260 591 248 q 664 294 640 272 q 834 505 764 394 m 456 530 q 500 656 500 610 q 492 685 500 675 q 469 695 484 695 q 417 673 448 695 q 353 611 386 652 q 288 520 316 566 q 222 404 260 475 q 220 399 221 401 q 195 342 203 368 q 186 300 186 317 q 196 268 186 279 q 223 258 206 258 q 297 291 255 258 q 370 379 339 323 l 456 530 m 699 1138 q 701 1111 701 1124 q 664 1017 701 1059 q 566 972 626 974 l 565 972 q 496 1002 529 972 q 452 1084 463 1031 l 441 1138 q 438 1162 438 1151 q 469 1227 438 1204 q 546 1251 500 1251 q 643 1221 598 1251 q 699 1138 687 1191 z "},"â":{"ha":824,"x_min":-81,"x_max":947,"o":"m 829 505 q 858 535 841 525 q 892 545 875 545 q 931 531 916 545 q 947 492 947 516 q 930 441 947 468 q 775 217 854 315 q 615 59 696 119 q 460 -1 534 0 l 458 -1 q 350 33 402 -1 q 272 135 298 66 q 181 35 231 68 q 83 1 132 1 l 77 1 q -42 54 -3 5 q -81 184 -81 102 q -34 400 -81 279 q 90 632 12 521 q 258 812 167 743 q 433 882 349 882 q 567 823 501 882 q 623 866 587 850 q 694 882 658 882 q 768 856 739 882 q 798 781 798 831 q 765 658 798 730 q 660 491 732 586 q 556 335 584 389 q 537 277 537 300 q 545 255 537 262 q 568 248 553 248 q 611 260 587 248 q 659 294 635 272 q 829 505 760 394 m 451 530 q 495 656 495 610 q 487 685 495 675 q 465 695 479 695 q 412 673 443 695 q 349 611 381 652 q 283 520 311 566 q 218 404 256 475 q 215 399 216 401 q 190 342 198 367 q 181 299 181 317 q 191 268 181 279 q 218 258 201 258 q 292 291 250 258 q 366 379 334 323 l 451 530 m 474 991 q 434 972 456 972 q 406 984 418 972 q 395 1011 395 995 q 412 1048 395 1030 l 583 1224 q 624 1243 600 1243 q 657 1224 648 1243 l 753 1048 q 758 1028 758 1038 q 739 990 758 1007 q 698 972 720 972 q 666 991 676 972 l 597 1118 l 474 991 z "},"ã":{"ha":829,"x_min":-82,"x_max":947,"o":"m 829 505 q 857 535 840 525 q 892 545 874 545 q 931 531 915 545 q 947 492 947 516 q 930 441 947 468 q 774 217 853 315 q 614 59 695 119 q 460 -1 533 0 l 458 -1 q 349 33 401 -1 q 271 135 297 66 q 181 35 231 68 q 83 1 131 1 l 77 1 q -43 54 -4 5 q -81 184 -81 102 q -35 400 -81 279 q 89 632 12 521 q 257 812 166 743 q 433 882 349 882 q 566 823 500 882 q 622 866 587 850 q 694 882 657 882 q 767 856 738 882 q 797 781 797 831 q 764 658 797 730 q 659 491 731 586 q 555 335 583 389 q 536 277 536 300 q 545 255 536 262 q 567 248 553 248 q 610 260 586 248 q 659 294 635 272 q 829 505 759 394 m 450 530 q 494 656 494 610 q 486 685 494 675 q 464 695 478 695 q 411 673 442 695 q 348 611 380 652 q 283 520 311 566 q 217 404 255 475 q 214 399 216 401 q 189 342 197 368 q 181 300 181 317 q 191 268 181 279 q 218 258 201 258 q 292 291 250 258 q 365 379 334 323 l 450 530 m 488 1000 q 455 991 472 991 q 414 1006 431 991 q 397 1040 397 1021 q 422 1077 397 1063 q 511 1100 464 1100 q 551 1097 532 1100 q 601 1086 571 1093 q 602 1086 602 1086 q 654 1076 640 1076 q 669 1079 663 1076 q 699 1086 684 1086 q 740 1071 723 1086 q 756 1037 756 1056 q 726 998 756 1011 q 655 983 692 983 q 616 986 635 983 q 568 996 597 989 q 513 1006 530 1006 q 488 1000 498 1006 z "},"ä":{"ha":846,"x_min":-71,"x_max":958,"o":"m 840 505 q 869 535 852 525 q 903 545 886 545 q 942 531 926 545 q 958 492 958 516 q 941 441 958 468 q 786 217 865 315 q 626 59 707 119 q 471 -1 545 0 l 469 -1 q 361 33 413 -1 q 283 135 309 66 q 192 35 242 68 q 94 1 142 1 l 88 1 q -31 54 7 5 q -70 184 -70 102 q -23 400 -70 279 q 100 632 23 521 q 269 812 178 743 q 444 882 360 882 q 578 823 512 882 q 633 866 598 850 q 705 882 669 882 q 779 856 749 882 q 808 781 808 831 q 775 658 808 730 q 671 491 743 586 q 567 335 595 389 q 548 277 548 300 q 556 255 548 262 q 578 248 564 248 q 622 260 597 248 q 670 294 646 272 q 840 505 770 394 m 462 530 q 506 656 506 610 q 498 685 506 675 q 475 695 490 695 q 423 673 454 695 q 359 611 392 652 q 294 520 322 566 q 229 404 267 475 q 226 399 227 401 q 200 342 209 367 q 192 299 192 317 q 202 268 192 279 q 229 258 212 258 q 303 291 261 258 q 376 379 345 323 l 462 530 m 511 1180 q 572 1157 548 1180 q 595 1098 595 1134 q 593 1076 595 1087 q 547 1003 584 1033 q 467 972 509 972 q 406 996 429 972 q 382 1055 382 1019 q 385 1076 382 1065 q 431 1150 394 1120 q 511 1180 467 1180 m 770 1180 q 831 1157 808 1180 q 855 1098 855 1134 q 852 1076 855 1087 q 807 1003 844 1033 q 726 972 770 972 q 666 996 690 972 q 642 1055 642 1019 q 644 1076 642 1065 q 691 1150 654 1120 q 770 1180 728 1180 z "},"å":{"ha":808,"x_min":-87,"x_max":942,"o":"m 824 505 q 852 535 836 525 q 887 545 869 545 q 926 531 910 545 q 942 492 942 516 q 925 441 942 468 q 684 123 806 245 q 455 0 563 1 l 453 0 q 345 34 397 0 q 267 135 292 67 q 176 35 226 68 q 78 1 126 1 l 72 1 q -47 54 -9 5 q -86 184 -86 102 q -39 400 -86 279 q 85 632 7 522 q 253 813 162 743 q 428 882 344 882 q 562 823 496 882 q 617 866 582 850 q 688 882 652 882 q 763 857 733 882 q 792 781 792 831 q 761 661 792 730 q 654 491 730 591 q 551 335 579 391 q 532 278 532 300 q 540 256 532 263 q 562 248 548 248 q 606 260 581 248 q 654 294 630 272 q 824 505 753 393 m 446 530 q 479 603 468 571 q 490 656 490 635 q 481 686 490 675 q 459 696 473 696 q 407 674 437 696 q 343 612 376 652 q 277 518 304 565 q 210 399 249 472 q 176 300 176 337 q 185 269 176 279 q 213 258 195 258 q 287 291 244 258 q 360 379 329 323 q 446 530 417 479 m 610 1191 q 687 1160 657 1191 q 717 1084 717 1130 q 713 1056 717 1070 q 682 989 706 1020 q 623 939 657 958 q 553 920 589 920 q 476 951 505 920 q 446 1028 446 982 q 449 1056 446 1042 q 481 1123 456 1092 q 539 1172 505 1154 q 610 1191 574 1191 m 630 1056 q 631 1067 631 1062 q 621 1097 631 1085 q 592 1108 610 1108 q 554 1093 571 1108 q 532 1056 537 1077 q 531 1044 531 1050 q 542 1015 531 1027 q 570 1004 553 1004 q 608 1019 591 1004 q 630 1056 625 1034 z "},"æ":{"ha":1213,"x_min":-76,"x_max":1336,"o":"m 1218 505 q 1246 535 1229 525 q 1281 545 1263 545 q 1319 530 1303 545 q 1335 491 1335 515 q 1320 441 1335 468 q 1195 258 1246 325 q 718 0 999 0 q 578 34 638 0 q 466 0 520 0 l 464 0 q 355 34 407 0 q 277 135 302 67 q 186 35 236 68 q 87 1 136 1 l 83 1 q -37 54 2 5 q -75 185 -75 102 q -29 401 -75 280 q 95 632 18 522 q 263 812 172 743 q 438 882 354 882 l 439 882 q 572 823 506 882 q 628 866 593 850 q 699 882 663 882 q 749 872 726 882 q 786 843 772 863 q 960 882 873 882 q 1098 839 1052 882 q 1145 724 1145 795 q 1112 593 1145 663 q 1019 459 1080 524 q 879 351 959 395 q 739 296 814 315 q 817 263 770 273 q 869 258 842 258 q 1017 296 942 258 q 1152 411 1092 334 q 1218 505 1185 454 m 456 530 q 490 603 479 571 q 500 656 500 635 q 492 686 500 675 q 470 696 484 696 q 417 674 448 696 q 354 612 387 652 q 286 516 315 564 q 220 399 257 469 q 186 300 186 337 q 196 269 186 279 q 223 258 206 258 q 297 291 255 258 q 371 379 339 323 q 456 530 428 479 m 684 368 q 757 397 718 378 q 850 465 812 426 q 905 545 887 503 q 919 606 919 577 q 905 653 919 635 q 866 671 891 671 q 817 656 844 671 q 755 608 789 641 q 675 419 675 507 q 684 368 675 392 z "},"œ":{"ha":1310,"x_min":-50,"x_max":1423,"o":"m 1305 505 q 1334 535 1317 525 q 1369 545 1350 545 q 1407 530 1391 545 q 1423 492 1423 515 q 1407 441 1423 468 q 1282 258 1333 325 q 805 0 1086 0 q 644 46 713 0 q 536 168 574 92 q 373 45 461 90 q 199 1 284 1 q 67 36 123 1 q -19 136 11 72 q -50 281 -50 199 q -23 441 -50 358 q 36 574 -1 511 q 120 690 73 638 q 205 744 167 744 q 241 724 227 744 q 254 670 254 705 l 254 661 q 322 819 263 753 q 481 884 382 884 q 627 844 569 884 q 712 736 685 804 q 874 843 787 804 q 1046 882 960 882 q 1186 839 1139 882 q 1232 724 1232 795 q 1181 557 1232 646 q 1036 396 1129 468 q 825 296 943 325 q 955 258 878 258 q 1103 296 1028 258 q 1238 411 1179 334 q 1305 505 1270 451 m 280 252 q 429 322 356 252 q 304 441 349 364 q 252 604 258 517 q 206 540 226 575 q 175 475 186 505 q 163 396 163 437 q 192 293 163 335 q 280 252 220 252 m 526 473 q 537 550 537 517 q 518 619 537 596 q 470 642 498 642 q 416 618 440 642 q 391 562 391 595 q 411 503 391 534 q 472 441 430 472 q 501 427 493 427 q 512 434 508 427 q 522 463 516 441 q 526 473 525 470 m 770 368 q 884 420 836 387 q 962 493 932 453 q 995 552 983 522 q 1006 606 1006 581 q 992 653 1006 635 q 954 671 978 671 q 903 655 931 671 q 842 608 875 640 q 763 421 764 510 l 763 416 q 770 368 763 391 z "},"ç":{"ha":771,"x_min":-28,"x_max":895,"o":"m 777 505 q 805 535 788 525 q 840 545 823 545 q 879 530 863 545 q 895 492 895 516 q 878 441 895 468 q 753 257 817 341 q 385 12 597 52 q 347 -60 374 -17 q 334 -81 343 -67 q 315 -112 321 -102 q 387 -179 356 -138 q 429 -264 418 -220 q 433 -300 433 -282 q 400 -389 433 -352 q 315 -426 368 -426 q 128 -326 205 -426 q 80 -254 106 -295 q 74 -235 74 -243 q 80 -219 74 -225 q 95 -214 86 -214 q 119 -229 111 -214 q 172 -293 142 -270 q 230 -323 201 -316 q 260 -326 245 -326 q 312 -308 293 -326 q 331 -261 331 -290 q 317 -214 331 -238 q 277 -170 304 -190 q 238 -154 256 -154 q 218 -169 220 -154 q 227 -185 218 -177 q 253 -197 236 -193 q 261 -198 256 -198 l 262 -198 q 271 -203 271 -198 q 270 -208 271 -205 q 245 -240 264 -229 q 220 -248 233 -248 q 176 -221 194 -248 q 151 -167 157 -195 q 148 -144 148 -155 q 166 -99 148 -116 q 220 -82 184 -82 q 248 -85 233 -82 q 299 -3 281 -37 q 300 -1 300 -2 q 302 1 301 1 q 289 1 298 1 q 276 0 281 0 q 117 44 186 0 q 10 163 47 89 q -28 324 -28 237 q -17 415 -28 370 q 94 640 12 531 q 290 815 177 748 q 517 882 404 882 q 657 839 611 882 q 704 724 704 795 q 696 665 704 696 q 663 574 686 622 q 602 493 639 527 q 519 458 566 458 q 453 477 488 458 q 390 560 408 503 q 388 572 388 568 q 393 582 388 580 q 407 585 397 585 l 418 585 q 434 586 428 585 q 500 618 478 597 q 523 660 523 639 q 509 687 523 676 q 473 698 496 698 q 372 656 428 698 q 269 544 304 606 q 234 423 234 483 q 283 304 234 353 q 417 255 332 255 q 492 264 453 255 q 643 341 569 282 q 777 505 716 400 z "},"è":{"ha":760,"x_min":-34,"x_max":889,"o":"m 771 505 q 800 535 783 525 q 834 545 817 545 q 872 531 857 545 q 888 492 888 516 q 872 441 888 468 q 747 257 812 342 q 271 0 552 0 q 111 44 180 0 q 4 163 42 89 q -33 324 -33 237 q -22 415 -33 370 q 89 640 6 532 q 284 815 172 748 q 512 882 397 882 q 652 839 605 882 q 699 724 699 795 q 647 557 699 646 q 502 396 595 468 q 291 296 409 325 q 420 258 344 258 q 569 296 494 258 q 704 411 644 334 q 771 505 742 458 m 236 368 q 367 433 314 391 q 446 521 420 475 q 472 606 472 567 q 458 653 472 635 q 420 671 444 671 q 369 655 397 671 q 307 607 340 640 q 229 418 229 507 q 236 368 229 391 m 294 1133 q 350 1215 306 1185 q 448 1244 395 1244 q 524 1222 493 1244 q 555 1157 555 1199 q 552 1133 555 1145 l 541 1079 q 497 996 530 1026 q 429 966 465 966 l 427 966 q 330 1011 368 968 q 292 1105 292 1054 q 294 1133 292 1119 z "},"é":{"ha":765,"x_min":-34,"x_max":889,"o":"m 771 505 q 800 535 783 525 q 834 545 817 545 q 872 531 857 545 q 888 492 888 516 q 872 441 888 468 q 747 257 812 342 q 271 0 552 0 q 111 44 180 0 q 4 163 42 89 q -33 324 -33 237 q -22 415 -33 370 q 89 640 6 532 q 284 815 172 748 q 512 882 397 882 q 652 839 605 882 q 699 724 699 795 q 647 557 699 646 q 502 396 595 468 q 291 296 409 325 q 420 258 344 258 q 569 296 494 258 q 704 411 644 334 q 771 505 742 458 m 236 368 q 367 433 314 391 q 446 521 420 475 q 472 606 472 567 q 458 653 472 635 q 420 671 444 671 q 369 655 397 671 q 307 607 340 640 q 229 418 229 507 q 236 368 229 391 m 552 1139 q 555 1111 555 1125 q 518 1017 555 1060 q 420 972 480 974 l 419 972 q 350 1002 382 972 q 306 1085 317 1031 l 294 1139 q 292 1163 292 1152 q 323 1228 292 1205 q 399 1251 354 1251 q 496 1221 452 1251 q 552 1139 541 1192 z "},"ê":{"ha":771,"x_min":-28,"x_max":895,"o":"m 777 505 q 806 535 789 525 q 840 545 823 545 q 879 531 863 545 q 895 492 895 516 q 878 441 895 468 q 754 257 817 341 q 277 0 557 0 q 117 44 186 0 q 11 163 48 89 q -27 324 -27 237 q -16 415 -27 370 q 95 640 12 532 q 291 815 178 748 q 518 882 404 882 q 658 839 611 882 q 705 724 705 795 q 653 557 705 646 q 508 396 602 468 q 297 296 415 325 q 427 258 350 258 q 575 296 500 258 q 710 411 650 334 q 777 505 748 458 m 242 368 q 373 433 320 391 q 452 521 427 475 q 478 606 478 567 q 464 653 478 635 q 426 671 450 671 q 375 655 404 671 q 313 607 347 640 q 235 418 235 507 q 242 368 235 391 m 314 991 q 275 972 296 972 q 247 984 258 972 q 235 1011 235 995 q 252 1048 235 1030 l 422 1225 q 464 1243 441 1243 q 497 1224 488 1243 l 593 1048 q 598 1029 598 1039 q 578 990 598 1007 q 538 972 559 972 q 506 991 516 972 l 437 1119 l 314 991 z "},"ë":{"ha":770,"x_min":-28,"x_max":895,"o":"m 777 505 q 805 535 788 525 q 840 545 822 545 q 878 531 862 545 q 894 492 894 516 q 878 441 894 468 q 753 257 817 341 q 276 0 557 0 q 117 44 186 0 q 10 163 47 89 q -28 324 -28 237 q -17 415 -28 370 q 94 640 12 532 q 290 815 177 748 q 517 882 403 882 q 657 839 610 882 q 704 724 704 795 q 652 557 704 646 q 508 396 601 468 q 296 296 414 325 q 426 258 349 258 q 574 296 499 258 q 709 411 650 334 q 777 505 747 458 m 241 368 q 373 433 319 391 q 452 521 426 475 q 477 606 477 567 q 464 653 477 635 q 425 671 450 671 q 374 655 403 671 q 313 607 346 640 q 234 418 234 507 q 241 368 234 391 m 288 1181 q 348 1157 325 1181 q 372 1099 372 1134 q 369 1077 372 1088 q 323 1003 360 1034 q 243 972 286 972 q 183 996 206 972 q 159 1055 159 1019 q 161 1077 159 1066 q 208 1150 171 1120 q 288 1181 245 1181 m 547 1181 q 608 1157 585 1181 q 632 1099 632 1134 q 629 1077 632 1088 q 584 1003 621 1034 q 503 972 547 972 q 443 996 466 972 q 419 1055 419 1019 q 421 1077 419 1066 q 468 1150 431 1120 q 547 1181 505 1181 z "},"ì":{"ha":425,"x_min":-123,"x_max":533,"o":"m 415 505 q 443 535 426 525 q 478 545 460 545 q 516 531 500 545 q 532 492 532 516 q 516 441 532 468 q 362 219 439 315 q 202 62 286 123 q 46 0 119 1 l 42 0 q -84 43 -45 0 q -123 156 -123 85 q -79 336 -123 237 q -37 424 -60 380 q 23 533 -14 468 q 113 705 83 642 q 142 814 142 768 q 133 854 142 837 q 129 867 129 861 q 152 882 129 882 q 254 842 197 882 q 340 699 340 781 q 308 586 340 643 q 216 446 276 528 q 141 336 170 387 q 121 278 121 300 q 130 256 121 263 q 153 248 138 248 q 196 260 172 248 q 245 294 221 273 q 415 505 344 395 m 136 1133 q 192 1215 148 1185 q 289 1244 237 1244 q 366 1222 334 1244 q 397 1157 397 1199 q 394 1133 397 1145 l 382 1079 q 338 996 371 1025 q 270 966 306 966 l 269 966 q 171 1011 209 968 q 134 1105 134 1054 q 136 1133 134 1119 z "},"í":{"ha":436,"x_min":-123,"x_max":534,"o":"m 416 505 q 444 535 427 525 q 479 545 460 545 q 517 531 501 545 q 533 492 533 516 q 517 441 533 468 q 363 219 440 315 q 203 62 286 123 q 47 0 120 1 l 43 0 q -84 43 -45 0 q -123 156 -123 85 q -79 336 -123 237 q -36 424 -60 380 q 24 533 -13 468 q 113 705 84 642 q 142 814 142 768 q 134 854 142 837 q 130 867 130 861 q 153 882 130 882 q 255 842 198 882 q 340 699 340 781 q 309 586 340 643 q 216 446 277 528 q 142 336 170 387 q 122 278 122 300 q 131 256 122 263 q 153 248 139 248 q 197 260 172 248 q 245 294 222 273 q 416 505 345 395 m 424 1139 q 427 1112 427 1125 q 389 1017 427 1060 q 292 972 351 974 l 290 972 q 221 1002 254 972 q 178 1085 189 1031 l 166 1139 q 163 1163 163 1152 q 195 1228 163 1205 q 271 1251 226 1251 q 368 1221 323 1251 q 424 1139 412 1192 z "},"î":{"ha":436,"x_min":-113,"x_max":544,"o":"m 426 505 q 454 535 437 525 q 489 545 471 545 q 527 531 511 545 q 543 492 543 516 q 527 441 543 468 q 373 219 450 315 q 213 62 296 123 q 57 0 130 1 l 53 0 q -74 43 -35 0 q -113 156 -113 85 q -68 336 -113 237 q -26 424 -50 380 q 34 533 -3 468 q 123 705 94 642 q 153 814 153 768 q 144 854 153 837 q 140 867 140 861 q 163 882 140 882 q 265 842 208 882 q 351 699 351 781 q 319 586 351 643 q 227 446 287 528 q 152 336 180 387 q 132 278 132 300 q 141 256 132 263 q 163 248 149 248 q 207 260 182 248 q 256 294 232 273 q 426 505 355 395 m 164 991 q 125 972 146 972 q 96 984 108 972 q 85 1011 85 995 q 102 1048 85 1030 l 272 1225 q 313 1243 290 1243 q 347 1224 337 1243 l 442 1048 q 448 1028 448 1038 q 428 990 448 1007 q 387 972 409 972 q 356 991 366 972 l 287 1119 l 164 991 z "},"ï":{"ha":436,"x_min":-113,"x_max":544,"o":"m 426 505 q 454 535 437 525 q 489 545 471 545 q 527 531 511 545 q 543 492 543 516 q 527 441 543 468 q 373 219 450 315 q 213 62 296 123 q 57 0 130 1 l 53 0 q -74 43 -35 0 q -113 156 -113 85 q -68 336 -113 237 q -26 424 -50 380 q 34 533 -3 468 q 123 705 94 642 q 153 814 153 768 q 144 854 153 837 q 140 867 140 861 q 163 882 140 882 q 265 842 208 882 q 351 699 351 781 q 319 586 351 643 q 227 446 287 528 q 152 336 180 387 q 132 278 132 300 q 141 256 132 263 q 163 248 149 248 q 207 260 182 248 q 256 294 232 273 q 426 505 355 395 m 199 1181 q 259 1157 236 1181 q 283 1099 283 1134 q 281 1077 283 1088 q 235 1003 271 1034 q 155 972 198 972 q 94 996 118 972 q 71 1055 71 1019 q 73 1077 71 1066 q 119 1150 82 1120 q 199 1181 156 1181 m 459 1181 q 520 1157 496 1181 q 543 1099 543 1134 q 541 1077 543 1088 q 495 1003 532 1034 q 415 972 458 972 q 354 996 378 972 q 330 1055 330 1019 q 333 1077 330 1066 q 379 1150 342 1120 q 459 1181 416 1181 z "},"ð":{"ha":836,"x_min":-39,"x_max":972,"o":"m 536 472 q 548 549 548 515 q 529 618 548 595 q 481 641 509 641 q 426 618 450 641 q 401 561 401 595 q 421 502 401 533 q 483 441 441 471 q 512 426 504 426 q 523 433 519 426 q 533 461 526 441 q 536 472 535 468 m 291 251 q 439 321 367 251 q 314 440 359 363 q 263 604 269 517 q 186 474 205 536 q 174 396 174 437 q 203 293 174 335 q 291 251 231 251 m 264 663 q 333 818 274 754 q 492 882 393 882 q 590 867 547 882 l 622 907 l 600 913 q 542 921 570 921 q 482 905 504 921 q 475 902 477 902 l 474 902 q 471 907 471 903 q 472 915 471 911 q 492 954 477 932 q 563 996 518 996 q 587 993 574 996 l 671 970 l 685 988 q 718 1046 711 1023 q 720 1061 720 1054 q 711 1080 720 1074 q 709 1084 709 1082 l 709 1085 q 717 1090 709 1088 q 736 1092 723 1092 q 775 1088 756 1092 q 786 1086 779 1088 q 814 1058 814 1078 q 812 1049 814 1054 q 799 1025 810 1040 l 741 950 l 762 945 q 820 937 792 937 q 880 953 859 937 q 887 956 885 956 l 888 956 q 892 951 891 955 l 892 949 q 891 945 892 948 q 891 943 891 944 q 871 904 882 920 q 799 862 844 862 q 776 865 787 862 l 692 888 l 677 869 q 653 831 661 846 q 724 733 701 793 q 748 602 748 673 q 734 491 748 547 q 694 387 720 435 q 778 424 736 395 q 855 505 819 452 q 883 535 867 525 q 918 545 900 545 q 957 531 941 545 q 972 492 972 516 q 956 441 972 469 q 837 320 912 364 q 684 276 761 276 q 637 281 659 276 q 514 135 585 199 q 364 36 444 71 q 210 0 285 0 q 78 36 134 0 q -8 135 22 71 q -39 281 -39 199 q -12 441 -39 360 q 131 690 37 585 q 215 744 177 744 q 251 724 238 744 q 264 671 264 705 l 264 663 z "},"ñ":{"ha":802,"x_min":-136,"x_max":932,"o":"m 814 505 q 842 535 825 525 q 877 545 859 545 q 916 531 899 545 q 932 492 932 516 q 915 441 932 468 q 761 219 838 315 q 601 62 684 123 q 445 0 518 1 l 441 0 q 314 43 353 0 q 275 157 275 86 q 287 246 275 199 q 319 336 299 292 l 398 479 q 432 545 421 518 q 443 589 443 572 q 425 610 443 610 q 352 571 399 610 q 269 479 304 532 l 269 479 q 234 430 257 463 q 170 335 183 358 q 109 196 132 262 q 86 80 86 129 q 98 26 86 47 q 101 14 101 19 q 81 0 101 0 q -46 18 2 0 q -115 69 -94 37 q -136 146 -136 102 q -121 236 -136 187 q -80 342 -106 285 q -6 470 -67 370 q 118 687 73 600 q 163 827 163 775 q 157 854 163 843 q 153 867 153 861 q 176 882 153 882 q 393 754 393 882 l 393 753 q 608 882 507 882 q 712 845 672 882 q 752 741 752 807 q 726 625 752 688 q 683 545 709 585 q 615 448 657 505 q 541 336 568 386 q 522 278 522 300 q 530 256 522 263 q 552 248 538 248 q 595 260 571 248 q 644 294 620 273 q 814 505 743 394 m 408 1000 q 374 991 391 991 q 333 1007 351 991 q 316 1041 316 1022 q 341 1077 316 1063 q 430 1100 383 1100 q 470 1097 450 1100 q 520 1086 490 1093 q 572 1077 556 1077 q 589 1080 582 1077 q 618 1086 604 1086 q 659 1071 642 1086 q 675 1037 675 1056 q 646 998 675 1012 q 574 983 611 983 q 535 986 554 983 q 487 996 515 989 q 432 1006 449 1006 q 408 1000 417 1006 z "},"ò":{"ha":843,"x_min":-38,"x_max":974,"o":"m 856 505 q 884 536 867 526 q 919 546 901 546 q 957 531 941 546 q 973 492 973 517 q 957 441 973 469 q 837 321 913 365 q 686 277 762 277 q 638 281 661 277 q 515 136 586 199 q 365 36 444 72 q 210 1 286 1 q 79 36 135 1 q -8 136 22 72 q -38 282 -38 199 q -12 442 -38 359 q 132 690 37 586 q 216 745 178 745 q 252 725 239 745 q 265 671 265 705 q 264 657 265 664 q 332 817 273 751 q 493 883 392 883 q 636 845 579 883 q 721 743 694 806 q 749 602 749 679 q 735 491 749 547 q 694 387 721 435 q 779 424 737 395 q 856 505 820 453 m 292 252 q 369 271 331 252 q 439 321 406 290 q 315 441 360 364 q 264 605 269 518 q 186 474 207 536 q 175 396 175 437 q 203 294 175 336 q 292 252 232 252 m 537 473 q 549 550 549 516 q 529 619 549 596 q 481 642 510 642 q 427 619 451 642 q 403 562 403 596 q 422 503 403 534 q 484 441 441 472 q 513 427 505 427 q 524 434 519 427 q 534 463 528 441 q 537 473 536 469 m 310 1133 q 366 1215 321 1185 q 463 1244 410 1244 q 539 1222 509 1244 q 570 1157 570 1199 q 568 1133 570 1145 l 556 1079 q 513 996 545 1025 q 444 966 480 966 l 442 966 q 345 1011 382 968 q 307 1105 307 1054 q 310 1133 307 1119 z "},"ó":{"ha":851,"x_min":-41,"x_max":971,"o":"m 853 505 q 882 536 865 526 q 916 546 899 546 q 955 531 939 546 q 970 492 970 517 q 954 441 970 469 q 834 321 910 365 q 683 277 759 277 q 635 281 658 277 q 512 136 583 199 q 362 36 441 72 q 208 1 283 1 q 76 36 132 1 q -11 136 20 72 q -41 282 -41 199 q -14 442 -41 359 q 129 690 35 586 q 214 745 175 745 q 249 725 236 745 q 262 671 262 705 q 262 657 262 664 q 330 817 270 751 q 490 883 389 883 q 634 845 576 883 q 719 743 691 806 q 746 602 746 679 q 732 491 746 547 q 692 387 718 435 q 776 424 734 395 q 853 505 817 453 m 289 252 q 366 271 328 252 q 437 321 404 290 q 312 441 357 364 q 261 605 267 518 q 184 474 204 536 q 172 396 172 437 q 201 294 172 336 q 289 252 229 252 m 534 473 q 546 550 546 516 q 527 619 546 596 q 479 642 507 642 q 424 619 448 642 q 400 562 400 596 q 419 503 400 534 q 481 441 439 472 q 510 427 503 427 q 521 434 517 427 q 531 463 525 441 q 534 473 534 469 m 566 1139 q 569 1111 569 1125 q 531 1017 569 1060 q 433 972 494 974 l 433 972 q 364 1002 397 972 q 319 1085 331 1032 l 308 1139 q 305 1162 305 1151 q 337 1227 305 1204 q 414 1251 368 1251 q 510 1221 466 1251 q 566 1139 555 1192 z "},"ô":{"ha":846,"x_min":-38,"x_max":974,"o":"m 856 505 q 884 536 867 526 q 919 546 901 546 q 957 531 941 546 q 973 492 973 517 q 957 441 973 469 q 837 321 913 365 q 686 277 762 277 q 638 281 661 277 q 515 136 586 199 q 365 36 444 72 q 210 1 286 1 q 79 36 135 1 q -8 136 22 72 q -38 282 -38 199 q -12 442 -38 359 q 132 690 37 586 q 216 745 178 745 q 252 725 239 745 q 265 671 265 705 q 264 657 265 664 q 332 817 273 751 q 493 883 392 883 q 636 845 579 883 q 721 743 694 806 q 749 602 749 679 q 735 491 749 547 q 694 387 721 435 q 779 424 737 395 q 856 505 820 453 m 292 252 q 369 271 331 252 q 439 321 406 290 q 315 441 360 364 q 264 605 269 518 q 186 474 207 536 q 175 396 175 437 q 203 294 175 336 q 292 252 232 252 m 537 473 q 549 550 549 516 q 529 619 549 596 q 481 642 510 642 q 427 619 451 642 q 403 562 403 596 q 422 503 403 534 q 484 441 441 472 q 513 427 505 427 q 524 434 519 427 q 534 463 528 441 q 537 473 536 469 m 374 991 q 334 972 355 972 q 306 984 318 972 q 294 1011 294 995 q 311 1048 294 1030 l 481 1225 q 523 1243 500 1243 q 557 1224 547 1243 l 652 1048 q 657 1028 657 1038 q 638 990 657 1007 q 597 972 618 972 q 566 991 576 972 l 496 1119 l 374 991 z "},"õ":{"ha":859,"x_min":-38,"x_max":974,"o":"m 856 505 q 884 536 867 526 q 919 546 901 546 q 957 531 941 546 q 973 492 973 517 q 957 441 973 469 q 837 321 913 365 q 686 277 762 277 q 638 281 661 277 q 515 136 586 199 q 365 36 444 72 q 210 1 286 1 q 79 36 135 1 q -8 136 22 72 q -38 282 -38 199 q -12 442 -38 359 q 132 690 37 586 q 216 745 178 745 q 252 725 239 745 q 265 671 265 705 q 264 657 265 664 q 332 817 273 751 q 493 883 392 883 q 636 845 579 883 q 721 743 694 806 q 749 602 749 679 q 735 491 749 547 q 694 387 721 435 q 779 424 737 395 q 856 505 820 453 m 292 252 q 440 321 367 252 q 315 441 360 364 q 264 605 269 518 q 186 474 207 536 q 175 396 175 437 q 203 294 175 336 q 292 252 232 252 m 537 473 q 549 550 549 516 q 529 619 549 596 q 481 642 510 642 q 427 619 451 642 q 403 562 403 596 q 422 503 403 534 q 484 441 441 472 q 513 427 505 427 q 524 434 519 427 q 534 463 528 441 q 537 473 536 469 m 399 1000 q 366 991 383 991 q 325 1007 342 991 q 307 1041 307 1022 q 332 1077 307 1063 q 421 1100 374 1100 q 462 1097 442 1100 q 511 1086 482 1093 q 564 1077 548 1077 q 580 1080 574 1077 q 609 1086 595 1086 q 650 1071 633 1086 q 667 1037 667 1056 q 637 998 667 1012 q 565 983 603 983 q 526 986 545 983 q 478 996 507 989 q 424 1006 440 1006 q 399 1000 409 1006 z "},"ö":{"ha":862,"x_min":-33,"x_max":979,"o":"m 861 505 q 890 536 873 526 q 924 546 907 546 q 963 531 947 546 q 979 492 979 517 q 962 441 979 469 q 843 321 918 365 q 691 277 767 277 q 644 281 666 277 q 520 136 591 199 q 371 36 450 72 q 216 1 292 1 q 84 36 140 1 q -2 136 28 72 q -33 282 -33 199 q -6 442 -33 359 q 137 690 43 586 q 222 745 183 745 q 257 725 244 745 q 271 671 271 705 q 270 657 271 664 q 338 817 278 751 q 498 883 397 883 q 642 845 585 883 q 727 743 699 806 q 754 603 754 680 q 740 491 754 547 q 699 387 726 435 q 784 424 742 395 q 861 505 825 452 m 297 252 q 446 321 372 252 q 320 441 366 364 q 269 605 275 518 q 192 474 212 536 q 180 396 180 437 q 209 294 180 336 q 297 252 237 252 m 543 473 q 554 550 554 516 q 535 619 554 596 q 487 642 515 642 q 432 619 456 642 q 408 562 408 596 q 428 503 408 534 q 489 441 447 472 q 518 427 511 427 q 529 434 525 427 q 539 463 533 441 q 543 473 542 469 m 416 1181 q 477 1157 453 1181 q 500 1099 500 1134 q 498 1077 500 1088 q 452 1003 489 1034 q 372 972 415 972 q 311 996 335 972 q 288 1055 288 1019 q 290 1077 288 1066 q 336 1150 299 1120 q 416 1181 373 1181 m 676 1181 q 737 1157 713 1181 q 761 1099 761 1134 q 758 1077 761 1088 q 712 1003 749 1034 q 632 972 675 972 q 571 996 595 972 q 548 1055 548 1019 q 550 1077 548 1066 q 596 1150 559 1120 q 676 1181 633 1181 z "},"÷":{"ha":699,"x_min":68,"x_max":631,"o":"m 304 501 q 339 489 326 501 q 352 456 352 476 q 346 429 352 444 q 303 378 333 399 q 243 357 273 357 q 208 369 221 357 q 195 401 195 381 q 201 429 195 414 q 244 480 214 459 q 304 501 274 501 m 456 867 q 491 854 478 867 q 504 822 504 842 q 498 794 504 808 q 455 743 485 764 q 395 722 425 722 q 360 734 373 722 q 347 766 347 747 q 353 794 347 780 q 396 845 366 824 q 456 867 426 867 m 629 722 q 631 711 631 718 q 627 679 631 698 q 618 648 623 661 q 572 581 604 602 q 503 559 540 559 l 245 559 q 152 546 196 559 q 86 505 109 532 q 76 497 81 497 q 70 502 72 497 q 68 513 68 506 q 80 575 68 533 q 127 643 95 622 q 196 664 159 664 l 454 664 q 547 677 503 664 q 613 719 591 691 q 623 726 618 726 q 629 722 627 726 z "},"ø":{"ha":828,"x_min":-146,"x_max":861,"o":"m 833 930 q 654 833 749 930 q 726 735 702 795 q 750 603 750 674 q 696 387 750 492 q 676 347 696 387 q 640 281 657 307 q 516 136 587 199 q 367 36 446 72 q 212 1 288 1 q 194 1 199 1 l 147 -92 q 33 -176 102 -176 q -45 -151 -3 -176 q -106 -110 -75 -133 q -144 -69 -137 -86 q -146 -58 -146 -63 q -133 -47 -146 -47 l -120 -47 q -32 -22 -78 -47 q 60 50 14 3 q -11 148 14 87 q -36 282 -36 208 q -9 442 -36 359 q 49 574 12 511 q 133 690 86 638 q 217 745 179 745 q 254 724 240 745 q 267 669 267 704 q 267 657 267 663 q 334 817 275 751 q 494 883 394 883 q 520 882 512 883 l 567 976 q 680 1059 612 1059 q 760 1034 717 1059 q 819 994 787 1019 q 858 952 850 970 q 861 941 861 946 q 846 930 861 930 l 843 930 q 833 930 838 930 m 550 550 q 540 604 550 583 q 512 635 530 625 q 494 599 506 623 l 437 486 q 486 441 456 463 q 515 427 507 427 q 525 434 522 427 q 536 463 529 441 q 538 473 537 469 q 550 550 550 516 m 176 397 q 186 330 176 361 q 217 279 196 299 q 220 285 218 281 l 307 458 q 266 605 270 528 q 218 539 239 574 q 188 474 198 505 q 176 397 176 437 m 441 321 q 377 367 407 340 l 321 254 q 441 321 382 265 z "},"ù":{"ha":854,"x_min":-116,"x_max":987,"o":"m 869 506 q 897 536 880 526 q 932 547 914 547 q 971 532 955 547 q 987 493 987 517 q 970 442 987 469 q 730 124 851 246 q 500 1 608 2 l 496 1 q 370 44 409 1 q 330 159 330 87 q 340 240 330 196 q 185 65 258 130 q 54 1 113 1 l 50 1 q -77 43 -38 1 q -116 157 -116 86 q -72 337 -116 238 q -30 425 -53 380 q 31 534 -6 469 q 120 706 91 642 q 149 814 149 769 q 140 854 149 838 q 136 867 136 862 q 159 883 136 883 q 262 842 205 883 q 347 699 347 781 q 315 586 347 643 q 222 446 283 528 q 161 359 178 386 q 139 315 146 335 q 132 281 132 296 q 143 253 132 262 q 174 243 154 243 q 241 263 201 243 q 327 325 281 283 q 415 425 372 366 l 489 584 q 520 673 508 625 q 532 760 532 720 q 529 794 532 779 q 515 829 527 806 q 505 858 505 850 q 536 880 505 875 q 578 883 557 883 q 709 843 652 883 q 794 700 794 782 q 762 586 794 644 q 669 447 730 529 q 595 336 624 387 q 576 279 576 302 q 584 257 576 264 q 607 250 593 250 q 651 261 626 250 q 699 295 675 273 q 869 506 797 394 m 307 1133 q 362 1215 318 1185 q 459 1244 407 1244 q 536 1222 505 1244 q 567 1157 567 1199 q 564 1133 567 1145 l 553 1079 q 509 996 542 1025 q 440 966 476 966 l 439 966 q 341 1011 379 968 q 304 1105 304 1054 q 307 1133 304 1119 z "},"ú":{"ha":844,"x_min":-123,"x_max":981,"o":"m 863 506 q 890 536 873 526 q 926 547 907 547 q 964 532 948 547 q 980 493 980 517 q 964 442 980 469 q 723 124 844 246 q 494 1 602 2 l 490 1 q 363 44 402 1 q 323 159 323 87 q 334 240 323 196 q 178 65 251 130 q 47 1 106 1 l 43 1 q -84 43 -45 1 q -123 157 -123 86 q -79 337 -123 238 q -36 425 -60 380 q 24 534 -13 469 q 113 706 84 642 q 142 814 142 769 q 134 854 142 838 q 130 867 130 862 q 153 883 130 883 q 255 842 198 883 q 340 699 340 781 q 309 586 340 643 q 216 446 277 528 q 155 359 172 386 q 133 315 140 335 q 125 281 125 296 q 136 253 125 262 q 167 243 147 243 q 235 263 195 243 q 320 325 275 283 q 408 425 366 366 l 482 584 q 513 673 501 625 q 525 760 525 720 q 522 794 525 779 q 509 829 520 806 q 498 858 498 850 q 530 880 498 875 q 571 883 551 883 q 702 843 646 883 q 787 700 787 782 q 755 586 787 644 q 663 447 724 529 q 589 336 617 387 q 569 279 569 302 q 577 257 569 264 q 600 250 586 250 q 644 261 619 250 q 692 295 669 273 q 863 506 790 394 m 557 1139 q 560 1111 560 1125 q 523 1017 560 1060 q 425 972 485 974 l 424 972 q 355 1002 388 972 q 311 1085 323 1031 l 300 1139 q 297 1163 297 1152 q 328 1228 297 1205 q 405 1251 359 1251 q 502 1221 457 1251 q 557 1139 546 1192 z "},"û":{"ha":844,"x_min":-129,"x_max":975,"o":"m 857 506 q 884 536 867 526 q 920 547 901 547 q 958 532 942 547 q 974 493 974 517 q 958 442 974 469 q 717 124 838 246 q 488 1 595 2 l 484 1 q 357 44 396 1 q 317 159 317 87 q 328 240 317 196 q 172 65 245 130 q 41 1 100 1 l 37 1 q -90 43 -51 1 q -129 157 -129 86 q -85 337 -129 238 q -42 425 -66 380 q 18 534 -19 469 q 107 706 78 642 q 136 814 136 769 q 127 854 136 838 q 123 867 123 862 q 146 883 123 883 q 249 842 192 883 q 334 699 334 781 q 302 586 334 643 q 210 446 271 528 q 149 359 165 386 q 126 315 134 335 q 119 281 119 296 q 130 253 119 262 q 161 243 141 243 q 229 263 189 243 q 314 325 269 283 q 402 425 359 366 l 476 584 q 507 673 495 625 q 519 760 519 720 q 516 794 519 779 q 503 829 514 806 q 492 858 492 850 q 524 880 492 875 q 565 883 545 883 q 696 843 640 883 q 781 700 781 782 q 749 586 781 644 q 656 447 718 529 q 583 336 611 387 q 563 279 563 302 q 571 257 563 264 q 594 250 580 250 q 638 261 613 250 q 686 295 663 273 q 857 506 784 394 m 300 991 q 260 972 281 972 q 232 984 243 972 q 220 1011 220 995 q 237 1048 220 1030 l 408 1225 q 449 1243 425 1243 q 483 1224 473 1243 l 578 1048 q 583 1028 583 1038 q 564 990 583 1007 q 523 972 545 972 q 492 991 502 972 l 422 1119 l 300 991 z "},"ü":{"ha":841,"x_min":-115,"x_max":988,"o":"m 870 506 q 898 536 881 526 q 933 547 915 547 q 971 532 956 547 q 987 493 987 517 q 971 442 987 469 q 730 124 852 246 q 501 1 609 2 l 497 1 q 370 44 410 1 q 331 159 331 87 q 341 240 331 196 q 186 65 258 130 q 54 1 113 1 l 50 1 q -76 43 -37 1 q -115 157 -115 86 q -71 337 -115 238 q -29 425 -52 380 q 31 534 -5 469 q 121 706 92 642 q 150 814 150 769 q 141 854 150 838 q 137 867 137 862 q 160 883 137 883 q 262 842 205 883 q 348 699 348 781 q 316 586 348 643 q 223 446 284 528 q 162 359 179 386 q 140 315 147 335 q 133 281 133 296 q 144 253 133 262 q 174 243 155 243 q 242 263 202 243 q 328 325 282 283 q 416 425 373 366 l 490 584 q 520 673 509 625 q 532 760 532 720 q 530 794 532 779 q 516 829 528 806 q 506 858 506 850 q 537 880 506 875 q 578 883 558 883 q 709 843 653 883 q 795 700 795 782 q 763 586 795 644 q 670 447 731 529 q 596 336 625 387 q 576 279 576 302 q 585 257 576 264 q 608 250 593 250 q 651 261 627 250 q 700 295 676 273 q 870 506 798 394 m 283 1181 q 343 1157 320 1181 q 367 1099 367 1134 q 365 1077 367 1088 q 319 1003 355 1034 q 239 972 282 972 q 178 996 202 972 q 155 1055 155 1019 q 157 1077 155 1066 q 203 1150 166 1120 q 283 1181 240 1181 m 543 1181 q 604 1157 581 1181 q 627 1099 627 1134 q 625 1077 627 1088 q 579 1003 616 1034 q 499 972 543 972 q 438 996 462 972 q 414 1055 414 1019 q 417 1077 414 1066 q 463 1150 426 1120 q 543 1181 500 1181 z "},"ý":{"ha":877,"x_min":-116,"x_max":1014,"o":"m 896 505 q 924 536 907 526 q 959 546 941 546 q 997 531 981 546 q 1013 492 1013 517 q 997 441 1013 469 q 830 196 947 361 q 573 -147 713 30 q 303 -448 433 -324 q 102 -572 174 -572 q 33 -538 54 -572 q 12 -448 12 -503 q 20 -373 12 -411 q 37 -309 28 -334 q 254 134 107 -130 q 149 37 201 74 q 54 1 97 1 l 50 1 q -77 43 -38 1 q -116 157 -116 86 q -72 337 -116 238 q -30 425 -53 380 q 31 534 -6 469 q 120 706 91 642 q 149 814 149 769 q 140 854 149 838 q 136 867 136 862 q 159 883 136 883 q 262 842 205 883 q 347 699 347 781 q 315 586 347 643 q 222 446 283 528 q 161 359 178 386 q 133 281 133 312 q 144 253 133 262 q 174 243 155 243 q 256 271 208 243 q 360 357 305 300 q 462 497 414 415 q 511 584 484 535 q 541 638 521 602 q 601 751 582 709 q 621 823 621 792 q 614 854 621 841 q 610 867 610 862 q 633 883 610 883 q 735 842 678 883 q 821 698 821 781 q 791 588 821 643 q 705 459 761 534 q 690 438 695 445 q 384 -56 555 256 q 330 -189 330 -153 q 340 -203 330 -203 q 384 -176 354 -203 q 454 -98 414 -149 q 896 505 680 191 m 578 1139 q 581 1112 581 1125 q 543 1017 581 1060 q 445 972 505 974 l 444 972 q 375 1002 408 972 q 331 1085 342 1032 l 320 1139 q 317 1163 317 1152 q 349 1228 317 1205 q 425 1251 380 1251 q 522 1221 477 1251 q 578 1139 566 1192 z "},"þ":{"ha":730,"x_min":-92,"x_max":663,"o":"m 647 309 q 663 200 663 251 q 620 52 663 113 q 505 -38 577 -8 q 345 -68 433 -68 q 177 -41 261 -68 l 176 -41 l 174 -245 q 144 -338 171 -301 q 52 -375 117 -375 q 34 -374 43 -375 q -34 -365 3 -372 q -84 -345 -71 -357 q -92 -332 -92 -338 q -81 -320 -92 -325 q 26 -198 -16 -294 q 77 38 67 -102 q 80 107 80 75 l 81 151 l 85 561 l 86 647 l 89 842 q 118 935 91 898 q 209 972 145 972 q 228 972 218 972 q 296 962 259 969 q 347 943 333 955 q 355 930 355 936 q 343 918 355 922 q 262 843 296 899 q 207 702 227 787 q 199 665 201 680 l 207 665 q 354 627 277 662 q 488 547 431 593 q 588 437 547 498 q 647 309 629 376 m 437 157 q 469 269 469 199 q 437 413 469 339 q 350 535 406 486 q 229 583 295 583 l 221 583 q 191 578 203 582 q 189 578 191 578 q 188 578 189 578 q 183 490 183 528 l 178 107 l 178 71 l 178 71 q 220 68 199 68 q 344 91 284 68 q 437 157 404 114 z "},"ÿ":{"ha":887,"x_min":-113,"x_max":1017,"o":"m 899 505 q 927 536 910 526 q 962 546 944 546 q 1001 531 985 546 q 1017 492 1017 517 q 1000 441 1017 469 q 834 196 951 361 q 576 -147 717 30 q 307 -448 436 -324 q 105 -572 178 -572 q 36 -538 57 -572 q 16 -448 16 -503 q 23 -373 16 -411 q 41 -309 31 -334 q 258 134 111 -130 q 153 37 205 74 q 57 1 100 1 l 53 1 q -74 43 -35 1 q -113 157 -113 86 q -68 337 -113 238 q -26 425 -50 380 q 34 534 -3 469 q 123 706 94 642 q 153 814 153 769 q 144 854 153 838 q 140 867 140 862 q 163 883 140 883 q 265 842 208 883 q 351 699 351 781 q 319 586 351 643 q 226 446 287 528 q 165 359 182 386 q 136 281 136 312 q 147 253 136 262 q 177 243 158 243 q 260 271 211 243 q 363 357 309 300 q 465 497 418 415 q 514 584 488 535 q 545 638 524 602 q 605 751 585 709 q 624 823 624 792 q 617 854 624 841 q 613 867 613 862 q 636 883 613 883 q 739 842 682 883 q 825 698 825 781 q 794 588 825 643 q 709 459 764 534 q 694 438 699 445 q 387 -56 559 256 q 333 -189 333 -153 q 344 -203 333 -203 q 387 -176 357 -203 q 458 -98 417 -149 q 899 505 684 191 m 344 1181 q 405 1157 381 1181 q 428 1099 428 1134 q 426 1077 428 1088 q 380 1003 416 1034 q 300 972 343 972 q 239 996 263 972 q 216 1055 216 1019 q 218 1077 216 1066 q 264 1150 227 1120 q 344 1181 301 1181 m 604 1181 q 665 1157 642 1181 q 688 1099 688 1134 q 686 1077 688 1088 q 640 1003 677 1034 q 560 972 604 972 q 499 996 523 972 q 475 1055 475 1019 q 478 1077 475 1066 q 524 1150 487 1120 q 604 1181 561 1181 z "},"’":{"ha":349,"x_min":68,"x_max":281,"o":"m 97 1012 q 107 1023 107 1017 q 96 1042 107 1028 q 76 1073 83 1058 q 68 1109 68 1088 q 71 1131 68 1119 q 117 1204 79 1173 q 197 1234 154 1234 q 257 1211 234 1234 q 281 1152 281 1187 q 279 1131 281 1141 q 223 1021 267 1074 q 123 940 180 969 q 101 934 111 934 q 77 944 86 934 q 68 969 68 954 q 75 993 68 981 q 97 1012 83 1004 z "},"‚":{"ha":349,"x_min":68,"x_max":281,"o":"m 97 -49 q 107 -38 107 -44 q 96 -19 107 -33 q 76 12 83 -3 q 68 47 68 26 q 71 69 68 58 q 117 143 79 113 q 197 174 154 174 q 257 150 234 174 q 281 91 281 127 q 279 69 281 80 q 223 -39 267 13 q 123 -121 180 -92 q 100 -127 111 -127 q 77 -117 86 -127 q 68 -92 68 -106 q 75 -68 68 -80 q 97 -49 83 -56 z "},"“":{"ha":519,"x_min":67,"x_max":452,"o":"m 422 1158 q 412 1147 412 1153 q 423 1127 412 1141 q 443 1097 435 1112 q 451 1061 451 1082 q 448 1039 451 1050 q 402 965 439 996 q 322 935 365 935 q 276 946 296 935 q 246 979 256 958 q 202 946 227 958 q 152 935 178 935 q 91 958 115 935 q 68 1017 68 981 q 70 1039 68 1028 q 126 1148 82 1095 q 226 1230 170 1200 q 248 1236 237 1236 q 272 1225 263 1236 q 281 1200 281 1215 q 274 1177 281 1188 q 252 1158 267 1165 q 242 1146 242 1153 q 254 1126 242 1141 q 267 1107 262 1115 q 396 1230 315 1186 q 418 1236 408 1236 q 442 1225 433 1236 q 451 1200 451 1215 q 444 1177 451 1188 q 422 1158 437 1165 z "},"”":{"ha":519,"x_min":68,"x_max":452,"o":"m 97 1013 q 107 1023 107 1017 q 96 1043 107 1029 q 76 1074 83 1059 q 68 1109 68 1088 q 71 1131 68 1120 q 117 1205 79 1175 q 197 1236 154 1236 q 242 1224 222 1236 q 273 1192 262 1212 q 316 1224 292 1212 q 367 1236 341 1236 q 428 1212 404 1236 q 451 1153 451 1189 q 449 1131 451 1142 q 393 1022 437 1075 q 293 941 349 970 q 271 935 281 935 q 247 945 256 935 q 237 970 237 956 q 245 994 237 982 q 267 1013 252 1005 q 277 1024 277 1017 q 265 1044 277 1029 q 252 1063 256 1055 q 123 941 203 984 q 101 935 111 935 q 77 945 86 935 q 68 970 68 955 q 75 994 68 982 q 97 1013 83 1005 z "},"„":{"ha":519,"x_min":68,"x_max":452,"o":"m 97 -48 q 107 -37 107 -43 q 96 -18 107 -32 q 76 13 83 -2 q 68 49 68 28 q 71 71 68 59 q 117 144 79 114 q 197 174 154 174 q 242 162 222 174 q 273 130 262 151 q 367 174 314 174 q 428 151 404 174 q 451 92 451 128 q 449 71 451 81 q 393 -39 437 14 q 293 -120 350 -91 q 271 -126 281 -126 q 247 -116 256 -126 q 237 -91 237 -105 q 245 -67 237 -79 q 267 -48 252 -56 q 277 -37 277 -43 q 266 -18 277 -32 q 252 2 256 -5 q 123 -120 203 -77 q 101 -126 111 -126 q 77 -116 86 -126 q 68 -91 68 -106 q 75 -67 68 -79 q 97 -48 83 -56 z "},"†":{"ha":1322,"x_min":67,"x_max":1255,"o":"m 1074 1034 q 1165 1024 1126 1034 q 1230 988 1204 1015 q 1255 911 1255 961 q 1254 899 1255 905 q 1204 801 1250 842 q 1187 792 1194 792 q 1179 797 1183 792 q 1171 810 1176 801 q 1165 823 1168 819 q 1090 885 1139 869 q 973 902 1040 902 q 794 896 882 901 q 725 769 766 836 q 614 597 684 703 q 520 453 557 511 q 450 335 483 394 q 388 198 410 265 q 366 81 366 130 q 377 25 366 47 q 381 13 381 18 q 360 0 381 0 q 196 36 248 0 q 144 142 144 72 q 183 298 144 206 q 300 513 223 390 q 332 565 310 530 q 432 728 392 661 q 505 860 472 795 q 264 779 355 829 q 161 661 173 729 q 151 648 159 648 q 139 653 146 648 q 105 712 126 663 q 75 791 84 762 q 68 838 68 816 q 165 940 68 915 q 568 1006 318 979 q 589 1116 589 1069 q 586 1147 589 1132 q 572 1181 584 1158 q 562 1211 562 1202 q 593 1232 562 1227 q 633 1235 614 1235 q 765 1196 710 1235 q 840 1064 840 1149 q 838 1028 840 1047 q 1046 1034 945 1034 l 1074 1034 z "},"₣":{"ha":1595,"x_min":67,"x_max":1527,"o":"m 1404 1235 q 1492 1210 1457 1235 q 1527 1122 1527 1185 l 1527 1112 q 1517 1030 1526 1085 q 1499 962 1509 975 q 1487 955 1492 955 q 1476 965 1480 955 q 1415 1028 1459 1003 q 1306 1064 1372 1053 q 1158 1076 1241 1076 q 762 1030 987 1076 q 781 977 781 1007 q 762 907 781 944 q 703 812 743 869 q 668 758 679 776 q 661 745 665 753 q 658 741 659 743 q 945 801 766 784 q 965 802 956 802 q 1080 690 1074 802 l 1080 682 q 1075 627 1080 658 q 1062 584 1070 597 q 1050 575 1056 575 q 1038 584 1043 575 q 974 647 1023 627 q 852 667 924 667 q 631 627 745 667 q 673 439 661 541 q 751 458 718 447 q 806 486 785 469 q 822 493 814 493 q 832 488 828 493 q 835 477 835 485 q 828 447 835 465 q 815 415 822 429 q 762 359 797 379 q 682 331 726 338 l 682 328 q 647 146 682 220 q 556 36 612 72 q 436 0 500 0 q 325 30 377 0 q 240 118 273 60 q 208 252 208 175 q 214 315 208 283 q 97 271 134 300 q 81 264 88 264 q 71 269 75 264 q 68 280 68 273 q 87 342 68 300 q 152 405 109 384 q 249 430 196 426 q 256 448 252 439 q 381 672 307 560 q 549 911 455 785 q 579 953 570 941 q 610 996 595 975 q 514 951 553 979 q 462 878 475 924 q 459 864 460 873 q 454 847 457 852 q 445 841 452 841 q 429 846 439 841 q 357 929 375 876 q 349 977 349 955 q 390 1057 349 1029 q 500 1104 431 1086 q 972 1197 711 1160 q 1404 1235 1234 1234 m 558 562 q 502 431 524 492 l 552 431 q 583 431 565 431 q 558 562 576 489 m 587 315 q 588 327 587 323 l 473 327 q 472 319 473 324 q 471 313 471 315 q 467 273 467 292 q 481 216 467 236 q 517 195 496 195 q 563 224 542 195 q 587 304 583 252 l 587 315 z "},"₤":{"ha":1113,"x_min":67,"x_max":1046,"o":"m 783 833 q 798 836 793 835 q 802 838 800 836 q 892 875 854 850 q 932 955 930 899 l 932 960 q 909 1020 932 999 q 847 1040 886 1040 q 742 1008 798 1040 q 638 914 686 977 q 568 764 590 851 q 553 712 563 746 q 550 703 551 706 q 661 709 602 708 l 664 709 q 787 595 787 709 l 787 589 q 780 533 787 568 q 762 484 773 498 q 750 477 756 477 q 739 486 743 477 q 672 560 726 536 q 543 584 619 584 q 510 583 527 584 q 502 561 507 575 q 493 536 496 545 q 473 483 484 516 l 477 483 q 570 496 526 483 q 635 538 614 510 q 646 545 641 545 q 652 541 650 545 q 654 530 654 537 q 650 499 654 517 q 642 467 646 480 q 595 399 627 420 q 526 378 563 378 l 450 378 q 448 344 448 361 q 497 204 448 253 q 625 156 547 156 q 736 178 678 156 q 818 223 779 195 q 876 280 858 252 q 887 308 882 288 q 896 329 892 322 q 907 336 899 336 q 928 327 915 336 q 1009 210 994 280 q 1012 184 1012 196 q 835 33 1012 66 q 452 0 658 0 l 444 0 q 93 121 246 1 q 74 141 81 129 q 68 168 68 154 q 74 194 68 182 q 93 215 81 207 q 259 365 184 275 q 193 323 212 350 q 182 316 187 316 q 176 321 178 316 q 174 332 174 325 q 186 394 174 353 q 233 462 201 441 q 302 483 265 483 l 340 483 l 347 493 q 378 559 358 515 q 292 526 328 545 q 270 522 279 522 q 254 536 254 522 q 269 576 254 551 q 425 680 311 648 q 476 865 452 759 q 541 1037 496 952 q 655 1178 587 1122 q 808 1235 724 1235 q 865 1228 836 1235 q 1002 1132 958 1206 q 1046 956 1046 1057 q 1022 803 1046 878 q 974 733 1003 758 q 901 707 945 707 q 856 713 880 707 q 754 791 793 730 q 747 811 747 804 q 756 825 747 821 q 783 833 765 829 z "},"₧":{"ha":2943,"x_min":68,"x_max":2876,"o":"m 2807 864 q 2842 882 2821 882 q 2866 872 2856 882 q 2875 848 2875 863 q 2867 819 2875 834 q 2796 669 2821 739 q 2772 545 2772 599 q 2793 463 2772 496 q 2797 453 2797 458 q 2783 442 2797 444 l 2778 442 q 2732 453 2761 442 q 2685 475 2704 465 q 2620 568 2620 513 q 2648 647 2620 604 q 2685 703 2660 667 q 2693 727 2693 716 q 2680 749 2693 741 q 2647 756 2667 756 q 2585 740 2616 756 q 2537 693 2554 724 q 2521 633 2521 665 q 2546 549 2521 591 q 2620 441 2570 506 q 2705 315 2676 367 q 2734 208 2734 263 q 2731 177 2734 192 q 2675 83 2721 123 q 2559 21 2629 43 q 2410 0 2489 0 q 2231 32 2315 0 q 2092 132 2146 64 q 2035 299 2038 199 q 1810 82 1935 165 q 1545 0 1685 0 q 1414 49 1454 0 q 1373 183 1373 98 q 1391 313 1373 242 q 1435 453 1408 384 q 1491 580 1461 522 q 1544 673 1520 637 q 1579 726 1567 709 q 1510 700 1538 714 q 1494 696 1503 697 q 1493 696 1493 696 q 1192 512 1381 597 q 706 355 1002 427 q 690 241 690 294 q 746 79 690 144 q 760 43 760 62 q 748 17 760 28 q 712 3 736 6 q 688 1 702 1 q 532 25 628 1 q 393 202 393 60 q 420 347 393 265 q 488 507 448 428 q 576 661 528 585 q 664 796 623 737 q 749 916 705 855 q 757 926 751 920 q 786 968 779 957 q 601 839 688 912 q 463 694 514 765 q 391 590 429 649 q 343 491 363 545 q 323 394 323 437 l 323 387 q 332 351 324 375 q 339 323 339 332 q 332 309 339 314 q 305 303 324 304 l 300 303 q 211 319 253 303 q 140 363 170 334 q 68 498 68 418 q 190 741 68 606 q 503 994 313 875 q 883 1179 692 1113 q 1200 1236 1046 1236 q 1427 1199 1326 1236 q 1583 1097 1527 1162 q 1638 953 1638 1033 q 1609 837 1638 896 q 1664 854 1626 843 q 1745 992 1716 932 q 1773 1093 1773 1051 q 1767 1125 1773 1111 q 1764 1137 1764 1132 q 1784 1152 1764 1152 l 1789 1152 q 1887 1104 1836 1149 q 1973 939 1973 1027 q 1964 879 1973 910 q 2047 768 2047 861 l 2047 762 q 2040 706 2047 741 q 2022 658 2032 671 q 2010 650 2016 650 q 1999 659 2003 650 q 1891 744 1982 720 q 1834 673 1869 715 q 1700 472 1740 556 q 1659 329 1659 387 q 1679 266 1659 288 q 1733 243 1699 243 q 1832 279 1777 243 q 1941 384 1888 315 q 1952 397 1944 389 q 2030 505 2007 468 q 2058 535 2041 525 q 2091 545 2074 545 q 2107 543 2100 545 q 2195 591 2146 591 q 2229 585 2212 591 q 2233 584 2230 585 q 2299 557 2274 570 q 2342 515 2323 543 q 2351 494 2351 501 q 2345 484 2351 487 q 2326 479 2339 481 q 2300 473 2308 477 q 2211 397 2254 450 q 2182 321 2182 360 q 2205 255 2182 286 q 2264 207 2228 225 q 2337 189 2300 189 q 2399 207 2372 189 q 2437 262 2426 225 q 2445 318 2445 289 q 2428 414 2445 366 q 2376 532 2410 462 q 2340 608 2353 578 q 2321 666 2327 638 q 2315 711 2315 690 q 2350 806 2315 768 q 2443 864 2386 845 q 2564 882 2500 882 q 2685 864 2629 882 q 2766 813 2740 846 q 2807 864 2786 838 m 732 437 q 956 531 860 472 q 1114 660 1053 590 q 1204 798 1175 729 q 1233 924 1233 867 q 1216 997 1233 968 q 1078 1066 1175 1066 q 895 1022 1000 1066 q 968 920 968 985 q 958 865 968 895 q 931 807 947 835 q 890 737 916 779 q 880 721 883 726 q 732 437 778 555 z "},"€":{"ha":1137,"x_min":68,"x_max":1070,"o":"m 1062 1004 q 1069 955 1069 977 q 976 847 1069 873 q 929 836 956 842 q 883 831 902 831 q 863 833 870 831 q 852 845 852 838 q 859 857 852 850 q 902 916 888 881 q 917 989 917 951 q 906 1049 917 1021 q 876 1091 895 1076 q 810 1111 852 1111 q 664 1069 747 1111 q 504 952 581 1027 q 382 784 427 877 q 574 815 500 813 l 580 815 q 638 797 615 815 q 662 735 662 779 l 662 732 q 662 730 662 732 q 650 671 660 684 q 642 665 646 665 q 634 672 637 665 q 514 719 625 719 q 349 700 440 719 q 338 657 345 686 q 522 686 451 684 l 525 686 q 609 608 609 686 l 609 604 q 597 542 609 556 q 589 536 593 536 q 582 543 585 536 q 545 579 577 568 q 461 590 513 590 q 325 576 399 590 q 323 536 323 556 q 353 379 323 449 q 437 271 383 310 q 558 231 491 231 q 707 277 631 231 q 748 324 735 294 q 761 389 761 353 q 751 454 761 422 q 747 468 747 464 q 768 481 747 480 q 779 482 774 482 q 868 450 831 482 q 908 362 908 413 q 864 243 908 307 q 747 125 819 180 q 590 36 674 70 q 431 3 506 3 q 217 100 283 3 q 151 354 151 198 q 170 538 151 441 q 94 506 119 520 q 79 503 85 503 q 68 513 68 503 q 78 540 68 523 q 186 610 98 573 q 201 659 195 640 q 146 635 165 646 q 132 632 138 632 q 120 642 120 632 q 130 669 120 652 q 229 734 149 701 q 254 791 242 768 q 391 999 308 898 q 579 1166 475 1100 q 793 1232 684 1232 q 966 1169 897 1232 q 1062 1004 1035 1106 z "},"№":{"ha":2024,"x_min":68,"x_max":1957,"o":"m 1508 222 q 1477 233 1487 222 q 1466 262 1466 244 q 1484 306 1466 286 q 1530 326 1502 326 l 1915 326 q 1946 315 1935 326 q 1957 286 1957 304 q 1939 242 1957 262 q 1893 222 1921 222 l 1508 222 m 1013 810 q 935 693 961 734 q 1096 839 979 736 q 1281 1008 1217 945 q 1354 1111 1345 1072 q 1362 1172 1360 1135 q 1371 1218 1361 1202 q 1417 1234 1381 1234 q 1585 1183 1522 1234 q 1636 1074 1636 1141 q 1614 970 1636 1027 q 1560 853 1592 913 q 1470 699 1527 794 q 1377 541 1414 606 q 1311 409 1341 475 q 1194 92 1239 251 q 1148 -205 1148 -67 q 1234 -495 1148 -386 q 1257 -543 1257 -524 q 1220 -571 1257 -566 q 1182 -574 1204 -574 q 1076 -562 1133 -574 q 986 -534 1018 -551 q 887 -430 920 -501 q 855 -257 855 -359 q 912 69 855 -116 q 1068 448 969 254 q 1288 814 1166 642 q 1191 720 1241 766 q 1063 606 1140 673 q 891 452 958 515 q 766 316 825 390 q 672 164 707 243 q 648 67 648 106 q 656 27 648 44 q 661 14 661 20 q 637 -1 661 -1 q 535 39 592 -1 q 450 181 450 100 q 463 251 450 214 q 500 330 476 287 q 627 540 543 406 q 724 698 686 633 q 799 836 762 762 q 829 909 819 877 q 839 966 839 942 q 827 1006 839 992 q 793 1020 815 1020 q 729 998 766 1020 q 650 935 691 977 q 378 595 503 790 q 330 495 349 549 q 311 399 311 441 l 311 392 q 319 355 311 380 q 326 328 326 336 q 319 314 326 319 q 292 308 311 309 l 287 308 q 127 367 193 308 q 68 485 68 412 q 132 663 68 564 q 300 864 195 763 q 525 1049 404 964 q 757 1184 646 1133 q 942 1234 868 1234 l 943 1234 q 1077 1183 1028 1234 q 1125 1058 1125 1132 q 1080 911 1125 985 q 1013 810 1061 880 m 1851 743 q 1892 714 1879 736 q 1905 661 1905 693 q 1891 588 1905 628 q 1831 476 1872 530 q 1740 391 1791 423 q 1636 358 1688 358 q 1575 375 1602 358 q 1533 425 1548 393 q 1517 500 1517 459 q 1553 639 1517 568 q 1642 758 1589 710 q 1778 825 1708 818 q 1788 825 1783 825 q 1836 808 1818 825 q 1855 764 1855 790 q 1851 743 1855 753 m 1768 460 q 1809 515 1796 484 q 1823 581 1823 547 q 1805 648 1823 620 q 1761 676 1788 676 q 1726 663 1744 676 q 1688 616 1703 646 q 1672 557 1672 586 q 1676 533 1672 544 q 1676 532 1676 533 q 1677 525 1677 528 q 1668 517 1677 519 q 1656 516 1662 516 q 1626 527 1638 516 q 1610 561 1610 542 q 1618 591 1610 575 q 1640 627 1626 607 q 1701 690 1666 661 q 1773 734 1736 720 q 1737 758 1765 758 q 1697 749 1718 758 q 1662 726 1676 739 q 1613 657 1629 694 q 1597 581 1597 619 q 1612 508 1597 542 q 1652 454 1627 474 q 1706 434 1676 434 q 1768 460 1738 434 z "}}}
